<svg width="490" height="421" viewBox="0 0 490 421" fill="none" xmlns="http://www.w3.org/2000/svg">
<g filter="url(#filter0_d_951_1154)">
<path d="M135.666 25.5296C133.583 27.331 113.922 159.778 111.289 167.803C108.649 175.855 92.8354 194.7 80.8684 211.79C68.8932 228.909 47.0315 263.336 48.3374 265.168C49.6433 267.001 164.43 311.28 201.936 319.633C239.443 327.986 294.334 330.665 339.836 338.267C369.652 343.257 386.312 344.726 388.654 345.31C390.995 345.894 393.541 345.774 393.604 340.275C393.668 334.775 391.135 285.106 389.775 266.774C388.415 248.441 386.148 226.477 386.148 226.477C386.148 226.477 405.127 184.038 417.85 156.316C430.572 128.593 438.069 114.668 437.775 113.148C437.481 111.628 337.515 70.409 335.431 69.8895C333.346 69.37 241.985 70.9238 237.681 69.6101C233.385 68.2682 137.787 23.7072 135.666 25.5296Z" fill="#060A33"/>
</g>
<path d="M116.968 171.011C116.968 171.011 141.504 36.4562 141.746 35.6221C141.988 34.7881 234.705 76.8079 234.705 76.8079L286.102 113.631C286.102 113.631 339.346 77.018 343.211 78.3123C347.075 79.6066 422.902 111.223 425.8 112.31C428.707 113.365 429.713 115.835 427.829 119.937C425.975 124.045 377.086 228.121 377.086 228.121L231.188 231.175L116.968 171.011Z" fill="white"/>
<path d="M118.043 168.216L207.775 193.658L250.935 216.566L303.482 200.215C303.482 200.215 338.872 211.394 348.705 214.63C358.538 217.867 379.13 225.619 379.13 225.619C379.13 225.619 389.084 333.7 389.434 335.13C389.784 336.561 388.345 338.888 385.705 338.59C383.065 338.293 352.977 332.334 352.977 332.334C352.977 332.334 341.488 324.491 331.699 323.395C321.942 322.306 305.053 326.318 305.053 326.318L284.714 323.542C284.714 323.542 282.752 318.271 280.936 315.133C279.119 311.994 275.479 309.187 275.479 309.187C275.479 309.187 239.908 315.943 243.227 304.58C246.546 293.217 246.641 293.272 232.036 285.422C217.43 277.572 163.769 301.524 163.769 301.524C163.769 301.524 63.3044 266.66 59.3667 264.99C55.4291 263.321 53.7547 261.987 56.939 257.31C60.1543 252.642 118.043 168.216 118.043 168.216Z" fill="white"/>
<path d="M244.209 257.71C275.089 257.71 300.122 232.678 300.122 201.798C300.122 170.919 275.089 145.886 244.209 145.886C213.33 145.886 188.297 170.919 188.297 201.798C188.297 232.678 213.33 257.71 244.209 257.71Z" fill="#DDEFFF"/>
<path d="M237.336 159.559C236.711 161.466 235.595 164.86 232.508 166.691C229.764 168.315 227.567 167.451 223.083 168.96C220.372 169.874 218.667 170.445 217.128 172.013C214.894 174.29 215.455 176.145 213.95 178.537C210.702 183.7 202.578 183.86 202.128 183.861C198.648 183.821 195.263 182.722 192.423 180.711C195.855 172.264 201.304 164.787 208.293 158.932C215.282 153.077 223.599 149.022 232.516 147.122C233.883 146.829 235.255 146.589 236.618 146.398C237.868 149.619 239.001 154.497 237.336 159.559ZM225.09 184.287C227.898 178.751 230.788 173.054 235.803 172.593C239.758 172.229 244.145 175.203 245.78 178.845C247.823 183.394 244.416 186.412 246.765 190.578C248.362 193.411 250.241 192.553 254.104 196.378C255.929 198.185 259.011 201.235 259.689 205.857C259.844 206.914 260.669 213.469 255.797 217.362C254.254 218.585 252.416 219.379 250.468 219.661C248.52 219.944 246.532 219.706 244.705 218.972C240.881 217.249 241.287 213.955 237.852 213.068C234.721 212.259 233.537 214.778 228.566 214.8C226.734 214.808 223.351 214.822 221.277 212.801C218.429 210.024 219.505 204.822 221.162 196.816C222.096 192.306 222.836 188.729 225.09 184.287ZM298.885 190.104C299.875 194.722 300.278 199.445 300.086 204.163C295.313 206.423 289.346 207.487 284.005 205.485C282.428 204.895 278.399 203.385 276.666 199.685C275.359 196.893 276.619 195.555 275.663 190.243C275.294 187.215 274.238 184.312 272.577 181.754C270.136 178.29 268.144 178.626 266.262 175.99C263.45 172.054 264.188 166.146 265.694 162.643C267.3 158.911 270.475 156.305 274.194 154.61C280.467 158.582 285.883 163.768 290.123 169.864C294.364 175.959 297.343 182.841 298.885 190.104ZM267.733 228.023C266.144 226.336 265.778 223.017 267.111 221.549C268.335 220.202 270.29 221.185 272.006 219.486C273.264 218.241 272.72 217.211 273.865 216.293C275.444 215.027 278.557 215.323 280.355 216.938C282.672 219.017 282.345 222.868 281.098 225.165C278.57 229.824 270.626 231.095 267.733 228.023ZM256.841 256.257C256.529 256.334 256.216 256.407 255.902 256.474C247.123 258.358 238.019 258.097 229.363 255.713C220.706 253.33 212.751 248.894 206.174 242.782C206.492 240.621 207.227 238.541 208.338 236.66C208.68 236.084 213.007 229.086 219.934 229.097C222.351 229.167 224.703 229.894 226.737 231.2C229.339 232.92 229.094 234.249 231.179 235.333C233.913 236.755 235.662 235.157 240.777 235.059C243.666 235.002 247.731 234.927 250.894 237.215C254.138 239.56 254.971 243.332 255.802 247.093C256.55 250.089 256.899 253.17 256.841 256.257Z" fill="#051B30"/>
<path d="M294.324 177.116C300.371 176.145 306.467 175.514 312.583 175.225C315.651 175.087 318.73 175.028 321.823 175.161C324.957 175.238 328.079 175.58 331.155 176.184C332.777 176.501 334.358 176.996 335.871 177.659C336.713 178.026 337.502 178.505 338.215 179.084C339.084 179.764 339.741 180.677 340.112 181.716C340.476 182.826 340.465 184.025 340.081 185.129C339.761 186.043 339.297 186.9 338.706 187.668C337.662 188.994 336.459 190.187 335.125 191.22C332.623 193.151 329.95 194.849 327.139 196.293C324.402 197.779 321.57 199.025 318.737 200.236C313.045 202.601 307.231 204.57 301.382 206.373C295.53 208.17 289.658 209.853 283.779 211.493C277.906 213.155 272.019 214.752 266.124 216.33C260.221 217.876 254.332 219.496 248.391 220.919C242.458 222.375 236.507 223.786 230.51 224.986C224.515 226.201 218.483 227.237 212.428 228.147C200.294 230.101 188.035 231.177 175.746 231.367C172.655 231.346 169.557 231.252 166.445 231C163.282 230.792 160.142 230.307 157.063 229.553C155.417 229.151 153.826 228.554 152.322 227.774C151.464 227.323 150.68 226.744 149.996 226.058C149.161 225.23 148.61 224.158 148.425 222.997C148.279 221.869 148.467 220.724 148.966 219.702C149.369 218.86 149.89 218.079 150.513 217.382C151.622 216.146 152.866 215.037 154.223 214.078C156.79 212.275 159.504 210.69 162.337 209.341C165.108 207.961 167.944 206.761 170.798 205.631C173.648 204.49 176.543 203.482 179.446 202.519C182.349 201.554 185.267 200.648 188.211 199.832L188.354 200.244C185.543 201.428 182.735 202.606 179.953 203.833C177.172 205.062 174.422 206.353 171.698 207.672C166.296 210.356 160.881 213.198 156.311 216.807C155.217 217.663 154.222 218.638 153.344 219.714C152.996 220.064 152.722 220.48 152.537 220.937C152.352 221.394 152.261 221.884 152.267 222.377C152.351 222.726 152.548 223.038 152.826 223.265C153.241 223.636 153.708 223.945 154.211 224.181C155.442 224.751 156.735 225.176 158.064 225.445C163.89 226.494 169.81 226.919 175.726 226.714C181.733 226.678 187.764 226.317 193.793 225.872C199.824 225.418 205.852 224.794 211.871 224.061C217.889 223.322 223.894 222.449 229.898 221.538C235.9 220.611 241.908 219.675 247.891 218.583C253.865 217.455 259.847 216.319 265.763 214.894C271.686 213.502 277.558 211.916 283.38 210.136C294.968 206.522 306.289 202.106 317.263 196.918C322.677 194.333 328.126 191.627 332.737 188.182C333.83 187.369 334.822 186.428 335.691 185.38C336.042 184.946 336.324 184.462 336.528 183.943C336.672 183.605 336.695 183.228 336.592 182.874C336.119 181.946 335.316 181.228 334.34 180.861C333.08 180.258 331.757 179.794 330.396 179.478C324.725 178.113 318.628 177.775 312.601 177.547C306.548 177.364 300.464 177.449 294.363 177.55L294.324 177.116Z" fill="#22E0BB"/>
<path d="M148.309 117.519L152.116 100.496L172.038 104.164L168.231 121.187L168.231 121.187C168.174 121.443 168.047 121.68 167.862 121.874C167.678 122.067 167.444 122.209 167.186 122.283C166.928 122.357 166.657 122.36 166.402 122.292C166.147 122.224 165.919 122.088 165.742 121.898L160.439 116.198L160.439 116.198C160.096 115.829 159.639 115.58 159.135 115.487C158.63 115.394 158.102 115.462 157.628 115.68L157.628 115.68L150.296 119.054C150.296 119.054 150.296 119.054 150.296 119.054C150.052 119.166 149.783 119.211 149.519 119.184C149.255 119.156 149.006 119.057 148.8 118.898C148.595 118.739 148.44 118.526 148.354 118.282C148.267 118.039 148.252 117.775 148.309 117.519L148.309 117.519Z" fill="#060A33" stroke="#060A33"/>
<path d="M183.223 92.7476L183.223 92.7475C183.477 92.2599 183.88 91.8479 184.305 91.488C184.638 91.2048 185.015 90.9302 185.374 90.6682C185.469 90.5985 185.563 90.5297 185.655 90.4618C186.106 90.129 186.512 89.8119 186.828 89.4775C187.143 89.1453 187.342 88.824 187.417 88.4896C187.491 88.1553 187.446 87.789 187.299 87.3719C187.151 86.9521 186.914 86.5166 186.642 86.0508C186.586 85.9555 186.529 85.8585 186.47 85.7602C186.253 85.3924 186.024 85.007 185.839 84.6287C185.603 84.1476 185.408 83.6258 185.383 83.0874L185.383 83.0868C185.359 82.5358 185.503 81.9798 185.694 81.4585C185.849 81.0362 186.047 80.6038 186.236 80.1939C186.279 80.0999 186.321 80.0071 186.363 79.9159C186.591 79.4124 186.788 78.9485 186.897 78.5152C187.006 78.0849 187.019 77.7242 186.918 77.4143C186.816 77.1043 186.593 76.822 186.251 76.5431C185.907 76.2625 185.475 76.011 184.996 75.7486C184.908 75.7 184.817 75.6509 184.725 75.6012C184.336 75.39 183.926 75.1678 183.557 74.928C183.1 74.6306 182.661 74.2776 182.361 73.8264C182.062 73.3756 181.907 72.834 181.809 72.2981C181.729 71.8631 181.683 71.3965 181.638 70.9535C181.628 70.8524 181.618 70.7525 181.608 70.6545C181.551 70.1118 181.487 69.6175 181.362 69.1931C181.239 68.7708 181.067 68.4586 180.825 68.2488C180.584 68.039 180.247 67.9105 179.806 67.8421C179.362 67.7734 178.854 67.7714 178.297 67.7826C178.2 67.7846 178.1 67.787 178 67.7894C177.542 67.8005 177.06 67.8122 176.604 67.7872C176.046 67.7565 175.475 67.6696 174.976 67.4319L174.976 67.4318C174.488 67.1992 174.082 66.8172 173.729 66.4126C173.451 66.0944 173.183 65.7343 172.928 65.3907C172.86 65.2992 172.793 65.2089 172.727 65.1208C172.402 64.6893 172.092 64.3015 171.762 64.0017C171.433 63.7039 171.111 63.5183 170.771 63.4556C170.431 63.393 170.055 63.4501 169.624 63.6081C169.191 63.7672 168.739 64.0147 168.255 64.2974C168.156 64.3553 168.055 64.4149 167.953 64.4753C167.57 64.7013 167.17 64.9381 166.778 65.1328C166.279 65.3805 165.741 65.5887 165.193 65.6306L165.192 65.6306C164.63 65.6727 164.069 65.5499 163.544 65.3798C163.119 65.242 162.685 65.0615 162.273 64.8904C162.179 64.8511 162.085 64.8123 161.994 64.7747C161.488 64.5669 161.021 64.3893 160.582 64.2959C160.146 64.2032 159.777 64.2028 159.457 64.3128C159.136 64.4227 158.841 64.6514 158.546 64.9958C158.249 65.3425 157.978 65.774 157.695 66.253C157.642 66.3416 157.589 66.4321 157.535 66.5238C157.307 66.9134 157.067 67.3236 156.81 67.6934C156.491 68.1519 156.116 68.5953 155.646 68.9044C155.177 69.2129 154.62 69.3835 154.07 69.4972C153.624 69.5896 153.147 69.6509 152.694 69.7091C152.59 69.7224 152.488 69.7355 152.388 69.7488C151.832 69.8224 151.326 69.9022 150.888 70.0384C150.453 70.174 150.129 70.3529 149.907 70.5968C149.686 70.8402 149.544 71.1733 149.46 71.6083C149.376 72.0458 149.357 72.5436 149.35 73.0899C149.348 73.1855 149.348 73.2829 149.347 73.3814C149.343 73.8301 149.339 74.3039 149.298 74.7526C149.248 75.3018 149.141 75.866 148.881 76.3647L148.881 76.3648C148.627 76.8524 148.224 77.2644 147.799 77.6243C147.466 77.9075 147.089 78.1821 146.731 78.4441C146.635 78.5138 146.541 78.5827 146.449 78.6506C145.998 78.9833 145.592 79.3004 145.276 79.6349C144.961 79.9671 144.762 80.2884 144.687 80.6227C144.613 80.957 144.658 81.3233 144.805 81.7404C144.953 82.1603 145.19 82.5957 145.462 83.0615C145.518 83.1565 145.575 83.2532 145.633 83.3511C145.851 83.7192 146.079 84.105 146.265 84.4837C146.5 84.9648 146.695 85.4866 146.719 86.0251L146.719 86.0252C146.743 86.5762 146.599 87.1321 146.408 87.6534C146.253 88.0757 146.055 88.5082 145.867 88.9181C145.823 89.0121 145.781 89.1049 145.739 89.1961C145.511 89.6996 145.314 90.1635 145.205 90.5968C145.096 91.0271 145.083 91.3878 145.185 91.6977C145.286 92.0077 145.509 92.29 145.851 92.5689C146.195 92.8495 146.627 93.101 147.106 93.3634C147.194 93.4119 147.285 93.461 147.377 93.5107C147.767 93.7219 148.177 93.9441 148.545 94.184C149.002 94.4814 149.441 94.8344 149.741 95.2856C150.04 95.7364 150.196 96.278 150.293 96.8139C150.373 97.2489 150.42 97.7154 150.464 98.1584C150.474 98.2595 150.484 98.3594 150.494 98.4575C150.551 99.0002 150.616 99.4945 150.74 99.9189C150.863 100.341 151.035 100.653 151.277 100.863C151.519 101.073 151.855 101.201 152.296 101.27C152.741 101.339 153.248 101.341 153.805 101.329C153.903 101.327 154.002 101.325 154.102 101.323C154.56 101.311 155.042 101.3 155.498 101.325C156.057 101.355 156.627 101.442 157.126 101.68L157.126 101.68C157.614 101.913 158.02 102.295 158.373 102.699C158.651 103.017 158.918 103.377 159.173 103.721C159.241 103.812 159.308 103.903 159.375 103.991C159.699 104.423 160.009 104.81 160.34 105.11C160.668 105.408 160.99 105.594 161.331 105.656C161.672 105.719 162.048 105.662 162.477 105.504C162.91 105.344 163.362 105.097 163.845 104.814C163.942 104.757 164.041 104.699 164.141 104.639C164.525 104.412 164.928 104.174 165.323 103.978C165.822 103.73 166.361 103.522 166.912 103.482L183.223 92.7476ZM183.223 92.7476C182.963 93.2463 182.856 93.8105 182.806 94.3597M183.223 92.7476L182.806 94.3597M182.806 94.3597C182.765 94.8084 182.761 95.2822 182.757 95.7309M182.806 94.3597L182.757 95.7309M182.757 95.7309C182.756 95.8294 182.756 95.9268 182.754 96.0224M182.757 95.7309L182.754 96.0224M182.754 96.0224C182.747 96.5687 182.729 97.0665 182.644 97.5041M182.754 96.0224L182.644 97.5041M182.644 97.5041C182.56 97.9391 182.418 98.2721 182.197 98.5156M182.644 97.5041L182.197 98.5156M182.197 98.5156C181.975 98.7594 181.651 98.9384 181.216 99.0739M182.197 98.5156L181.216 99.0739M181.216 99.0739C180.778 99.2101 180.272 99.2899 179.716 99.3635M181.216 99.0739L179.716 99.3635M179.716 99.3635C179.616 99.3768 179.514 99.39 179.41 99.4033M179.716 99.3635L179.41 99.4033M179.41 99.4033C178.957 99.4615 178.48 99.5227 178.034 99.6151M179.41 99.4033L178.034 99.6151M178.034 99.6151C177.485 99.7288 176.927 99.8994 176.458 100.208M178.034 99.6151L176.458 100.208M176.458 100.208C175.988 100.517 175.613 100.96 175.294 101.419M176.458 100.208L175.294 101.419M175.294 101.419C175.037 101.789 174.797 102.199 174.569 102.588M175.294 101.419L174.569 102.588M174.569 102.588C174.515 102.68 174.462 102.771 174.409 102.859M174.569 102.588L174.409 102.859M174.409 102.859C174.126 103.338 173.855 103.77 173.558 104.117M174.409 102.859L173.558 104.117M173.558 104.117C173.263 104.461 172.968 104.69 172.648 104.799M173.558 104.117L172.648 104.799M172.648 104.799C172.327 104.91 171.958 104.909 171.522 104.816M172.648 104.799L171.522 104.816M171.522 104.816C171.083 104.723 170.616 104.545 170.11 104.338M171.522 104.816L170.11 104.338M170.11 104.338C170.019 104.3 169.925 104.261 169.831 104.222M170.11 104.338L169.831 104.222M169.831 104.222C169.419 104.051 168.985 103.87 168.56 103.733M169.831 104.222L168.56 103.733M168.56 103.733C168.035 103.563 167.474 103.44 166.913 103.482L168.56 103.733Z" fill="#22E0BB" stroke="#060A33"/>
<path d="M179.814 87.0902C178.136 94.5944 170.615 99.5476 163.012 98.1478C155.409 96.748 150.611 89.5267 152.29 82.0225C153.968 74.5183 161.489 69.5651 169.092 70.9649C176.695 72.3647 181.493 79.5859 179.814 87.0902Z" fill="white" stroke="#060A33"/>
<path d="M171.274 75.7242L172.361 74.947C169.744 73.3769 166.562 72.8728 163.506 73.5443C160.45 74.2158 157.767 76.0086 156.039 78.5334C155.965 78.6416 155.895 78.7485 155.825 78.8565L165.329 81.5682C167.908 78.8408 170.504 76.2787 171.274 75.7242Z" fill="#060A33"/>
<path d="M159.313 88.9723C159.224 88.8604 159.39 88.5209 159.733 88.0195C159.873 87.8159 160.043 87.5835 160.241 87.3278L154.507 81.7346C154.015 83.3959 153.92 85.1339 154.231 86.8177C154.541 88.5015 155.248 90.0873 156.299 91.4556C157.349 92.824 158.716 93.9393 160.296 94.7175C161.876 95.4958 163.627 95.9167 165.419 95.9486L161.214 88.5821C160.147 88.9611 159.435 89.1287 159.313 88.9723Z" fill="#060A33"/>
<path d="M177.168 80.809C176.547 81.2317 176.11 81.5301 175.893 81.6856C175.508 81.9617 174.492 82.5246 173.149 83.2086C171.806 83.8927 170.118 84.7153 168.396 85.5183L168.392 95.6439C170.019 95.2747 171.554 94.5836 172.898 93.6155C174.241 92.6474 175.364 91.424 176.191 90.0248C177.019 88.6255 177.534 87.0819 177.702 85.4941C177.87 83.9063 177.688 82.31 177.168 80.809Z" fill="#060A33"/>
<g clip-path="url(#clip0_951_1154)">
<path d="M353.866 152.375L373.017 138.11C373.871 137.473 373.208 136.273 372.085 136.437L371.275 136.551C369.309 136.831 367.464 137.552 365.929 138.639L344.131 153.82L353.866 152.375Z" fill="#060A33"/>
<path d="M372.238 136.421L354.096 148.129L349.63 148.129C349.63 148.129 361.636 140.438 365.189 138.29C368.162 136.497 370.625 136.322 372.238 136.421Z" fill="#060A33"/>
<path d="M343.2 144.466C343.2 144.466 334.039 146.091 318.889 152.888C305.805 158.764 305.511 158.524 305.511 158.524C305.511 158.524 296.714 161.696 296.81 162.901C296.906 164.106 297.843 166.275 299.349 166.515C300.854 166.755 327.092 164.7 329.44 164.346C336.304 163.299 346.696 160.857 353.866 158.431C361.036 156.006 366.274 152.381 367.684 148.603C367.684 148.603 368.551 146.668 366.012 146.668C363.473 146.668 352.405 147.115 352.405 147.115C352.405 147.115 347.053 143.823 343.2 144.466Z" fill="#51FFDD"/>
<path d="M363.76 151.007C363.76 151.007 360.303 153.624 356.915 154.899C351.365 156.987 335.57 160.961 330.429 162.04C326.499 162.868 318.525 164.324 314.697 164.515C309.626 164.76 307.674 161.893 305.511 158.519C303.757 155.782 301.135 150.538 299.904 148.244C299.781 148.016 299.559 147.838 299.285 147.748C299.011 147.658 298.706 147.664 298.437 147.764L295.623 148.794C295.164 148.963 294.883 149.372 294.947 149.797L296.912 163.381C296.912 163.381 297.193 166.112 299.355 166.515C301.518 166.918 318.723 165.392 324.464 165.147C330.205 164.902 345.012 161.669 353.873 158.426C362.733 155.183 364.347 153.106 365.929 151.405C365.923 151.411 364.794 151.329 363.76 151.007Z" fill="#060A33"/>
<path d="M306.309 161.135C306.309 161.135 305.747 160.088 302.545 161.135C299.342 162.182 297.282 162.743 297.282 162.743L292.389 165.594C291.834 165.915 292.153 166.657 292.823 166.591L295.419 166.352C295.5 166.346 295.578 166.325 295.649 166.292C296.638 165.839 304.286 162.334 306.309 161.135Z" fill="#060A33"/>
<path d="M351.066 147.306C351.066 147.306 346.198 149.966 343.87 152.196C343.87 152.196 342.951 152.675 342.179 151.716C341.401 150.751 339.857 148.047 341.057 147.126C342.256 146.205 344.355 144.897 345.554 145.126C348.335 145.654 351.066 147.306 351.066 147.306Z" fill="#060A33"/>
<path d="M365.91 151.46C365.808 151.454 362.925 151.383 362.472 149.416C362.038 147.524 363.129 146.772 363.129 146.772C363.129 146.772 367.626 146.287 368.22 147.322C369.062 148.816 365.91 151.46 365.91 151.46Z" fill="#64878E"/>
<path d="M335.806 153.82C337.061 153.82 338.077 152.951 338.077 151.879C338.077 150.808 337.061 149.939 335.806 149.939C334.552 149.939 333.535 150.808 333.535 151.879C333.535 152.951 334.552 153.82 335.806 153.82Z" fill="#060A33"/>
<path d="M328.496 155.608C329.56 155.608 330.422 154.871 330.422 153.962C330.422 153.052 329.56 152.315 328.496 152.315C327.432 152.315 326.569 153.052 326.569 153.962C326.569 154.871 327.432 155.608 328.496 155.608Z" fill="#060A33"/>
<path d="M322.193 157.003C323.081 157.003 323.801 156.388 323.801 155.63C323.801 154.871 323.081 154.256 322.193 154.256C321.305 154.256 320.585 154.871 320.585 155.63C320.585 156.388 321.305 157.003 322.193 157.003Z" fill="#060A33"/>
<path d="M343.71 161.326C343.71 161.326 343.021 158.311 338.078 158.72C333.134 159.129 322.94 162.361 322.94 162.361L299.221 176.447C298.501 176.872 298.583 177.804 299.374 178.131C300.854 178.751 302.488 179.055 304.135 179.018C305.783 178.981 307.395 178.604 308.835 177.918L343.71 161.326Z" fill="#060A33"/>
<path d="M336.655 157.973L300.72 179.87L305.824 179.87L346.862 160.672L344.131 157.973L336.655 157.973Z" fill="#060A33"/>
</g>
<defs>
<filter id="filter0_d_951_1154" x="0.281494" y="0.475164" width="489.502" height="420.069" filterUnits="userSpaceOnUse" color-interpolation-filters="sRGB">
<feFlood flood-opacity="0" result="BackgroundImageFix"/>
<feColorMatrix in="SourceAlpha" type="matrix" values="0 0 0 0 0 0 0 0 0 0 0 0 0 0 0 0 0 0 127 0" result="hardAlpha"/>
<feOffset dx="2" dy="25"/>
<feGaussianBlur stdDeviation="25"/>
<feComposite in2="hardAlpha" operator="out"/>
<feColorMatrix type="matrix" values="0 0 0 0 0.0235294 0 0 0 0 0.0392157 0 0 0 0 0.2 0 0 0 0.1 0"/>
<feBlend mode="normal" in2="BackgroundImageFix" result="effect1_dropShadow_951_1154"/>
<feBlend mode="normal" in="SourceGraphic" in2="effect1_dropShadow_951_1154" result="shape"/>
</filter>
<clipPath id="clip0_951_1154">
<rect width="81.6546" height="69.7716" fill="white" transform="translate(292 121)"/>
</clipPath>
</defs>
</svg>
