<svg width="15" height="18" viewBox="0 0 15 18" fill="none" xmlns="http://www.w3.org/2000/svg">
<path d="M4.90229 8.07584V4.94123C4.90229 3.50878 6.06771 2.34328 7.50024 2.34328C8.93278 2.34328 10.0982 3.5087 10.0982 4.94123V8.07584H12.4414V4.94116C12.4414 2.21226 10.2292 0 7.50024 0C4.77127 0 2.55908 2.21219 2.55908 4.94116V8.07584H4.90229Z" fill="#2F373B"/>
<path d="M3.8832 8.07601V4.94133C3.8832 2.43709 5.74661 0.369334 8.1623 0.04566C7.94561 0.0166211 7.7249 0.000244141 7.50024 0.000244141C4.77135 0.000244141 2.55908 2.21243 2.55908 4.9414V8.07609H3.8832V8.07601Z" fill="#151E22"/>
<path d="M13.5424 18H1.45761C1.02619 18 0.676514 17.6503 0.676514 17.2189V8.78109C0.676514 8.34968 1.02619 8 1.45761 8H13.5424C13.9738 8 14.3235 8.34968 14.3235 8.78109V17.2189C14.3235 17.6503 13.9737 18 13.5424 18Z" fill="#FAC600"/>
<path d="M3.96109 17.2189V8.78109C3.96109 8.34968 4.31077 8 4.74219 8H1.45761C1.02619 8 0.676514 8.34968 0.676514 8.78109V17.2189C0.676514 17.6503 1.02619 18 1.45761 18H4.74219C4.31077 18 3.96109 17.6503 3.96109 17.2189Z" fill="#E8B800"/>
</svg>
