<svg width="430" height="445" viewBox="0 0 430 445" fill="none" xmlns="http://www.w3.org/2000/svg">
<g opacity="0.07">
<path d="M239.211 40.9034L259.202 18.3075C226.858 5.6453 192.39 -0.380259 157.767 0.574945C123.144 1.53015 89.0443 9.44739 57.4153 23.8745C25.7864 38.3016 -2.75205 58.9559 -26.5701 84.6578C-50.3881 110.36 -69.0191 140.606 -81.399 173.668C-82.5625 176.587 -83.5145 179.398 -84.5723 182.209L137.559 205.021C180.61 129.233 225.036 57.3368 239.211 40.9034Z" fill="#22E0BB"/>
<path d="M41.8276 406.221C39.3947 403.951 41.8276 395.41 46.376 381.896C48.3857 376.49 51.0302 370.219 54.0977 363.3L-99.3845 256.158C-103.215 313.924 -89.0978 371.451 -59.0478 420.532C-28.9978 469.612 15.45 507.739 67.9545 529.472C112.996 547.973 162.206 553.216 210.013 544.608L81.4939 388.815C59.9154 402.329 45.1067 409.465 41.8276 406.221Z" fill="#22E0BB"/>
<path d="M393.537 135.502C382.007 148.152 373.862 157.125 369.843 161.774C353.115 178.784 335.457 194.811 316.954 209.777C290.827 231.4 257.825 258.537 223.977 285.457L273.586 524.931C336.958 495.362 386.447 441.557 411.413 375.084C426.225 336.341 432.309 294.685 429.215 253.209C426.12 211.733 413.926 171.502 393.537 135.502Z" fill="#22E0BB"/>
</g>
</svg>
