<svg width="90" height="88" viewBox="0 0 90 88" fill="none" xmlns="http://www.w3.org/2000/svg">
<path d="M57.1844 7.83631L60.4775 4.25417C49.7774 0.265665 37.9 0.565453 27.4246 5.08844C16.9491 9.61142 8.7214 17.9924 4.52801 28.4115C4.34689 28.8583 4.18223 29.297 4.01758 29.7397L40.4638 33.2655C47.5645 21.529 54.8546 10.3881 57.1844 7.83631Z" fill="white" fill-opacity='0.05' />
<path d="M24.7475 64.4627C24.3359 64.1125 24.6611 62.7561 25.4926 60.6873C25.8342 59.8461 26.2582 58.8801 26.7645 57.8095L1.58479 41.1787C1.15059 47.5997 2.21176 54.0333 4.6884 59.9952C7.16504 65.9572 10.9926 71.2921 15.883 75.5984C20.7734 79.9047 26.5992 83.0702 32.9218 84.8565C39.2443 86.6428 45.899 87.0034 52.3847 85.9112L31.2843 61.7499C27.7442 63.8589 25.3115 64.9537 24.7475 64.4627Z" fill="white" fill-opacity='0.05' />
<path d="M82.5329 22.4951C80.6352 24.4633 79.3015 25.8519 78.6429 26.5683C77.478 27.8402 74.2672 30.5892 69.978 34.0023C65.6887 37.4154 60.2675 41.569 54.7063 45.6744L62.8567 82.7878C68.4234 80.3372 73.4003 76.7684 77.4637 72.3135C81.5272 67.8586 84.5863 62.6174 86.4422 56.9307C88.298 51.2439 88.909 45.2389 88.2355 39.3061C87.562 33.3733 85.619 27.6455 82.5329 22.4951Z" fill="white" fill-opacity='0.05' />
</svg>
