<svg width="26" height="22" viewBox="0 0 26 22" fill="none" xmlns="http://www.w3.org/2000/svg">
<path d="M4 4.875C4 4.39175 4.39175 4 4.875 4H21.125C21.6082 4 22 4.39175 22 4.875C22 5.35825 21.6082 5.75 21.125 5.75H4.875C4.39175 5.75 4 5.35825 4 4.875ZM10 11C10 10.5168 10.3918 10.125 10.875 10.125H21.125C21.6082 10.125 22 10.5168 22 11C22 11.4832 21.6082 11.875 21.125 11.875H10.875C10.3918 11.875 10 11.4832 10 11ZM4 17.125C4 16.6418 4.39175 16.25 4.875 16.25H21.125C21.6082 16.25 22 16.6418 22 17.125C22 17.6082 21.6082 18 21.125 18H4.875C4.39175 18 4 17.6082 4 17.125Z" fill="#060A33"/>
</svg>
