<svg width="32" height="32" viewBox="0 0 32 32" fill="none" xmlns="http://www.w3.org/2000/svg">
<g clip-path="url(#clip0_1709_8617)">
<path d="M0.621582 17.0665H15.4216C15.4216 17.0665 18.8438 17.022 20.0882 15.1109C21.3327 13.1109 25.1105 5.15536 25.1105 5.15536C25.1105 5.15536 25.4216 4.31092 26.2216 4.31092L29.7327 4.13314L29.3771 5.2887H27.2438C26.4438 5.2887 26.1327 6.17758 26.1327 6.17758C26.1327 6.17758 21.7771 16.0887 20.5327 18.0443C19.2438 20.0443 15.8216 20.0443 15.8216 20.0443H0.621582V17.0665Z" fill="#EF8939"/>
<path d="M26.8438 3.2887H30.1772L30.5772 2.17759H25.9994C25.9994 2.17759 24.1327 2.26648 23.3772 4.17759L19.9994 10.7554C19.9994 10.7554 19.1994 12.7109 15.1994 12.7109H0.443848V15.6443H15.5994C19.1105 15.6443 20.2661 12.9776 20.2661 12.9776L24.3105 4.79981C24.3994 4.79981 24.8438 3.2887 26.8438 3.2887Z" fill="#EF8939"/>
<path d="M26.8883 1.11103H31.155L31.555 -8.33315e-05H26.8883C26.8883 -8.33315e-05 23.3772 -0.222306 21.8661 2.5777L19.2438 7.02214C18.2661 8.88881 14.8438 8.53325 14.8438 8.53325H0.443848V11.511H15.2438C15.2438 11.511 18.0438 11.511 19.3772 9.55548L23.0661 3.02214C23.0661 3.02214 24.1327 1.11103 26.8883 1.11103Z" fill="#EF8939"/>
<path d="M2.31096 24.8442L0.266519 24.4887C0.488741 23.5998 0.888741 22.9776 1.46652 22.5776C2.0443 22.1331 2.93319 21.9109 4.0443 21.9109C5.06652 21.9109 5.82208 22.0442 6.35541 22.2664C6.8443 22.5331 7.2443 22.8442 7.42208 23.2442C7.6443 23.5998 7.73319 24.3109 7.73319 25.3331L7.68874 28.0442C7.68874 28.7998 7.73319 29.3776 7.82208 29.7331C7.86652 30.0442 8.0443 30.4887 8.22208 30.8887H5.95541L5.73319 30.1776L5.68874 29.8664C5.28874 30.2664 4.8443 30.5776 4.39985 30.7553C3.95541 30.9331 3.46652 31.0664 2.97763 31.0664C2.0443 31.0664 1.33319 30.7998 0.844297 30.3109C0.266519 29.9109 -0.000147489 29.2887 -0.000147489 28.5331C-0.0138818 28.0739 0.10445 27.6205 0.340797 27.2266C0.577143 26.8327 0.921573 26.5148 1.33319 26.3109C1.77763 26.1331 2.39985 25.9553 3.15541 25.822C4.26652 25.5998 4.97763 25.422 5.42207 25.2442V24.9776C5.42207 24.5331 5.33319 24.222 5.11096 24.0442C4.88874 23.8664 4.48874 23.7776 3.86652 23.7776C3.46652 23.7776 3.11096 23.822 2.93319 23.9998C2.62207 24.1331 2.4443 24.4887 2.31096 24.8442ZM5.42207 26.7553L3.99985 27.1109C3.37763 27.2442 2.97763 27.3776 2.75541 27.5109C2.4443 27.6887 2.26652 27.9998 2.26652 28.3109C2.26652 28.622 2.39985 28.8887 2.62207 29.1553C2.88874 29.3776 3.15541 29.5109 3.55541 29.5109C3.99985 29.5109 4.35541 29.3776 4.75541 29.0664C5.02207 28.8887 5.19985 28.622 5.33319 28.3109L5.42207 27.1553V26.7553ZM14.2665 28.1776L16.5332 28.5331C16.2665 29.3776 15.7776 30.0442 15.1554 30.4887C14.4468 30.9607 13.606 31.1942 12.7554 31.1553C11.2443 31.1553 10.0887 30.6664 9.37763 29.6887C8.79985 28.8887 8.48874 27.8664 8.48874 26.6664C8.48874 25.1998 8.88874 24.0442 9.59985 23.2442C10.3999 22.4442 11.3332 21.9998 12.4887 21.9998C13.7776 21.9998 14.7999 22.4442 15.5999 23.2887C16.3554 24.1331 16.711 25.4664 16.6665 27.2442H10.8887C10.8887 27.9553 11.111 28.4887 11.4221 28.8887C11.7776 29.2442 12.2665 29.422 12.7999 29.422C13.111 29.422 13.4665 29.3331 13.6887 29.1553C13.9554 28.8887 14.1332 28.5776 14.2665 28.1776ZM14.3554 25.822C14.3554 25.1553 14.1776 24.622 13.8221 24.3109C13.511 23.9553 13.111 23.7776 12.6221 23.7776C12.1332 23.7776 11.7332 23.9553 11.3776 24.3109C11.0665 24.6664 10.8887 25.1998 10.8887 25.822H14.3554ZM19.9554 30.9331H17.6443V22.1331H19.7776V23.3776C20.1332 22.7553 20.4887 22.3998 20.7554 22.222C21.0665 22.0442 21.4221 21.9109 21.7776 21.9109C22.311 21.9109 22.7999 22.0887 23.2887 22.3553L22.6221 24.3998C22.2221 24.1331 21.8665 23.9998 21.511 23.9998C21.1999 23.9998 20.8887 24.1331 20.711 24.3109C20.4887 24.4887 20.311 24.7998 20.1776 25.2887C20.0443 25.7331 19.9554 26.7109 19.9554 28.222V30.9331ZM22.9332 26.4442C22.9332 25.6442 23.111 24.9331 23.4665 24.1776C23.8665 23.4664 24.3999 22.9331 25.111 22.5331C25.8221 22.1331 26.5776 21.9553 27.4221 21.9553C28.7554 21.9553 29.8665 22.3998 30.711 23.2887C31.5554 24.1331 31.9554 25.1998 31.9554 26.5331C31.9798 27.1391 31.8799 27.7437 31.6619 28.3096C31.4438 28.8756 31.1123 29.3909 30.6876 29.8239C30.263 30.2569 29.7542 30.5984 29.1926 30.8274C28.631 31.0563 28.0284 31.168 27.4221 31.1553C26.6221 31.1553 25.8221 30.9776 25.111 30.5776C24.3554 30.222 23.7776 29.7331 23.4665 29.022C23.111 28.3109 22.9332 27.422 22.9332 26.4442ZM25.3332 26.5331C25.3332 27.422 25.511 28.0442 25.9554 28.5331C26.3554 29.022 26.8443 29.2442 27.511 29.2442C28.1332 29.2442 28.6221 29.022 29.0221 28.5331C29.4221 28.0887 29.6443 27.422 29.6443 26.5331C29.6443 25.6887 29.4221 25.022 29.0221 24.5776C28.8363 24.3571 28.6051 24.1795 28.3443 24.0567C28.0835 23.934 27.7992 23.8691 27.511 23.8664C26.8887 23.8664 26.3554 24.1331 25.9554 24.5776C25.511 25.022 25.3332 25.6887 25.3332 26.5331Z" fill="black"/>
</g>
<defs>
<clipPath id="clip0_1709_8617">
<rect width="32" height="31.1556" fill="white"/>
</clipPath>
</defs>
</svg>
