<svg width="72" height="22" viewBox="0 0 72 22" fill="none" xmlns="http://www.w3.org/2000/svg">
<path fill-rule="evenodd" clip-rule="evenodd" d="M46.6071 21.0064L53.807 12.2581C54.3102 11.6387 54.6199 11.0194 56.207 11.0194C58.4134 11.0194 61.2779 10.5162 63.6779 9.97423C67.0069 9.23875 69.794 7.84521 72.0004 6.76135C71.3811 7.96134 67.1617 9.20004 65.0327 10.3226C66.8908 9.8581 67.2392 9.74197 69.0585 9.12262C67.7037 10.3613 66.1166 10.2452 63.9101 11.3291C65.5359 10.9807 65.6134 10.9807 67.2004 10.4774C66.2327 11.5226 64.3747 11.3678 62.9424 12.1807C64.4134 11.9484 64.2972 12.0258 65.6521 11.6387C64.6843 12.2581 63.0585 13.2645 60.0392 14.5032L54.3102 15.8193C53.8844 15.8968 52.8393 16.0129 51.9489 16.8645C50.8264 17.9871 49.278 19.3032 48.8135 19.6129C48.2716 20.0387 47.6522 20.7741 46.6071 21.0064ZM46.1425 20.658L52.6844 12.2194C53.1876 11.5613 53.3038 10.7097 52.0264 10.2452C50.2844 9.58713 48.3877 9.4323 46.6845 8.73553C43.1619 7.3807 41.1103 4.12911 39.02 0.993652C38.3232 2.34848 40.9555 4.05169 41.5748 5.79361C40.5684 4.78717 39.6394 3.74202 38.8265 2.58074C38.7103 4.16782 41.0329 5.17426 41.7297 6.91619C40.7619 6.06458 39.8329 5.21297 39.0587 4.28395C38.7878 5.60007 41.5361 6.83877 41.8845 8.03876C40.9555 7.41941 40.0652 6.72264 39.4071 5.94845C39.5619 6.83877 40.491 8.07747 42.3877 9.58713C44.2071 11.2903 47.1877 13.4194 47.2651 16.3226C47.2651 17.2129 46.878 17.9096 46.4522 18.6838C46.1813 19.1871 45.9877 19.8838 46.1425 20.658Z" fill="#949599"/>
<path fill-rule="evenodd" clip-rule="evenodd" d="M0 20.7355H2.39998L4.29674 16.7485H8.94186L9.71605 20.7355H13.587L10.0644 6.49048H7.54833L0 20.7355ZM4.9548 15.3936L7.50962 10.5163L8.63219 15.3936H4.9548ZM17.1095 10.5163H20.3611L20.1289 12.7227C21.0966 11.0195 22.1031 10.2453 23.1869 10.5163L22.7611 13.7678C21.2902 13.1485 20.2837 13.613 19.8579 15.2001L19.2386 20.7355H15.7934L17.1095 10.5163ZM25.7417 10.5163H28.8772L27.4062 20.7355H24.2708L25.7417 10.5163ZM32.4384 7.4195H35.4578L34.4126 14.8904H35.1868L38.9416 10.5163H41.961L37.7803 14.8904L40.7223 20.7355H36.6965L34.9933 16.284H34.1804L33.561 20.7355H30.503L32.4384 7.4195Z" fill="#0D3F84"/>
</svg>
