<svg width="72" height="24" viewBox="0 0 72 24" fill="none" xmlns="http://www.w3.org/2000/svg">
<path d="M5.05979 23.0293C4.59775 22.9573 4.15036 22.8995 3.71762 22.856C3.28489 22.8125 2.85968 22.7911 2.44201 22.792C2.08872 22.7941 1.73581 22.8155 1.38485 22.856C0.996472 22.9004 0.572522 22.9581 0.112998 23.0293L0 22.684C0.502212 22.453 0.829069 22.2153 0.98057 21.9708C1.16137 21.6545 1.28106 21.0928 1.33965 20.2859C1.37397 19.7109 1.37397 18.4294 1.33965 16.4415C1.31705 15.1173 1.29027 13.9978 1.2593 13.0829C1.22833 12.1681 1.19443 11.4445 1.1576 10.9121C1.13416 10.4099 1.04837 10.0282 0.900215 9.76709C0.766292 9.52268 0.473335 9.28539 0.0213438 9.05521L0.101699 8.666C0.680079 8.85349 1.41624 8.94723 2.31018 8.94723C3.08805 8.94105 3.86221 8.83943 4.61533 8.64465L4.73084 9.05521C4.22863 9.29962 3.91642 9.56579 3.79421 9.85373C3.69795 10.0697 3.6561 10.4727 3.66866 11.0628C3.66866 11.2511 3.67619 11.4884 3.68122 11.7759C3.68624 12.0635 3.68122 12.3736 3.68122 12.7477C3.68122 13.1219 3.67117 13.4533 3.68122 13.7421C3.69126 14.0309 3.69 14.2443 3.69377 14.4326C3.69879 14.7063 3.72097 15.3542 3.76031 16.3762C3.79965 17.3982 3.84946 18.8165 3.90972 20.6312C3.93316 21.1937 4.03067 21.6185 4.20226 21.9056C4.37385 22.1927 4.69861 22.4521 5.17655 22.684L5.05979 23.0293ZM12.8717 21.431C11.5927 22.6424 9.89234 23.3084 8.13081 23.2879C7.40826 23.2944 6.68789 23.2075 5.98762 23.0293V22.684C6.55763 22.4103 6.8033 20.812 6.72462 17.8891L6.64552 15.8363C6.63129 15.0738 6.58944 13.8141 6.51997 12.0572C6.49611 11.5813 6.47602 11.2034 6.45594 10.9272C6.43585 10.651 6.41953 10.4627 6.4032 10.376C6.26258 9.72817 5.90434 9.39713 5.32847 9.3829L5.32219 9.01503C5.89179 8.94154 6.45562 8.82869 7.00962 8.67729C7.56792 8.52579 8.12621 8.34918 8.6845 8.14746L8.85902 8.23409C8.85902 8.27678 8.85902 8.34584 8.85149 8.43874C8.84395 8.53165 8.84395 8.62958 8.85149 8.73128C8.85902 8.83298 8.85149 8.90329 8.84521 8.98992C8.83893 9.07655 8.83642 9.12677 8.83642 9.14059V10.2706L8.91678 14.916C9.68851 13.7492 10.636 13.1658 11.7593 13.1658C12.7386 13.1658 13.5082 13.5475 14.0682 14.3109C14.5704 14.9738 14.8303 15.8234 14.8479 16.8596C14.8772 18.655 14.2185 20.1788 12.8717 21.431ZM10.7235 14.6511C9.46795 14.5674 8.86153 15.7267 8.90422 18.1289C8.91175 18.5056 8.91677 18.8345 8.9218 19.1221C8.92682 19.4096 8.93561 19.6808 8.94691 19.9319C8.95821 20.183 8.97327 20.4341 8.99211 20.6852C9.01094 20.9363 9.02977 21.2012 9.04986 21.4737C9.16119 22.1366 9.46209 22.468 9.95259 22.468C10.7586 22.468 11.4103 21.8558 11.9074 20.6312C12.2879 19.7299 12.4769 18.7594 12.4624 17.7811C12.4264 15.7648 11.8468 14.7206 10.7235 14.6486V14.6511ZM22.6962 21.3017C21.7805 22.4969 20.6112 23.0945 19.1883 23.0945C18.0081 23.0945 17.0873 22.7271 16.4261 21.9922C15.8101 21.3017 15.4911 20.3441 15.4694 19.1195C15.4191 17.6714 15.8413 16.2463 16.6722 15.0592C17.5996 13.7634 18.8049 13.1156 20.2881 13.1156C21.4541 13.1156 22.3547 13.5546 22.99 14.4326C23.565 15.2102 23.863 16.2038 23.8839 17.4133C23.9082 18.9115 23.5123 20.2077 22.6962 21.3017ZM21.349 15.8363C20.9481 14.4134 20.3166 13.7019 19.4544 13.7019C18.1286 13.7019 17.4883 14.9834 17.5335 17.5464C17.5512 18.5654 17.7144 19.5767 18.0181 20.5496C18.445 21.8888 19.0832 22.5584 19.9328 22.5584C21.1992 22.5584 21.8115 21.3565 21.7696 18.9526C21.7571 17.9005 21.6158 16.854 21.349 15.8363ZM39.553 23.0293C39.2182 22.9715 38.8787 22.9297 38.5347 22.9037C38.1895 22.8748 37.8279 22.8598 37.4537 22.8598C37.2378 22.8598 36.9448 22.8706 36.5748 22.8924C36.2049 22.9142 35.7701 22.956 35.2704 23.018L35.1774 22.6074C35.7073 22.4634 36.0488 22.2328 36.202 21.9156C36.3124 21.657 36.3627 21.2389 36.3526 20.6601L36.3376 19.8176V19.6017C36.3212 19.4573 36.3112 19.3066 36.3087 19.1472C36.3062 18.9877 36.3024 18.7881 36.2986 18.5859L36.2836 17.7221C36.266 16.7428 36.2112 16.0803 36.1191 15.7346C35.9031 14.9152 35.4712 14.505 34.8234 14.5042C33.9027 14.5042 33.3657 15.0801 33.2125 16.2318C33.1791 16.4424 33.1611 16.6552 33.1585 16.8684C33.1485 17.1496 33.1406 17.5133 33.1347 17.9594C33.1234 18.1616 33.1196 18.37 33.1234 18.5872C33.1272 18.8044 33.1309 19.0116 33.1347 19.215C33.1539 20.3232 33.1866 20.971 33.2326 21.1585C33.39 21.8641 33.7796 22.3245 34.4015 22.5396L34.3011 22.9715C33.9871 22.9095 33.669 22.8701 33.3494 22.8535C32.9891 22.8309 32.5785 22.8208 32.1177 22.8208C31.4077 22.8181 30.6994 22.8905 30.0047 23.0368L29.9331 22.6476C30.5483 22.4752 30.8982 21.9064 30.9827 20.9413C30.9953 20.8271 31.0016 20.5847 31.0028 20.2181C31.0041 19.8515 31.0028 19.3393 30.9865 18.6952C30.9773 18.1628 30.9584 17.6949 30.93 17.2915C30.9015 16.888 30.8706 16.5424 30.8371 16.2544C30.6563 15.0165 30.2708 14.3975 29.6807 14.3975C29.1484 14.3975 28.7207 14.6486 28.3976 15.1508C28.0059 15.7694 27.8259 16.986 27.8577 18.8006C27.8761 19.9088 27.91 20.6203 27.9594 20.935C28.105 21.901 28.4532 22.4626 29.004 22.62L28.9462 23.0305C28.2636 22.88 27.5673 22.8005 26.8683 22.7932C26.1372 22.7843 25.4074 22.8572 24.6925 23.0104L24.577 22.6212C25.2056 22.3333 25.5768 21.7285 25.6907 20.807C25.7032 20.7358 25.6969 19.9725 25.6718 18.5169C25.6559 17.5384 25.6425 16.7683 25.6316 16.2067C25.6216 15.6304 25.6078 15.2638 25.5902 15.1044C25.5651 14.4854 25.4797 14.0824 25.3316 13.8953C25.2721 13.7948 25.0332 13.7011 24.6147 13.614L24.4891 13.5714L24.4828 13.2047C25.9619 13.0172 27.0655 12.7364 27.7937 12.3623L28.0146 12.6423C27.9895 12.8444 27.972 13.0717 27.9619 13.3228C27.9519 13.5739 27.9494 13.8526 27.9619 14.1539V14.5218C27.961 14.6016 27.9695 14.6812 27.987 14.7591C28.8006 13.5036 29.7762 12.8758 30.9137 12.8758C31.9064 12.8758 32.6375 13.5094 33.1071 14.7767C33.9558 13.5697 34.9803 12.9662 36.1806 12.9662C37.7065 12.9662 38.4874 13.9886 38.5234 16.0334C38.5234 16.149 38.5234 16.2846 38.5297 16.444C38.536 16.6035 38.5297 16.7466 38.5172 16.9186L38.4795 18.4742C38.4682 18.6475 38.4644 18.8345 38.4669 19.0354C38.4694 19.2363 38.4745 19.461 38.4795 19.7059C38.4996 20.8861 38.5695 21.5913 38.6892 21.8214C38.8675 22.1395 39.1889 22.399 39.6534 22.5999L39.553 23.0293Z" fill="#F17012"/>
<path d="M58.891 23.0106C58.1177 22.841 57.3286 22.7538 56.5369 22.7507C56.1326 22.7513 55.7286 22.7731 55.3266 22.816C54.8907 22.8621 54.4581 22.9342 54.0309 23.032L53.9442 22.6641C54.6649 22.29 55.0248 21.7877 55.024 21.1575C55.024 20.6385 54.8009 19.6374 54.3548 18.1542C53.6929 17.9361 53.0001 17.8267 52.3032 17.8303C51.3666 17.8303 50.6752 17.9889 50.2291 18.3062C49.8605 19.1593 49.6622 20.0763 49.6453 21.0056C49.6453 21.8426 50.0638 22.3758 50.9008 22.6051L50.7928 23.037C50.2383 22.9237 49.6739 22.8656 49.1079 22.8637C48.6065 22.8584 48.1059 22.9077 47.6151 23.0106L47.5498 22.708C48.0261 22.2318 48.4513 21.5044 48.8254 20.5259C49.0983 19.8346 49.3431 19.1649 49.5599 18.5171C49.7767 17.8692 49.9709 17.2415 50.1425 16.6338L51.6328 11.5363C51.6905 11.392 51.7985 11.0253 51.9567 10.434C51.9212 10.303 51.8706 10.1766 51.806 10.0573C51.7332 9.92047 51.6403 9.75851 51.5248 9.57144L51.6114 9.33414C52.6334 9.03114 53.411 8.61263 53.9442 8.07861L54.1602 8.18659C54.2322 8.56074 54.3159 8.97129 54.4113 9.41826C54.5067 9.86523 54.6256 10.3474 54.7678 10.8646C54.839 11.0957 54.947 11.4844 55.0918 12.031C55.2366 12.5776 55.4312 13.2832 55.6756 14.1478C56.5536 17.4172 57.2651 19.7073 57.81 21.0181C58.1557 21.8677 58.5445 22.4147 58.9764 22.6591L58.891 23.0106ZM53.1018 13.8076C52.9436 13.2753 52.7996 12.8107 52.6699 12.414C52.5443 12.0185 52.4187 11.677 52.3032 11.3882L50.4199 17.5403C51.0576 17.3138 51.7309 17.2041 52.4075 17.2164C52.6083 17.2164 52.8532 17.2306 53.1419 17.259C53.4295 17.2879 53.7534 17.3319 54.1137 17.3846L53.1018 13.8076ZM63.5566 23.027L63.362 23.0696C63.2904 23.0558 63.1648 23.037 62.9853 23.0157C62.8058 22.9943 62.5647 22.9617 62.2621 22.919C61.7147 22.8353 61.4192 22.7934 61.3757 22.7934C60.7058 22.78 60.0373 22.8598 59.3895 23.0307L59.2639 22.5762C59.52 22.4777 59.7461 22.3146 59.9204 22.1027C60.0947 21.8908 60.2111 21.6374 60.2583 21.3671C60.301 21.1797 60.3227 20.6251 60.3236 19.7036V19.244C60.3236 19.057 60.3236 18.841 60.3449 18.5962C60.3663 18.3514 60.3663 18.1354 60.3663 17.9483V17.4938C60.3663 18.2287 60.388 17.7537 60.4315 16.0688C60.4742 14.4843 60.121 13.6419 59.3719 13.5414V13.1962C59.9533 13.1421 60.5307 13.0516 61.1007 12.925C61.6387 12.806 62.1661 12.6435 62.6777 12.4391L62.8936 12.699C62.8648 12.9287 62.8397 13.3267 62.8183 13.8754C62.797 14.4241 62.7706 15.1535 62.7417 16.0475C62.7275 16.2927 62.7204 16.5806 62.7204 16.9113V21.0018C62.8208 21.8388 63.1594 22.3645 63.7361 22.5787L63.5566 23.027ZM62.3902 11.2425C62.0875 11.4566 61.7236 11.5667 61.3531 11.5564C61.0183 11.565 60.6907 11.4581 60.4253 11.2538C60.3026 11.1652 60.2031 11.0483 60.1353 10.913C60.0676 10.7777 60.0335 10.628 60.0361 10.4767C60.037 10.305 60.0834 10.1366 60.1705 9.98864C60.2576 9.84068 60.3823 9.7184 60.532 9.63421C60.8197 9.44267 61.1595 9.34446 61.505 9.35298C61.8384 9.34456 62.1652 9.44701 62.4341 9.64426C62.5567 9.73058 62.6561 9.84568 62.7238 9.97944C62.7914 10.1132 62.8252 10.2615 62.8221 10.4114C62.8254 10.575 62.7875 10.7368 62.7121 10.882C62.6366 11.0272 62.526 11.1512 62.3902 11.2425ZM71.6459 15.4335C71.5285 15.5579 71.386 15.6559 71.2277 15.7209C71.0694 15.7858 70.8991 15.8163 70.7281 15.8102C70.3247 15.8102 70.0225 15.5151 69.8217 14.925C69.7062 14.6237 69.5187 14.473 69.2592 14.473C68.4381 14.473 67.9358 14.9911 67.7525 16.0274C67.5749 17.0901 67.4938 18.1667 67.5102 19.244C67.5102 20.3104 67.5316 20.9583 67.5743 21.1876C67.7048 21.9225 68.0505 22.4122 68.6113 22.6566L68.4167 23.0244C67.7446 22.8624 67.0565 22.7752 66.3652 22.7645C65.6732 22.7717 64.9843 22.8589 64.3124 23.0244V22.5925C64.7594 22.405 65.0619 22.0376 65.2201 21.4902C65.3038 21.1738 65.3457 20.6716 65.3457 19.9836V16.4379C65.3457 16.2797 65.3457 16.0613 65.3356 15.7687C65.3256 15.4762 65.3168 15.1347 65.303 14.7317C65.2879 14.3969 65.2122 14.1591 65.0757 14.0185C64.9389 13.8754 64.6828 13.7524 64.3086 13.6519V13.2627C64.8683 13.2081 65.424 13.1179 65.9722 12.9928C66.5022 12.8715 67.0219 12.7091 67.5265 12.5069L67.7638 12.7881C67.7638 12.8459 67.7638 12.9312 67.7525 13.0467C67.7412 13.1623 67.735 13.3204 67.7212 13.5226C67.7073 13.7247 67.6998 13.8679 67.6998 13.9972V14.7317C68.4046 13.6075 69.2835 13.0459 70.3364 13.0467C70.766 13.0316 71.1869 13.1695 71.5242 13.436C71.6801 13.5633 71.8043 13.7253 71.8866 13.909C71.969 14.0928 72.0074 14.2932 71.9987 14.4944C72.0103 14.8418 71.8834 15.1796 71.6459 15.4335Z" fill="#005337"/>
<path d="M36.8303 7.74196C36.7298 7.7608 43.1343 10.1965 43.7219 17.0756V12.0221C43.6717 11.9794 41.1531 7.42934 36.8303 7.74196Z" fill="#F17012"/>
<path d="M50.6123 7.74196C50.714 7.76079 44.3095 10.1965 43.7207 17.0756V12.0221C43.7722 11.9794 46.2908 7.42933 50.6123 7.74196ZM49.3744 0.727315C49.6129 0.791347 44.8193 1.62502 43.7245 4.85801V3.10027C43.7734 3.01866 45.614 0.492531 49.3744 0.727315Z" fill="#005337"/>
<path d="M38.0682 0.727315C37.8296 0.791347 42.6232 1.62502 43.7181 4.85801V3.10027C43.6703 3.01866 41.8272 0.492531 38.0682 0.727315Z" fill="#F17012"/>
<path d="M50.031 4.61844C50.2972 4.69503 44.9474 5.66179 43.7207 9.41205V7.05166C43.8626 6.99014 46.1338 4.44392 50.031 4.61844Z" fill="#005337"/>
<path d="M37.411 4.61844C37.1448 4.69503 42.4959 5.66179 43.7213 9.41205V7.05166C43.5794 6.99014 41.3094 4.44392 37.411 4.61844Z" fill="#F17012"/>
</svg>
