<svg width="72" height="16" viewBox="0 0 72 16" fill="none" xmlns="http://www.w3.org/2000/svg">
<g clip-path="url(#clip0_1717_8844)">
<path d="M38.739 13.0738C38.7395 12.9957 38.7701 12.9209 38.8243 12.8647C38.8786 12.8086 38.9523 12.7755 39.0303 12.7722C39.157 12.7722 39.2357 12.8693 39.2357 12.9951C39.2362 13.0728 39.2063 13.1476 39.1522 13.2034C39.0982 13.2593 39.0244 13.2917 38.9468 13.2937C38.9182 13.2944 38.8899 13.2891 38.8635 13.2782C38.8372 13.2672 38.8134 13.2508 38.7938 13.2301C38.7742 13.2093 38.7592 13.1847 38.7498 13.1578C38.7403 13.1308 38.7366 13.1022 38.739 13.0738ZM39.697 13.0738C39.6977 12.9957 39.7283 12.921 39.7825 12.8649C39.8367 12.8087 39.9104 12.7756 39.9883 12.7722C40.1151 12.7722 40.1937 12.8693 40.1937 12.9951C40.1944 13.0728 40.1645 13.1476 40.1106 13.2034C40.0566 13.2593 39.9829 13.2917 39.9053 13.2937C39.8767 13.2945 39.8483 13.2893 39.8219 13.2783C39.7955 13.2674 39.7717 13.251 39.752 13.2302C39.7324 13.2095 39.7173 13.1848 39.7078 13.1579C39.6984 13.1309 39.6947 13.1023 39.697 13.0738ZM40.655 13.0738C40.6557 12.9957 40.6863 12.921 40.7405 12.8649C40.7947 12.8087 40.8684 12.7756 40.9463 12.7722C41.0731 12.7722 41.1522 12.8693 41.1522 12.9951C41.1528 13.0728 41.1228 13.1476 41.0688 13.2034C41.0148 13.2593 40.941 13.2917 40.8633 13.2937C40.8348 13.2944 40.8064 13.2891 40.78 13.2782C40.7536 13.2672 40.7299 13.2508 40.7102 13.2301C40.6906 13.2093 40.6755 13.1847 40.666 13.1578C40.6565 13.1309 40.6528 13.1022 40.655 13.0738ZM41.2921 13.9031L41.4106 13.6288C41.4499 13.6501 41.494 13.6612 41.5387 13.6608C41.6844 13.6608 41.8301 13.5355 41.9272 13.3403L41.9796 13.2364L41.68 11.5238H42.0559L42.1642 12.3979C42.1841 12.5537 42.1996 12.7538 42.2079 12.9174H42.2219C42.2982 12.7552 42.3856 12.561 42.4647 12.3979L42.8944 11.5238H43.2635L42.2894 13.3447C42.0772 13.7215 41.8616 13.9638 41.5169 13.9638C41.4385 13.9599 41.3618 13.9392 41.2921 13.9031ZM43.247 12.5892C43.247 11.9288 43.7248 11.4792 44.1997 11.4792C44.5881 11.4792 44.8445 11.7525 44.8445 12.1837C44.8445 12.8441 44.3672 13.2937 43.8923 13.2937C43.5033 13.2937 43.247 13.0204 43.247 12.5892ZM44.4609 12.1963C44.4609 11.9356 44.3555 11.7865 44.1564 11.7865C43.8821 11.7865 43.6272 12.1342 43.6272 12.5765C43.6272 12.8373 43.7325 12.9864 43.9311 12.9864C44.2079 12.9864 44.4628 12.6406 44.4628 12.1963H44.4609ZM46.4532 13.2515H46.1448L46.1613 13.0034H46.1473C45.9739 13.1612 45.7753 13.2947 45.567 13.2947C45.2757 13.2947 45.1572 13.134 45.1572 12.8577C45.1577 12.776 45.1671 12.6946 45.1854 12.6149L45.4034 11.5238H45.7811L45.5709 12.5678C45.5555 12.6277 45.5462 12.6891 45.5432 12.7509C45.5432 12.8965 45.6136 12.9723 45.7588 12.9723C45.8753 12.9723 46.0108 12.8888 46.1856 12.7042L46.4197 11.5238H46.7974L46.4532 13.2515ZM47.3214 11.5238H47.6297L47.5986 11.8579H47.6127C47.7492 11.6438 47.9395 11.4816 48.1468 11.4816C48.2064 11.4788 48.2657 11.49 48.3202 11.5141L48.1934 11.8453C48.1428 11.8234 48.0878 11.8137 48.0327 11.8171C47.8705 11.8171 47.7045 11.9453 47.5622 12.2085L47.3578 13.2539H46.9805L47.3214 11.5238ZM49.3175 13.4205L49.2204 13.9361H48.8431L49.3287 11.5214H49.637L49.6288 11.7341H49.6385C49.8046 11.5884 50.0032 11.4792 50.2008 11.4792C50.5048 11.4792 50.6936 11.7045 50.6936 12.1104C50.6936 12.7713 50.243 13.2937 49.7652 13.2937C49.6873 13.2927 49.6111 13.2712 49.5441 13.2314C49.4771 13.1916 49.4218 13.1349 49.3836 13.067H49.3763L49.3175 13.4205ZM49.6011 12.0414L49.4554 12.7781C49.5302 12.9237 49.6327 12.9825 49.7429 12.9825C50.0342 12.9825 50.3032 12.6062 50.3032 12.1609C50.3032 11.9089 50.2061 11.7904 50.0459 11.7904C49.9094 11.7904 49.7332 11.872 49.6011 12.0414ZM51.894 11.4792C52.2955 11.4792 52.4446 11.7593 52.4446 12.1172C52.4415 12.243 52.4159 12.3671 52.3688 12.4838H51.3161C51.2797 12.8485 51.4812 13.0034 51.7444 13.0034C51.8727 12.9941 51.9953 12.9471 52.0969 12.8684L52.2348 13.1112C52.0616 13.2315 51.8554 13.2955 51.6444 13.2942C51.2316 13.2942 50.9515 13.0252 50.9515 12.5615C50.9515 11.9157 51.439 11.4792 51.894 11.4792ZM52.1134 12.2439C52.1248 12.1941 52.1305 12.1431 52.1304 12.0919C52.1304 11.9244 52.0586 11.7734 51.8488 11.7734C51.639 11.7734 51.4332 11.9482 51.3501 12.2439H52.1134ZM53.7187 12.1735C53.7292 12.1356 53.7342 12.0963 53.7338 12.057C53.7338 11.8511 53.6367 11.7778 53.4623 11.7778C53.3128 11.7778 53.1763 11.8312 53.0098 11.9235L52.8918 11.6574C53.0917 11.5494 53.3139 11.4891 53.541 11.4811C53.8974 11.4811 54.1072 11.6472 54.1072 12.022C54.1063 12.1037 54.0969 12.1851 54.079 12.2648L53.8848 13.2525H53.5784L53.5833 13.0636H53.5721C53.4371 13.1903 53.2322 13.2947 53.0467 13.2947C52.8112 13.2947 52.6141 13.1354 52.6141 12.8679C52.6126 12.3682 53.0831 12.1905 53.7187 12.1735ZM52.9816 12.7907C52.9816 12.93 53.0787 12.9995 53.2142 12.9995C53.338 12.9995 53.457 12.93 53.593 12.8106L53.675 12.4134C53.2225 12.4231 52.9816 12.561 52.9816 12.7907ZM54.4247 12.5892C54.4247 11.9696 54.8783 11.4792 55.4163 11.4792C55.5034 11.4782 55.5897 11.4968 55.6686 11.5336C55.7476 11.5705 55.8174 11.6245 55.8727 11.6918L55.6586 11.9186C55.5784 11.8297 55.508 11.7865 55.3925 11.7865C55.0827 11.7865 54.8098 12.1468 54.8098 12.5765C54.8098 12.8373 54.9254 12.9864 55.1589 12.9864C55.2798 12.9812 55.3952 12.9346 55.4857 12.8543L55.6479 13.0922C55.487 13.2218 55.2868 13.2929 55.0803 13.2937C54.7005 13.2937 54.4247 13.0373 54.4247 12.5892ZM56.8783 11.4792C57.2799 11.4792 57.4294 11.7593 57.4294 12.1172C57.4263 12.243 57.4004 12.3672 57.3532 12.4838H56.3005C56.2641 12.8485 56.4656 13.0034 56.7288 13.0034C56.857 12.9941 56.9796 12.9471 57.0813 12.8684L57.2192 13.1112C57.0459 13.2315 56.8397 13.2955 56.6287 13.2942C56.216 13.2942 55.9358 13.0252 55.9358 12.5615C55.9368 11.9157 56.4224 11.4792 56.8783 11.4792ZM57.0983 12.2439C57.1092 12.194 57.1147 12.1431 57.1148 12.0919C57.1148 11.9244 57.0429 11.7734 56.8332 11.7734C56.6234 11.7734 56.4175 11.9482 56.3345 12.2439H57.0983ZM57.4527 13.656C57.6994 13.5754 57.8412 13.4234 57.8796 13.2515L57.9189 12.9441L58.016 13.2034C57.9776 13.2359 57.9297 13.2551 57.8796 13.2583C57.7441 13.2583 57.647 13.1782 57.647 13.0471C57.6464 13.0107 57.6532 12.9746 57.667 12.9409C57.6807 12.9072 57.701 12.8767 57.7268 12.851C57.7526 12.8254 57.7833 12.8052 57.817 12.7917C57.8508 12.7781 57.8869 12.7715 57.9233 12.7722C58.0796 12.7722 58.166 12.8825 58.166 13.0597C58.166 13.4559 57.9038 13.7725 57.4969 13.8711L57.4527 13.656ZM59.3358 12.5892C59.3358 11.9288 59.8136 11.4792 60.2885 11.4792C60.6769 11.4792 60.9333 11.7525 60.9333 12.1837C60.9333 12.8441 60.456 13.2937 59.9811 13.2937C59.5941 13.2937 59.3358 13.0204 59.3358 12.5892ZM60.5497 12.1963C60.5497 11.9356 60.4438 11.7865 60.2452 11.7865C59.9709 11.7865 59.7155 12.1342 59.7155 12.5765C59.7155 12.8373 59.8213 12.9864 60.0199 12.9864C60.2987 12.9864 60.5536 12.6406 60.5536 12.1963H60.5497ZM62.5439 13.2515H62.2351L62.2521 13.0034H62.238C62.0647 13.1612 61.8661 13.2947 61.6553 13.2947C61.364 13.2947 61.245 13.134 61.245 12.8577C61.2455 12.7759 61.2551 12.6945 61.2737 12.6149L61.4917 11.5229H61.8695L61.6592 12.5668C61.6438 12.6268 61.6346 12.6881 61.6315 12.7499C61.6315 12.8956 61.7019 12.9713 61.8466 12.9713C61.9637 12.9713 62.0991 12.8878 62.2735 12.7033L62.506 11.5229H62.8838L62.5439 13.2515ZM63.4145 11.5238H63.7229L63.6918 11.8579H63.7059C63.8428 11.6438 64.0327 11.4816 64.24 11.4816C64.2995 11.4788 64.3589 11.49 64.4134 11.5141L64.2866 11.8453C64.236 11.8234 64.1809 11.8137 64.1259 11.8171C63.9637 11.8171 63.7977 11.9453 63.6554 12.2085L63.451 13.2539H63.0737L63.4145 11.5238ZM64.9198 13.6035C64.9198 13.3908 65.114 13.25 65.3083 13.1626V13.1515C65.2745 13.1233 65.2475 13.0879 65.2293 13.0479C65.2112 13.0079 65.2023 12.9643 65.2034 12.9203C65.2034 12.7921 65.2932 12.6737 65.4272 12.5921V12.578C65.3699 12.5308 65.3238 12.4715 65.2921 12.4043C65.2605 12.3371 65.2441 12.2638 65.2442 12.1895C65.2442 11.7826 65.568 11.4796 65.9725 11.4796C66.0499 11.478 66.1267 11.4924 66.1983 11.5219H66.814L66.7586 11.8079H66.4586C66.4975 11.8715 66.518 11.9446 66.5178 12.0191C66.5178 12.4221 66.2109 12.7038 65.7827 12.7038C65.7248 12.7047 65.6673 12.6962 65.6122 12.6785C65.5849 12.6965 65.5619 12.7204 65.5451 12.7485C65.5283 12.7766 65.5181 12.8081 65.5151 12.8407C65.5151 12.9431 65.5719 12.9834 65.8225 13.0116C66.2988 13.0709 66.445 13.1893 66.445 13.4127C66.445 13.8162 66.008 14.0167 65.5758 14.0167C65.3029 14.0163 64.9198 13.9332 64.9198 13.6035ZM66.0745 13.5064C66.0745 13.3768 65.9337 13.3263 65.7059 13.2996C65.6506 13.2923 65.5773 13.2782 65.4986 13.2597C65.385 13.3185 65.2466 13.4175 65.2466 13.5375C65.2466 13.7006 65.3923 13.774 65.6156 13.774C65.8788 13.7725 66.0745 13.6603 66.0745 13.5049V13.5064ZM66.1944 12.0259C66.1944 11.8526 66.1056 11.7453 65.9618 11.7453C65.7467 11.7453 65.5928 11.9652 65.5928 12.1852C65.5928 12.3585 65.6817 12.4653 65.8254 12.4653C66.041 12.4639 66.1944 12.2439 66.1944 12.0245V12.0259ZM66.8193 12.5892C66.8193 11.9288 67.2971 11.4792 67.772 11.4792C68.1605 11.4792 68.4169 11.7525 68.4169 12.1837C68.4169 12.8441 67.9395 13.2937 67.4647 13.2937C67.0757 13.2937 66.8193 13.0204 66.8193 12.5892ZM68.0333 12.1963C68.0333 11.9356 67.9279 11.7865 67.7288 11.7865C67.4545 11.7865 67.1995 12.1342 67.1995 12.5765C67.1995 12.8373 67.3049 12.9864 67.5035 12.9864C67.7803 12.9864 68.0352 12.6406 68.0352 12.1963H68.0333ZM69.7109 12.1735C69.7213 12.1356 69.7264 12.0963 69.726 12.057C69.726 11.8511 69.6288 11.7778 69.454 11.7778C69.305 11.7778 69.1685 11.8312 69.002 11.9235L68.884 11.6574C69.0839 11.5494 69.3061 11.4891 69.5332 11.4811C69.8896 11.4811 70.0994 11.6472 70.0994 12.022C70.0985 12.1037 70.0891 12.1851 70.0712 12.2648L69.877 13.2525H69.5706L69.5754 13.0636H69.5643C69.4293 13.1903 69.2244 13.2947 69.0389 13.2947C68.8034 13.2947 68.6062 13.1354 68.6062 12.8679C68.6048 12.3682 69.0753 12.1905 69.7109 12.1735ZM68.9738 12.7907C68.9738 12.93 69.0709 12.9995 69.2064 12.9995C69.3302 12.9995 69.4492 12.93 69.5851 12.8106L69.6672 12.4134C69.2146 12.4231 68.9738 12.561 68.9738 12.7907ZM70.8772 10.7634H71.255L70.7563 13.2515H70.3786L70.8772 10.7634ZM71.5983 4.69383L71.9994 3.29346H66.8431L66.0123 4.69383H71.5983Z" fill="#BA0000"/>
<path d="M71.012 6.74147L71.4485 5.21582H66.2923L65.2109 8.9916H70.3677L70.7848 7.53586H67.8835L68.1107 6.74147H71.012Z" fill="#382A61"/>
<path d="M65.1709 4.69385L65.9997 3.29541H61.786C61.3899 3.29539 61.0047 3.42432 60.6884 3.66269C60.3722 3.90106 60.1421 4.23592 60.0331 4.61664L60.0107 4.6953L65.1709 4.69385Z" fill="#BA0000"/>
<path d="M59.8617 5.21581L59.3004 7.18188C59.2401 7.39319 59.2297 7.61559 59.27 7.8316C59.3103 8.04761 59.4001 8.25133 59.5325 8.42673C59.6648 8.60214 59.836 8.74445 60.0327 8.84246C60.2294 8.94047 60.4461 8.99152 60.6658 8.99159H63.9405L64.3571 7.53489H61.2363L61.9006 5.21484L59.8617 5.21581ZM54.0009 5.21581L50.7529 8.99159H53.2308L55.1663 6.74147H56.4098L56.9376 8.99159H59.144L58.2579 5.21581H54.0009Z" fill="#382A61"/>
<path d="M58.1347 4.69383L57.8064 3.29491L57.8074 3.29346H55.6534L54.4492 4.69383H58.1347Z" fill="#BA0000"/>
<path d="M51.5843 6.74147L52.0213 5.21582H46.8646L46.4275 6.74147L45.7832 8.9916H50.9399L51.357 7.53586H48.4558L48.683 6.74147H51.5843Z" fill="#382A61"/>
<path d="M52.1709 4.69383L52.572 3.29346H47.4158L46.5859 4.69383H52.1709Z" fill="#BA0000"/>
<path d="M39.8944 5.21582L38.8135 8.9916H40.7557L41.4001 6.74147H44.0406C44.508 6.74125 44.9633 6.5937 45.342 6.3198C45.7207 6.04591 46.0034 5.65961 46.1499 5.21582H39.8944Z" fill="#382A61"/>
<path d="M46.2976 4.69383C46.3305 4.5236 46.3255 4.34817 46.2828 4.18011C46.2401 4.01205 46.1607 3.85551 46.0504 3.72169C45.9401 3.58788 45.8016 3.4801 45.6448 3.40607C45.488 3.33204 45.3168 3.29358 45.1434 3.29346H40.4479L39.6157 4.69383H46.2976ZM34.2535 4.69383C34.2865 4.5236 34.2815 4.34817 34.2388 4.18011C34.196 4.01205 34.1167 3.85551 34.0064 3.72169C33.8961 3.58788 33.7576 3.4801 33.6008 3.40607C33.444 3.33204 33.2727 3.29358 33.0993 3.29346H28.3757L27.5459 4.69383H34.2535Z" fill="#BA0000"/>
<path d="M34.1058 5.21582H27.826L27.5808 6.07285L26.7451 8.9916H28.6874L29.3317 6.74147H31.5343L30.8899 8.9916H32.8322L33.2653 7.47954C33.3149 7.30788 33.3193 7.1263 33.2779 6.95246C33.2366 6.77862 33.1509 6.61845 33.0293 6.48752C33.5396 6.21938 33.9256 5.76336 34.1058 5.21582Z" fill="#382A61"/>
<path d="M26.7657 4.69388L27.1643 3.30078H25.1002L24.7015 4.69388H26.7657ZM22.7792 4.69388L22.464 3.30078H20.3105L19.084 4.69388H22.7792Z" fill="#BA0000"/>
<path d="M24.5523 5.21582L23.6287 8.44193L22.8979 5.21582H18.6244L17.3887 6.61863H21.0581L21.6733 8.9916H25.535L26.6164 5.21582H24.5523Z" fill="#382A61"/>
<path d="M14.7573 6.85065C14.7497 6.73924 14.7348 6.62846 14.7127 6.519C14.6966 6.44326 14.6816 6.39713 14.6641 6.31118C14.2242 4.21159 12.8476 3.11566 12.8476 3.11566C12.8201 3.09102 12.7909 3.0683 12.7602 3.04768C12.554 2.86414 12.3407 2.68852 12.1202 2.52084C11.0709 1.72985 9.9206 1.17484 8.61831 0.949056C7.85871 0.817869 7.08326 0.8064 6.32012 0.915066C5.61115 1.0195 4.91752 1.20979 4.25451 1.48172C3.26784 1.876 2.43072 2.46791 1.76306 3.29726L1.71208 3.36039C1.70694 3.36804 1.70109 3.3752 1.6946 3.38175C1.60402 3.49038 1.51941 3.60385 1.44113 3.72165C1.43776 3.72584 1.43318 3.72889 1.42802 3.73039C1.23379 4.01445 1.03374 4.34366 1.01237 4.37911C0.49352 5.26394 0.16291 6.24635 0.0412378 7.26484C-0.0243833 7.8273 -0.011637 8.39614 0.0791121 8.9551C0.193748 9.65448 0.430247 10.3283 0.777844 10.9459C0.816204 11.0144 0.854078 11.0833 0.897294 11.1489C0.933693 11.2188 0.979792 11.2832 1.03422 11.3402C0.582646 10.4472 0.310242 9.50816 0.29519 8.50255L0.301017 8.49915V8.41903C0.301017 8.37047 0.297618 8.31949 0.296161 8.26996C0.313265 7.75208 0.395986 7.23846 0.542344 6.74139C0.721808 6.1432 0.983261 5.57274 1.31925 5.04628C1.31925 5.04628 1.34256 5.00792 1.38675 4.94188C1.5664 4.67106 1.76262 4.41159 1.97428 4.16497C1.98011 4.15769 1.98642 4.15089 1.99225 4.14458C2.08936 4.02901 2.19862 3.91053 2.31321 3.79351C2.31523 3.79101 2.31751 3.78873 2.32001 3.78671C2.41129 3.69397 2.50744 3.6022 2.60649 3.51431H2.60892C2.93922 3.204 3.30173 2.92988 3.69028 2.69661C4.53808 2.19794 5.45872 1.91971 6.4318 1.79443C7.14999 1.70195 7.87822 1.72227 8.59015 1.85464C9.43919 2.01366 10.2501 2.33338 10.9791 2.79664C11.6538 3.22548 12.2635 3.74873 12.7898 4.35046C12.7999 4.36203 12.8112 4.3726 12.8233 4.38202C13.7896 5.56244 14.0557 7.32602 14.0669 7.40322C14.0843 7.68534 14.0931 7.96842 14.0892 8.252L14.0819 8.50012C14.0591 9.16208 13.9554 9.81875 13.7731 10.4555C13.3885 11.7659 12.6469 12.8265 11.5482 13.6374C10.7101 14.2541 9.77056 14.6571 8.77757 14.9485C8.51585 15.0247 8.25073 15.0888 7.98027 15.1597C8.00548 15.1617 8.03081 15.1617 8.05602 15.1597C8.25462 15.1257 8.45321 15.0927 8.65084 15.0509C9.52189 14.8722 10.3622 14.5672 11.1452 14.1458C11.9789 13.6933 12.7073 13.1116 13.3006 12.3677C14.2431 11.1853 14.6797 9.8165 14.7724 8.32532C14.8063 7.83413 14.8012 7.34104 14.7573 6.85065Z" fill="#BA0303"/>
<path d="M17.9164 3.04807C17.9072 2.94708 17.8489 2.9024 17.7484 2.91454C17.5867 2.93688 17.425 2.9631 17.2629 2.98592C16.588 3.08328 15.9222 3.23528 15.272 3.44041C14.9318 3.54821 14.5975 3.67365 14.2703 3.81624C14.2509 3.8245 14.2217 3.85363 14.1984 3.84732C14.1188 3.88325 14.0465 3.91724 13.9969 3.94103C13.9915 3.94433 13.9858 3.94725 13.9799 3.94977C13.8294 4.01824 13.6832 4.09544 13.5332 4.16828C12.8568 4.48778 12.2989 4.95587 11.8269 5.53127C11.3098 6.16251 10.8859 6.85444 10.497 7.57065C10.3731 7.79838 10.2542 8.02854 10.1323 8.25676C9.974 8.59666 9.56563 8.43205 9.38889 8.34125C9.36033 8.32719 9.3329 8.31096 9.30683 8.29269C9.26895 8.26793 9.23205 8.24122 9.1932 8.21986C8.60543 7.89398 7.96409 7.67592 7.29949 7.57599C6.52886 7.46884 5.7443 7.52526 4.99693 7.74157C4.59536 7.8552 4.19671 7.9795 3.8034 8.11886C3.72037 8.14994 3.45428 8.24948 2.90122 8.46798L2.83324 8.49663L2.80702 8.50634L2.69145 8.5549C2.6832 8.56849 2.66669 8.57529 2.63853 8.57869C2.5924 8.59957 2.54675 8.62045 2.50208 8.64181C2.37001 8.7064 2.23987 8.77195 2.11363 8.83993C1.80626 9.00696 1.59504 9.14535 1.58339 9.15312C1.35477 9.30348 1.14312 9.47817 0.952148 9.67413C1.20561 9.63771 1.4416 9.60227 1.6805 9.56973C2.64581 9.43766 3.61355 9.34152 4.59002 9.37211C5.13629 9.38959 5.67769 9.4464 6.20016 9.61781C6.5624 9.73628 6.8921 9.90915 7.15722 10.1908C7.20578 10.2393 7.20092 10.2607 7.13245 10.2782C6.9829 10.3161 6.83577 10.3632 6.68622 10.4005C6.22833 10.5146 5.76364 10.5987 5.3106 10.7346C5.11638 10.7934 4.91875 10.856 4.75366 10.9774C4.55312 11.127 4.54681 11.1614 4.71336 11.3571C4.87991 11.5528 5.10618 11.6451 5.3378 11.7271C5.9098 11.9306 6.5085 12.0087 7.10623 12.0903C7.16159 12.0976 7.16742 12.0816 7.14994 12.0354C7.11142 11.9345 7.08993 11.8278 7.08633 11.7198C7.08147 11.5135 7.17518 11.3746 7.36941 11.3071C7.52462 11.2566 7.68509 11.224 7.8477 11.21C8.19585 11.1731 8.54643 11.1789 8.89409 11.1371C9.35684 11.0818 9.8055 10.9759 10.2265 10.7696C10.6999 10.538 11.0874 10.1956 11.4472 9.81932C11.7638 9.48913 12.078 9.15652 12.3897 8.82148C12.4383 8.76952 12.4756 8.75155 12.5426 8.79428C12.6233 8.84527 12.7136 8.88071 12.7985 8.92539C12.8393 8.94675 12.8602 8.95015 12.8607 8.89188C12.8659 8.74329 12.8556 8.59456 12.8301 8.44807C12.7937 8.26404 12.733 8.09118 12.5689 7.9795C12.5021 7.92781 12.4239 7.89285 12.3409 7.87756C12.2579 7.86227 12.1724 7.86709 12.0916 7.89161C12.1008 7.86054 12.1056 7.83869 12.1134 7.81732C12.2341 7.4677 12.3857 7.12953 12.5664 6.80685C12.7527 6.46919 13.0007 6.16957 13.2977 5.92361C13.3169 5.90633 13.3394 5.89311 13.3639 5.88477C13.3883 5.87642 13.4142 5.87312 13.44 5.87505C13.5087 5.88118 13.5777 5.86774 13.639 5.83629C13.7004 5.80484 13.7516 5.75666 13.7867 5.69733C13.8289 5.63372 13.8459 5.55943 13.8838 5.48757C13.9964 5.69539 14.1907 5.73569 14.3927 5.74103C14.6262 5.74735 14.7622 5.61284 14.8214 5.39385C15.0195 5.51767 15.1094 5.5065 15.2006 5.3351C15.2395 5.26324 15.2764 5.22196 15.3633 5.2341C15.4047 5.23491 15.4449 5.22018 15.476 5.19283C15.5457 5.13895 15.5953 5.06319 15.6168 4.97772C15.6309 4.93208 15.644 4.92577 15.6877 4.94956C15.7264 4.97387 15.7711 4.98677 15.8168 4.98677C15.8625 4.98677 15.9073 4.97387 15.946 4.94956C16.0144 4.90419 16.0702 4.84221 16.1082 4.76941C16.111 4.76076 16.1155 4.75277 16.1214 4.7459C16.1273 4.73903 16.1346 4.73344 16.1428 4.72945C16.1509 4.72546 16.1598 4.72315 16.1689 4.72268C16.178 4.7222 16.187 4.72357 16.1956 4.72668C16.3767 4.76553 16.4748 4.70289 16.5161 4.5242C16.5191 4.50467 16.5277 4.48644 16.5409 4.4717C16.5541 4.45697 16.5713 4.44637 16.5903 4.44117C16.7676 4.37319 16.836 4.26976 16.8331 4.08039C16.8331 4.0396 16.8278 3.99882 16.8229 3.95851C16.82 3.93666 16.8161 3.91578 16.8467 3.91481C16.8726 3.91758 16.8987 3.91494 16.9234 3.90704C16.9249 3.89869 16.9269 3.89042 16.9293 3.88228C16.9336 3.88811 16.9375 3.89345 16.9409 3.89879C16.9595 3.88776 16.9755 3.87286 16.9878 3.8551C17.0001 3.83733 17.0085 3.81713 17.0123 3.79585C17.0125 3.7931 17.0125 3.79034 17.0123 3.78759L17.0152 3.77157C17.0217 3.69974 17.0112 3.62738 16.9846 3.56035C17.1235 3.58171 17.2463 3.60356 17.3702 3.61813C17.4266 3.6277 17.4846 3.62362 17.5392 3.60622C17.5937 3.58881 17.6433 3.5586 17.6838 3.5181C17.7717 3.43272 17.843 3.3318 17.8941 3.22045C17.9165 3.16595 17.9242 3.1065 17.9164 3.04807Z" fill="#392B61"/>
</g>
<defs>
<clipPath id="clip0_1717_8844">
<rect width="72" height="14.317" fill="white" transform="translate(0 0.841309)"/>
</clipPath>
</defs>
</svg>
