<svg width="18" height="18" viewBox="0 0 18 18" fill="none" xmlns="http://www.w3.org/2000/svg">
<path d="M10.8223 14.1151C10.6798 14.1151 10.5373 14.0626 10.4248 13.9501C10.2073 13.7326 10.2073 13.3726 10.4248 13.1551L14.5798 9.00009L10.4248 4.84509C10.2073 4.62759 10.2073 4.26759 10.4248 4.05009C10.6423 3.83259 11.0023 3.83259 11.2198 4.05009L15.7723 8.60259C15.9898 8.82009 15.9898 9.18009 15.7723 9.39759L11.2198 13.9501C11.1073 14.0626 10.9648 14.1151 10.8223 14.1151Z" fill="#060A33"/>
<path d="M15.2475 9.5625L2.625 9.5625C2.3175 9.5625 2.0625 9.3075 2.0625 9C2.0625 8.6925 2.3175 8.4375 2.625 8.4375L15.2475 8.4375C15.555 8.4375 15.81 8.6925 15.81 9C15.81 9.3075 15.555 9.5625 15.2475 9.5625Z" fill="#060A33"/>
</svg>
