<svg width="48" height="48" viewBox="0 0 48 48" fill="none" xmlns="http://www.w3.org/2000/svg">
<circle cx="24" cy="24" r="24" fill="#FFE4E4"/>
<path d="M34 34.75H14C13.59 34.75 13.25 34.41 13.25 34C13.25 33.59 13.59 33.25 14 33.25H34C34.41 33.25 34.75 33.59 34.75 34C34.75 34.41 34.41 34.75 34 34.75Z" fill="#FF7976"/>
<path d="M26.25 34.75H21.75C21.34 34.75 21 34.41 21 34V16C21 14.28 21.95 13.25 23.55 13.25H24.45C26.05 13.25 27 14.28 27 16V34C27 34.41 26.66 34.75 26.25 34.75ZM22.5 33.25H25.5V16C25.5 14.85 24.96 14.75 24.45 14.75H23.55C23.04 14.75 22.5 14.85 22.5 16V33.25Z" fill="#FF7976"/>
<path d="M19 34.75H15C14.59 34.75 14.25 34.41 14.25 34V22C14.25 20.28 15.13 19.25 16.6 19.25H17.4C18.87 19.25 19.75 20.28 19.75 22V34C19.75 34.41 19.41 34.75 19 34.75ZM15.75 33.25H18.25V22C18.25 20.75 17.7 20.75 17.4 20.75H16.6C16.3 20.75 15.75 20.75 15.75 22V33.25Z" fill="#FF7976"/>
<path d="M33 34.75H29C28.59 34.75 28.25 34.41 28.25 34V27C28.25 25.28 29.13 24.25 30.6 24.25H31.4C32.87 24.25 33.75 25.28 33.75 27V34C33.75 34.41 33.41 34.75 33 34.75ZM29.75 33.25H32.25V27C32.25 25.75 31.7 25.75 31.4 25.75H30.6C30.3 25.75 29.75 25.75 29.75 27V33.25Z" fill="#FF7976"/>
</svg>
