<svg width="16" height="16" viewBox="0 0 16 16" fill="none" xmlns="http://www.w3.org/2000/svg">
<path fill-rule="evenodd" clip-rule="evenodd" d="M14.6663 8.00004C14.6663 11.6819 11.6816 14.6667 7.99967 14.6667C4.31778 14.6667 1.33301 11.6819 1.33301 8.00004C1.33301 4.31814 4.31778 1.33337 7.99967 1.33337C11.6816 1.33337 14.6663 4.31814 14.6663 8.00004ZM7.99967 6.58337C8.41389 6.58337 8.74967 6.91916 8.74967 7.33337V10.6667C8.74967 11.0809 8.41389 11.4167 7.99967 11.4167C7.58546 11.4167 7.24967 11.0809 7.24967 10.6667V7.33337C7.24967 6.91916 7.58546 6.58337 7.99967 6.58337ZM7.99967 6.00004C8.36786 6.00004 8.66634 5.70156 8.66634 5.33337C8.66634 4.96518 8.36786 4.66671 7.99967 4.66671C7.63148 4.66671 7.33301 4.96518 7.33301 5.33337C7.33301 5.70156 7.63148 6.00004 7.99967 6.00004Z" fill="#0D7FE9"/>
</svg>
