<svg width="16" height="188" viewBox="0 0 16 188" fill="none" xmlns="http://www.w3.org/2000/svg">
<path d="M8 0.613249L5.11325 3.5L8 6.38675L10.8868 3.5L8 0.613249ZM7.5 3.5L7.5 4.5L8.5 4.5L8.5 3.5L7.5 3.5ZM7.5 6.5L7.5 8.5L8.5 8.5L8.5 6.5L7.5 6.5ZM7.5 10.5L7.5 12.5L8.5 12.5L8.5 10.5L7.5 10.5ZM7.5 14.5L7.5 16.5L8.5 16.5L8.5 14.5L7.5 14.5ZM7.5 18.5L7.5 20.5L8.5 20.5L8.5 18.5L7.5 18.5ZM7.5 22.5L7.5 24.5L8.5 24.5L8.5 22.5L7.5 22.5ZM7.5 26.5L7.5 28.5L8.5 28.5L8.5 26.5L7.5 26.5ZM7.5 30.5L7.5 32.5L8.5 32.5L8.5 30.5L7.5 30.5ZM7.5 34.5L7.5 36.5L8.5 36.5L8.5 34.5L7.5 34.5ZM7.5 38.5L7.5 40.5L8.5 40.5L8.5 38.5L7.5 38.5ZM7.5 42.5L7.5 44.5L8.5 44.5L8.5 42.5L7.5 42.5ZM7.5 46.5L7.5 48.5L8.5 48.5L8.5 46.5L7.5 46.5ZM7.5 50.5L7.5 52.5L8.5 52.5L8.5 50.5L7.5 50.5ZM7.5 54.5L7.5 56.5L8.5 56.5L8.5 54.5L7.5 54.5ZM7.5 58.5L7.5 60.5L8.5 60.5L8.5 58.5L7.5 58.5ZM7.5 62.5L7.5 64.5L8.5 64.5L8.5 62.5L7.5 62.5ZM7.5 66.5L7.5 68.5L8.5 68.5L8.5 66.5L7.5 66.5ZM7.5 70.5L7.5 72.5L8.5 72.5L8.5 70.5L7.5 70.5ZM7.5 74.5L7.5 76.5L8.5 76.5L8.5 74.5L7.5 74.5ZM7.5 78.5L7.5 80.5L8.5 80.5L8.5 78.5L7.5 78.5ZM7.5 82.5L7.5 83.5L8.5 83.5L8.5 82.5L7.5 82.5Z" fill="#CED6DE"/>
<path d="M7.66667 97.5357L2.33333 94.167L2.33333 92.8337L7.66667 94.5177L7.66667 90.9443L5.66667 89.8337L5.66667 88.8337L8.66667 89.5003L11.6667 88.8337L11.6667 89.8337L9.66667 90.945L9.66667 94.5183L15 92.8337L15 94.167L9.66667 97.5357L9.66667 101.167C9.66667 101.432 9.56131 101.687 9.37377 101.874C9.18624 102.062 8.93188 102.167 8.66667 102.167C8.40145 102.167 8.1471 102.062 7.95956 101.874C7.77202 101.687 7.66667 101.432 7.66667 101.167L7.66667 97.5357Z" fill="#8895A7"/>
<path d="M8 187.5L10.8868 182.5L5.11325 182.5L8 187.5ZM7.5 107.5L7.5 108.5L8.5 108.5L8.5 107.5L7.5 107.5ZM7.5 110.5L7.5 112.5L8.5 112.5L8.5 110.5L7.5 110.5ZM7.5 114.5L7.5 116.5L8.5 116.5L8.5 114.5L7.5 114.5ZM7.5 118.5L7.5 120.5L8.5 120.5L8.5 118.5L7.5 118.5ZM7.5 122.5L7.5 124.5L8.5 124.5L8.5 122.5L7.5 122.5ZM7.5 126.5L7.5 128.5L8.5 128.5L8.5 126.5L7.5 126.5ZM7.5 130.5L7.5 132.5L8.5 132.5L8.5 130.5L7.5 130.5ZM7.5 134.5L7.5 136.5L8.5 136.5L8.5 134.5L7.5 134.5ZM7.5 138.5L7.5 140.5L8.5 140.5L8.5 138.5L7.5 138.5ZM7.5 142.5L7.5 144.5L8.5 144.5L8.5 142.5L7.5 142.5ZM7.5 146.5L7.5 148.5L8.5 148.5L8.5 146.5L7.5 146.5ZM7.5 150.5L7.5 152.5L8.5 152.5L8.5 150.5L7.5 150.5ZM7.5 154.5L7.5 156.5L8.5 156.5L8.5 154.5L7.5 154.5ZM7.5 158.5L7.5 160.5L8.5 160.5L8.5 158.5L7.5 158.5ZM7.5 162.5L7.5 164.5L8.5 164.5L8.5 162.5L7.5 162.5ZM7.5 166.5L7.5 168.5L8.5 168.5L8.5 166.5L7.5 166.5ZM7.5 170.5L7.5 172.5L8.5 172.5L8.5 170.5L7.5 170.5ZM7.5 174.5L7.5 176.5L8.5 176.5L8.5 174.5L7.5 174.5ZM7.5 178.5L7.5 180.5L8.5 180.5L8.5 178.5L7.5 178.5ZM7.5 182.5L7.5 184.5L8.5 184.5L8.5 182.5L7.5 182.5Z" fill="#CED6DE"/>
</svg>
