<svg width="45" height="47" viewBox="0 0 45 47" fill="none" xmlns="http://www.w3.org/2000/svg">
<path fill-rule="evenodd" clip-rule="evenodd" d="M5.47168 7.68694C5.47168 6.71663 6.19777 5.92993 7.09332 5.92993C7.98888 5.92993 8.71497 6.71663 8.71497 7.68694C8.71497 8.65725 7.98888 9.44396 7.09332 9.44396C6.19777 9.44396 5.47168 8.65725 5.47168 7.68694Z" fill="#FFE7CF"/>
<path fill-rule="evenodd" clip-rule="evenodd" d="M5.47168 14.715C5.47168 13.7447 6.19777 12.958 7.09332 12.958C7.98888 12.958 8.71497 13.7447 8.71497 14.715C8.71497 15.6853 7.98888 16.472 7.09332 16.472C6.19777 16.472 5.47168 15.6853 5.47168 14.715Z" fill="#FFE7CF"/>
<path fill-rule="evenodd" clip-rule="evenodd" d="M5.47168 21.743C5.47168 20.7727 6.19777 19.986 7.09332 19.986C7.98888 19.986 8.71497 20.7727 8.71497 21.743C8.71497 22.7133 7.98888 23.5 7.09332 23.5C6.19777 23.5 5.47168 22.7133 5.47168 21.743Z" fill="#FFE7CF"/>
<path fill-rule="evenodd" clip-rule="evenodd" d="M5.47168 28.771C5.47168 27.8007 6.19777 27.014 7.09332 27.014C7.98888 27.014 8.71497 27.8007 8.71497 28.771C8.71497 29.7413 7.98888 30.528 7.09332 30.528C6.19777 30.528 5.47168 29.7413 5.47168 28.771Z" fill="#FFE7CF"/>
<path fill-rule="evenodd" clip-rule="evenodd" d="M16.8236 46.3412C7.86031 46.3412 0.607422 38.4828 0.607422 28.7711C0.607422 33.6268 4.23397 37.5562 8.71552 37.5562C8.71552 42.4119 12.3421 46.3412 16.8236 46.3412Z" fill="#FFE7CF"/>
<path fill-rule="evenodd" clip-rule="evenodd" d="M31.418 27.014H36.283V16.472H31.418V27.014Z" fill="#FFE7CF"/>
<path fill-rule="evenodd" clip-rule="evenodd" d="M36.2842 27.014H41.1489V23.4999H36.2842V27.014Z" fill="#FFE7CF"/>
<path fill-rule="evenodd" clip-rule="evenodd" d="M41.1487 46.3411H31.419C29.6279 46.3411 28.1758 44.7679 28.1758 42.8271V27.014H44.392V42.8271C44.392 44.7679 42.94 46.3411 41.1487 46.3411Z" fill="#FFE7CF"/>
<path fill-rule="evenodd" clip-rule="evenodd" d="M31.418 46.3411H41.1477V27.014H31.418V46.3411Z" fill="#FFF6ED"/>
<path fill-rule="evenodd" clip-rule="evenodd" d="M38.7166 19.1074C37.3733 19.1074 36.2842 20.2875 36.2842 21.743V23.5H41.1489V21.743C41.1489 20.2875 40.0598 19.1074 38.7166 19.1074Z" fill="#FFF6ED"/>
<path fill-rule="evenodd" clip-rule="evenodd" d="M43.7838 42.8271C43.7838 44.4014 42.6016 45.6822 41.1486 45.6822H33.0405H31.4189C29.9659 45.6822 28.7838 44.4014 28.7838 42.8271V27.6729H31.4189H36.2838H41.1486H43.7838V42.8271ZM1.21622 35.5636C2.92601 40.1591 6.31399 43.8297 10.5551 45.6822H1.21622V35.5636ZM10.7986 44.37C7.03054 42.6547 4.01047 39.3823 2.42736 35.2999C3.88824 36.951 5.89459 38.0294 8.13 38.1912C8.27939 40.6133 9.27466 42.7871 10.7986 44.37ZM1.21622 1.31776H32.4324V14.715V15.8131H31.4189C31.083 15.8131 30.8108 16.108 30.8108 16.472V26.3551H28.1757C27.8398 26.3551 27.5676 26.6501 27.5676 27.014V42.8271C27.5676 43.9318 27.9687 44.9351 28.618 45.6822H16.8243C16.695 45.6822 16.5673 45.675 16.4388 45.6715C12.4818 45.4536 9.32432 41.897 9.32432 37.5561C9.32432 37.1922 9.05209 36.8972 8.71622 36.8972C4.71 36.8972 1.42743 33.4763 1.22595 29.1885C1.22291 29.0495 1.21622 28.9112 1.21622 28.771V1.31776ZM33.6486 15.8131H34.0541V15.3738H33.6486V15.8131ZM35.6757 23.5V26.3551H32.027V17.1308H33.0405H34.6622H35.6757V23.5ZM40.5405 21.743V22.8411H36.8919V21.743C36.8919 20.653 37.7104 19.7664 38.7162 19.7664C39.722 19.7664 40.5405 20.653 40.5405 21.743ZM36.8919 26.3551H40.5405V24.1589H36.8919V26.3551ZM41.7568 26.3551V23.5V21.743C41.7568 19.9265 40.3928 18.4486 38.7162 18.4486C38.0313 18.4486 37.4009 18.6983 36.8919 19.1136V16.472C36.8919 16.108 36.6197 15.8131 36.2838 15.8131H35.2703V14.715C35.2703 14.351 34.998 14.0561 34.6622 14.0561H33.6486V0.658879C33.6486 0.294958 33.3764 0 33.0405 0H0.608108C0.27223 0 0 0.294958 0 0.658879V46.3411C0 46.705 0.27223 47 0.608108 47H31.4189H33.0405H41.1486C43.2724 47 45 45.1281 45 42.8271V27.014C45 26.6501 44.7278 26.3551 44.3919 26.3551H41.7568Z" fill="#FFD0A1"/>
<path fill-rule="evenodd" clip-rule="evenodd" d="M7.09399 6.58888C7.65285 6.58888 8.10751 7.0815 8.10751 7.68701C8.10751 8.29252 7.65285 8.78514 7.09399 8.78514C6.53514 8.78514 6.08048 8.29252 6.08048 7.68701C6.08048 7.0815 6.53514 6.58888 7.09399 6.58888ZM7.09399 10.1029C8.32339 10.1029 9.32373 9.01904 9.32373 7.68701C9.32373 6.35497 8.32339 5.27112 7.09399 5.27112C5.8646 5.27112 4.86426 6.35497 4.86426 7.68701C4.86426 9.01904 5.8646 10.1029 7.09399 10.1029Z" fill="#FFD0A1"/>
<path fill-rule="evenodd" clip-rule="evenodd" d="M7.09399 13.6168C7.65285 13.6168 8.10751 14.1095 8.10751 14.715C8.10751 15.3205 7.65285 15.8131 7.09399 15.8131C6.53514 15.8131 6.08048 15.3205 6.08048 14.715C6.08048 14.1095 6.53514 13.6168 7.09399 13.6168ZM7.09399 17.1309C8.32339 17.1309 9.32373 16.047 9.32373 14.715C9.32373 13.3829 8.32339 12.2991 7.09399 12.2991C5.8646 12.2991 4.86426 13.3829 4.86426 14.715C4.86426 16.047 5.8646 17.1309 7.09399 17.1309Z" fill="#FFD0A1"/>
<path fill-rule="evenodd" clip-rule="evenodd" d="M7.09399 20.6449C7.65285 20.6449 8.10751 21.1375 8.10751 21.743C8.10751 22.3485 7.65285 22.8411 7.09399 22.8411C6.53514 22.8411 6.08048 22.3485 6.08048 21.743C6.08048 21.1375 6.53514 20.6449 7.09399 20.6449ZM7.09399 24.1589C8.32339 24.1589 9.32373 23.075 9.32373 21.743C9.32373 20.411 8.32339 19.3271 7.09399 19.3271C5.8646 19.3271 4.86426 20.411 4.86426 21.743C4.86426 23.075 5.8646 24.1589 7.09399 24.1589Z" fill="#FFD0A1"/>
<path fill-rule="evenodd" clip-rule="evenodd" d="M7.09399 27.6729C7.65285 27.6729 8.10751 28.1656 8.10751 28.7711C8.10751 29.3766 7.65285 29.8692 7.09399 29.8692C6.53514 29.8692 6.08048 29.3766 6.08048 28.7711C6.08048 28.1656 6.53514 27.6729 7.09399 27.6729ZM7.09399 31.187C8.32339 31.187 9.32373 30.1031 9.32373 28.7711C9.32373 27.439 8.32339 26.3552 7.09399 26.3552C5.8646 26.3552 4.86426 27.439 4.86426 28.7711C4.86426 30.1031 5.8646 31.187 7.09399 31.187Z" fill="#FFD0A1"/>
<path fill-rule="evenodd" clip-rule="evenodd" d="M13.5808 8.34577H26.5538C26.8896 8.34577 27.1619 8.05081 27.1619 7.68689C27.1619 7.32297 26.8896 7.02802 26.5538 7.02802H13.5808C13.2449 7.02802 12.9727 7.32297 12.9727 7.68689C12.9727 8.05081 13.2449 8.34577 13.5808 8.34577Z" fill="#FFD0A1"/>
<path fill-rule="evenodd" clip-rule="evenodd" d="M13.5808 15.3739H26.5538C26.8896 15.3739 27.1619 15.0789 27.1619 14.715C27.1619 14.3511 26.8896 14.0562 26.5538 14.0562H13.5808C13.2449 14.0562 12.9727 14.3511 12.9727 14.715C12.9727 15.0789 13.2449 15.3739 13.5808 15.3739Z" fill="#FFD0A1"/>
<path fill-rule="evenodd" clip-rule="evenodd" d="M13.5808 22.4019H23.3106C23.6465 22.4019 23.9187 22.1069 23.9187 21.743C23.9187 21.3791 23.6465 21.0841 23.3106 21.0841H13.5808C13.2449 21.0841 12.9727 21.3791 12.9727 21.743C12.9727 22.1069 13.2449 22.4019 13.5808 22.4019Z" fill="#FFD0A1"/>
<path fill-rule="evenodd" clip-rule="evenodd" d="M13.5808 29.4299H23.3106C23.6465 29.4299 23.9187 29.1349 23.9187 28.771C23.9187 28.4071 23.6465 28.1121 23.3106 28.1121H13.5808C13.2449 28.1121 12.9727 28.4071 12.9727 28.771C12.9727 29.1349 13.2449 29.4299 13.5808 29.4299Z" fill="#FFD0A1"/>
<path fill-rule="evenodd" clip-rule="evenodd" d="M13.5808 36.4579H23.3106C23.6465 36.4579 23.9187 36.163 23.9187 35.7991C23.9187 35.4352 23.6465 35.1402 23.3106 35.1402H13.5808C13.2449 35.1402 12.9727 35.4352 12.9727 35.7991C12.9727 36.163 13.2449 36.4579 13.5808 36.4579Z" fill="#FFD0A1"/>
</svg>
