<svg width="18" height="19" viewBox="0 0 18 19" fill="none" xmlns="http://www.w3.org/2000/svg">
<path d="M9.53792 2.00012C10.1051 2.00012 10.6186 2.31512 10.9022 2.78012C11.0402 3.00512 11.1322 3.28262 11.1092 3.57512C11.0938 3.80012 11.1628 4.02512 11.2855 4.23512C11.6764 4.87262 12.5425 5.11262 13.217 4.75262C13.9758 4.31762 14.9339 4.58012 15.3707 5.32262L15.8843 6.20762C16.3288 6.95012 16.0836 7.90262 15.3171 8.33012C14.6656 8.71262 14.4356 9.56012 14.8265 10.2051C14.9492 10.4076 15.0871 10.5801 15.3018 10.6851C15.57 10.8276 15.777 11.0526 15.9226 11.2776C16.2062 11.7426 16.1832 12.3126 15.9073 12.8151L15.3707 13.7151C15.0871 14.1951 14.5583 14.4951 14.0141 14.4951C13.7458 14.4951 13.4469 14.4201 13.2016 14.2701C13.0024 14.1426 12.7724 14.0976 12.5271 14.0976C11.7683 14.0976 11.1322 14.7201 11.1092 15.4626C11.1092 16.3251 10.404 17.0001 9.52259 17.0001H8.48019C7.59109 17.0001 6.88594 16.3251 6.88594 15.4626C6.87061 14.7201 6.23444 14.0976 5.47564 14.0976C5.2227 14.0976 4.99276 14.1426 4.80115 14.2701C4.55588 14.4201 4.24929 14.4951 3.98869 14.4951C3.43683 14.4951 2.90797 14.1951 2.62438 13.7151L2.09551 12.8151C1.81192 12.3276 1.79659 11.7426 2.08019 11.2776C2.20282 11.0526 2.43276 10.8276 2.69336 10.6851C2.90797 10.5801 3.04594 10.4076 3.17623 10.2051C3.55947 9.56012 3.32953 8.71262 2.67803 8.33012C1.91923 7.90262 1.67396 6.95012 2.11084 6.20762L2.62438 5.32262C3.06893 4.58012 4.01935 4.31762 4.78582 4.75262C5.45264 5.11262 6.31875 4.87262 6.70965 4.23512C6.83229 4.02512 6.90127 3.80012 6.88594 3.57512C6.87061 3.28262 6.95492 3.00512 7.10055 2.78012C7.38414 2.31512 7.89768 2.01512 8.4572 2.00012H9.53792ZM9.00906 7.38512C7.8057 7.38512 6.83229 8.33012 6.83229 9.50762C6.83229 10.6851 7.8057 11.6226 9.00906 11.6226C10.2124 11.6226 11.1628 10.6851 11.1628 9.50762C11.1628 8.33012 10.2124 7.38512 9.00906 7.38512Z" fill="#5F6B7A"/>
</svg>
