<svg width="48" height="48" viewBox="0 0 48 48" fill="none" xmlns="http://www.w3.org/2000/svg">
<circle cx="24" cy="24" r="24" fill="#EAEAFF"/>
<path d="M28.0002 35.72C27.7302 35.72 27.4802 35.57 27.3502 35.34C27.2202 35.11 27.2202 34.82 27.3602 34.59L28.4102 32.84C28.6202 32.48 29.0802 32.37 29.4402 32.58C29.8002 32.79 29.9102 33.25 29.7002 33.61L29.4302 34.06C32.1902 33.41 34.2602 30.93 34.2602 27.97C34.2602 27.56 34.6002 27.22 35.0102 27.22C35.4202 27.22 35.7602 27.56 35.7602 27.97C35.7502 32.24 32.2702 35.72 28.0002 35.72Z" fill="#9694FF"/>
<path d="M13 20.72C12.59 20.72 12.25 20.38 12.25 19.97C12.25 15.7 15.73 12.22 20 12.22C20.27 12.22 20.52 12.37 20.65 12.6C20.78 12.83 20.78 13.12 20.64 13.35L19.59 15.1C19.38 15.46 18.92 15.57 18.56 15.36C18.2 15.15 18.09 14.69 18.3 14.33L18.57 13.88C15.81 14.53 13.74 17.01 13.74 19.97C13.75 20.38 13.41 20.72 13 20.72Z" fill="#9694FF"/>
<path d="M20.67 34.2499C16.85 34.2499 13.75 31.14 13.75 27.33C13.75 23.52 16.86 20.4099 20.67 20.4099C20.85 20.4099 21.01 20.4199 21.19 20.4299C24.58 20.6899 27.32 23.4299 27.57 26.7999C27.58 27.0199 27.59 27.17 27.59 27.33C27.6 31.14 24.49 34.2499 20.67 34.2499ZM20.67 21.9C17.68 21.9 15.25 24.3299 15.25 27.3199C15.25 30.3099 17.68 32.7399 20.67 32.7399C23.66 32.7399 26.1 30.3099 26.1 27.3199C26.1 27.1899 26.09 27.0599 26.08 26.9299C25.88 24.2499 23.73 22.1099 21.09 21.9099C20.96 21.9099 20.82 21.9 20.67 21.9Z" fill="#9694FF"/>
<path d="M27.3302 27.6H26.8402C26.4502 27.6 26.1202 27.3 26.0902 26.91C25.8902 24.26 23.7502 22.12 21.1002 21.92C20.7102 21.89 20.4102 21.56 20.4102 21.17V20.68C20.4102 16.86 23.5202 13.76 27.3402 13.76C31.1602 13.76 34.2602 16.87 34.2602 20.68C34.2602 24.49 31.1402 27.6 27.3302 27.6ZM21.9002 20.51C24.7202 21.02 26.9802 23.27 27.4902 26.1C30.4102 26.01 32.7502 23.61 32.7502 20.68C32.7502 17.69 30.3202 15.26 27.3302 15.26C24.3902 15.25 21.9902 17.59 21.9002 20.51Z" fill="#9694FF"/>
<path d="M21.4687 29.8603H20.3532C19.4979 29.8603 18.8063 29.1463 18.8063 28.2613C18.8063 27.9564 19.0591 27.7035 19.364 27.7035C19.669 27.7035 19.9218 27.9564 19.9218 28.2613C19.9218 28.5291 20.1152 28.7447 20.3532 28.7447H21.4687C21.6398 28.7447 21.7737 28.5885 21.7737 28.3952C21.7737 28.1349 21.729 28.12 21.558 28.0605L19.7656 27.4358C19.1186 27.2127 18.7988 26.759 18.7988 26.0525C18.7988 25.2493 19.4384 24.5874 20.2193 24.5874H21.3349C22.1901 24.5874 22.8818 25.3014 22.8818 26.1864C22.8818 26.4913 22.6289 26.7442 22.324 26.7442C22.0191 26.7442 21.7662 26.4913 21.7662 26.1864C21.7662 25.9186 21.5729 25.703 21.3349 25.703H20.2193C20.0483 25.703 19.9144 25.8591 19.9144 26.0525C19.9144 26.3128 19.959 26.3277 20.1301 26.3872L21.9224 27.0119C22.5694 27.2424 22.8818 27.6961 22.8818 28.3952C22.8892 29.2058 22.2496 29.8603 21.4687 29.8603Z" fill="#9694FF"/>
<path d="M20.8429 30.4555C20.538 30.4555 20.2852 30.2026 20.2852 29.8977V29.3473C20.2852 29.0424 20.538 28.7896 20.8429 28.7896C21.1479 28.7896 21.4007 29.0424 21.4007 29.3473V29.8977C21.4007 30.21 21.1479 30.4555 20.8429 30.4555Z" fill="#9694FF"/>
<path d="M20.8429 25.6957C20.538 25.6957 20.2852 25.4428 20.2852 25.1379V24.5578C20.2852 24.2529 20.538 24 20.8429 24C21.1479 24 21.4007 24.2529 21.4007 24.5578V25.1379C21.4007 25.4428 21.1479 25.6957 20.8429 25.6957Z" fill="#9694FF"/>
</svg>
