<svg width="67" height="22" viewBox="0 0 67 22" fill="none" xmlns="http://www.w3.org/2000/svg">
<path d="M0 11C0 4.92487 4.92487 0 11 0H56C62.0751 0 67 4.92487 67 11C67 17.0751 62.0751 22 56 22H11C4.92487 22 0 17.0751 0 11Z" fill="#DDEFFF"/>
<path d="M9.32 15C9.232 15 9.164 14.976 9.116 14.928C9.068 14.872 9.044 14.804 9.044 14.724V6.888C9.044 6.8 9.068 6.732 9.116 6.684C9.164 6.628 9.232 6.6 9.32 6.6H12.608C13.208 6.6 13.696 6.7 14.072 6.9C14.456 7.092 14.736 7.356 14.912 7.692C15.096 8.028 15.188 8.404 15.188 8.82C15.188 9.148 15.132 9.432 15.02 9.672C14.916 9.904 14.784 10.096 14.624 10.248C14.464 10.392 14.308 10.504 14.156 10.584C14.468 10.736 14.744 10.984 14.984 11.328C15.232 11.672 15.356 12.088 15.356 12.576C15.356 13.016 15.256 13.42 15.056 13.788C14.856 14.156 14.556 14.452 14.156 14.676C13.764 14.892 13.276 15 12.692 15H9.32ZM10.22 14.028H12.536C13.056 14.028 13.456 13.888 13.736 13.608C14.016 13.328 14.156 12.984 14.156 12.576C14.156 12.152 14.016 11.804 13.736 11.532C13.456 11.252 13.056 11.112 12.536 11.112H10.22V14.028ZM10.22 10.152H12.428C12.94 10.152 13.328 10.036 13.592 9.804C13.856 9.564 13.988 9.24 13.988 8.832C13.988 8.424 13.856 8.112 13.592 7.896C13.328 7.68 12.94 7.572 12.428 7.572H10.22V10.152ZM19.2316 15.12C18.7196 15.12 18.2836 15.008 17.9236 14.784C17.5716 14.552 17.3036 14.232 17.1196 13.824C16.9356 13.416 16.8436 12.948 16.8436 12.42V9.036C16.8436 8.956 16.8676 8.892 16.9156 8.844C16.9716 8.788 17.0396 8.76 17.1196 8.76H17.7196C17.7996 8.76 17.8636 8.788 17.9116 8.844C17.9676 8.892 17.9956 8.956 17.9956 9.036V12.36C17.9956 13.552 18.5156 14.148 19.5556 14.148C20.0516 14.148 20.4476 13.992 20.7436 13.68C21.0476 13.36 21.1996 12.92 21.1996 12.36V9.036C21.1996 8.956 21.2236 8.892 21.2716 8.844C21.3276 8.788 21.3956 8.76 21.4756 8.76H22.0636C22.1516 8.76 22.2196 8.788 22.2676 8.844C22.3156 8.892 22.3396 8.956 22.3396 9.036V14.724C22.3396 14.804 22.3156 14.872 22.2676 14.928C22.2196 14.976 22.1516 15 22.0636 15H21.5116C21.4316 15 21.3636 14.976 21.3076 14.928C21.2596 14.872 21.2356 14.804 21.2356 14.724V14.196C21.0196 14.476 20.7556 14.7 20.4436 14.868C20.1396 15.036 19.7356 15.12 19.2316 15.12ZM26.2824 15.12C25.8344 15.12 25.4504 15.064 25.1304 14.952C24.8104 14.84 24.5504 14.704 24.3504 14.544C24.1504 14.384 23.9984 14.224 23.8944 14.064C23.7984 13.904 23.7464 13.776 23.7384 13.68C23.7304 13.592 23.7584 13.524 23.8224 13.476C23.8864 13.428 23.9504 13.404 24.0144 13.404H24.5424C24.5904 13.404 24.6264 13.412 24.6504 13.428C24.6824 13.436 24.7224 13.468 24.7704 13.524C24.8744 13.636 24.9904 13.748 25.1184 13.86C25.2464 13.972 25.4024 14.064 25.5864 14.136C25.7784 14.208 26.0144 14.244 26.2944 14.244C26.7024 14.244 27.0384 14.168 27.3024 14.016C27.5664 13.856 27.6984 13.624 27.6984 13.32C27.6984 13.12 27.6424 12.96 27.5304 12.84C27.4264 12.72 27.2344 12.612 26.9544 12.516C26.6824 12.42 26.3064 12.32 25.8264 12.216C25.3464 12.104 24.9664 11.968 24.6864 11.808C24.4064 11.64 24.2064 11.444 24.0864 11.22C23.9664 10.988 23.9064 10.728 23.9064 10.44C23.9064 10.144 23.9944 9.86 24.1704 9.588C24.3464 9.308 24.6024 9.08 24.9384 8.904C25.2824 8.728 25.7104 8.64 26.2224 8.64C26.6384 8.64 26.9944 8.692 27.2904 8.796C27.5864 8.9 27.8304 9.032 28.0224 9.192C28.2144 9.344 28.3584 9.496 28.4544 9.648C28.5504 9.8 28.6024 9.928 28.6104 10.032C28.6184 10.112 28.5944 10.18 28.5384 10.236C28.4824 10.284 28.4184 10.308 28.3464 10.308H27.8424C27.7864 10.308 27.7384 10.296 27.6984 10.272C27.6664 10.248 27.6344 10.22 27.6024 10.188C27.5224 10.084 27.4264 9.98 27.3144 9.876C27.2104 9.772 27.0704 9.688 26.8944 9.624C26.7264 9.552 26.5024 9.516 26.2224 9.516C25.8224 9.516 25.5224 9.6 25.3224 9.768C25.1224 9.936 25.0224 10.148 25.0224 10.404C25.0224 10.556 25.0664 10.692 25.1544 10.812C25.2424 10.932 25.4104 11.04 25.6584 11.136C25.9064 11.232 26.2744 11.336 26.7624 11.448C27.2904 11.552 27.7064 11.692 28.0104 11.868C28.3144 12.044 28.5304 12.248 28.6584 12.48C28.7864 12.712 28.8504 12.98 28.8504 13.284C28.8504 13.62 28.7504 13.928 28.5504 14.208C28.3584 14.488 28.0704 14.712 27.6864 14.88C27.3104 15.04 26.8424 15.12 26.2824 15.12ZM30.5156 15C30.4356 15 30.3676 14.976 30.3116 14.928C30.2636 14.872 30.2396 14.804 30.2396 14.724V9.036C30.2396 8.956 30.2636 8.892 30.3116 8.844C30.3676 8.788 30.4356 8.76 30.5156 8.76H31.0916C31.1716 8.76 31.2356 8.788 31.2836 8.844C31.3316 8.892 31.3556 8.956 31.3556 9.036V14.724C31.3556 14.804 31.3316 14.872 31.2836 14.928C31.2356 14.976 31.1716 15 31.0916 15H30.5156ZM30.4196 7.596C30.3396 7.596 30.2716 7.572 30.2156 7.524C30.1676 7.468 30.1436 7.4 30.1436 7.32V6.672C30.1436 6.592 30.1676 6.528 30.2156 6.48C30.2716 6.424 30.3396 6.396 30.4196 6.396H31.1756C31.2556 6.396 31.3196 6.424 31.3676 6.48C31.4236 6.528 31.4516 6.592 31.4516 6.672V7.32C31.4516 7.4 31.4236 7.468 31.3676 7.524C31.3196 7.572 31.2556 7.596 31.1756 7.596H30.4196ZM33.539 15C33.459 15 33.391 14.976 33.335 14.928C33.287 14.872 33.263 14.804 33.263 14.724V9.036C33.263 8.956 33.287 8.892 33.335 8.844C33.391 8.788 33.459 8.76 33.539 8.76H34.103C34.183 8.76 34.247 8.788 34.295 8.844C34.351 8.892 34.379 8.956 34.379 9.036V9.564C34.587 9.292 34.847 9.072 35.159 8.904C35.479 8.728 35.887 8.64 36.383 8.64C36.903 8.64 37.343 8.756 37.703 8.988C38.071 9.212 38.347 9.528 38.531 9.936C38.715 10.336 38.807 10.804 38.807 11.34V14.724C38.807 14.804 38.783 14.872 38.735 14.928C38.687 14.976 38.623 15 38.543 15H37.943C37.863 15 37.795 14.976 37.739 14.928C37.691 14.872 37.667 14.804 37.667 14.724V11.4C37.667 10.84 37.531 10.404 37.259 10.092C36.987 9.772 36.587 9.612 36.059 9.612C35.563 9.612 35.163 9.772 34.859 10.092C34.563 10.404 34.415 10.84 34.415 11.4V14.724C34.415 14.804 34.387 14.872 34.331 14.928C34.283 14.976 34.219 15 34.139 15H33.539ZM43.0243 15.12C42.2003 15.12 41.5443 14.868 41.0563 14.364C40.5683 13.852 40.3003 13.156 40.2523 12.276C40.2443 12.172 40.2403 12.04 40.2403 11.88C40.2403 11.712 40.2443 11.576 40.2523 11.472C40.2843 10.904 40.4163 10.408 40.6483 9.984C40.8803 9.552 41.1963 9.22 41.5963 8.988C42.0043 8.756 42.4803 8.64 43.0243 8.64C43.6323 8.64 44.1403 8.768 44.5483 9.024C44.9643 9.28 45.2803 9.644 45.4963 10.116C45.7123 10.588 45.8203 11.14 45.8203 11.772V11.976C45.8203 12.064 45.7923 12.132 45.7363 12.18C45.6883 12.228 45.6243 12.252 45.5443 12.252H41.3923C41.3923 12.26 41.3923 12.276 41.3923 12.3C41.3923 12.324 41.3923 12.344 41.3923 12.36C41.4083 12.688 41.4803 12.996 41.6083 13.284C41.7363 13.564 41.9203 13.792 42.1603 13.968C42.4003 14.144 42.6883 14.232 43.0243 14.232C43.3123 14.232 43.5523 14.188 43.7443 14.1C43.9363 14.012 44.0923 13.916 44.2123 13.812C44.3323 13.7 44.4123 13.616 44.4523 13.56C44.5243 13.456 44.5803 13.396 44.6203 13.38C44.6603 13.356 44.7243 13.344 44.8123 13.344H45.3883C45.4683 13.344 45.5323 13.368 45.5803 13.416C45.6363 13.456 45.6603 13.516 45.6523 13.596C45.6443 13.716 45.5803 13.864 45.4603 14.04C45.3403 14.208 45.1683 14.376 44.9443 14.544C44.7203 14.712 44.4483 14.852 44.1283 14.964C43.8083 15.068 43.4403 15.12 43.0243 15.12ZM41.3923 11.424H44.6803V11.388C44.6803 11.028 44.6123 10.708 44.4763 10.428C44.3483 10.148 44.1603 9.928 43.9123 9.768C43.6643 9.6 43.3683 9.516 43.0243 9.516C42.6803 9.516 42.3843 9.6 42.1363 9.768C41.8963 9.928 41.7123 10.148 41.5843 10.428C41.4563 10.708 41.3923 11.028 41.3923 11.388V11.424ZM49.4152 15.12C48.9672 15.12 48.5832 15.064 48.2632 14.952C47.9432 14.84 47.6832 14.704 47.4832 14.544C47.2832 14.384 47.1312 14.224 47.0272 14.064C46.9312 13.904 46.8792 13.776 46.8712 13.68C46.8632 13.592 46.8912 13.524 46.9552 13.476C47.0192 13.428 47.0832 13.404 47.1472 13.404H47.6752C47.7232 13.404 47.7592 13.412 47.7832 13.428C47.8152 13.436 47.8552 13.468 47.9032 13.524C48.0072 13.636 48.1232 13.748 48.2512 13.86C48.3792 13.972 48.5352 14.064 48.7192 14.136C48.9112 14.208 49.1472 14.244 49.4272 14.244C49.8352 14.244 50.1712 14.168 50.4352 14.016C50.6992 13.856 50.8312 13.624 50.8312 13.32C50.8312 13.12 50.7752 12.96 50.6632 12.84C50.5592 12.72 50.3672 12.612 50.0872 12.516C49.8152 12.42 49.4392 12.32 48.9592 12.216C48.4792 12.104 48.0992 11.968 47.8192 11.808C47.5392 11.64 47.3392 11.444 47.2192 11.22C47.0992 10.988 47.0392 10.728 47.0392 10.44C47.0392 10.144 47.1272 9.86 47.3032 9.588C47.4792 9.308 47.7352 9.08 48.0712 8.904C48.4152 8.728 48.8432 8.64 49.3552 8.64C49.7712 8.64 50.1272 8.692 50.4232 8.796C50.7192 8.9 50.9632 9.032 51.1552 9.192C51.3472 9.344 51.4912 9.496 51.5872 9.648C51.6832 9.8 51.7352 9.928 51.7432 10.032C51.7512 10.112 51.7272 10.18 51.6712 10.236C51.6152 10.284 51.5512 10.308 51.4792 10.308H50.9752C50.9192 10.308 50.8712 10.296 50.8312 10.272C50.7992 10.248 50.7672 10.22 50.7352 10.188C50.6552 10.084 50.5592 9.98 50.4472 9.876C50.3432 9.772 50.2032 9.688 50.0272 9.624C49.8592 9.552 49.6352 9.516 49.3552 9.516C48.9552 9.516 48.6552 9.6 48.4552 9.768C48.2552 9.936 48.1552 10.148 48.1552 10.404C48.1552 10.556 48.1992 10.692 48.2872 10.812C48.3752 10.932 48.5432 11.04 48.7912 11.136C49.0392 11.232 49.4072 11.336 49.8952 11.448C50.4232 11.552 50.8392 11.692 51.1432 11.868C51.4472 12.044 51.6632 12.248 51.7912 12.48C51.9192 12.712 51.9832 12.98 51.9832 13.284C51.9832 13.62 51.8832 13.928 51.6832 14.208C51.4912 14.488 51.2032 14.712 50.8192 14.88C50.4432 15.04 49.9752 15.12 49.4152 15.12ZM55.5324 15.12C55.0844 15.12 54.7004 15.064 54.3804 14.952C54.0604 14.84 53.8004 14.704 53.6004 14.544C53.4004 14.384 53.2484 14.224 53.1444 14.064C53.0484 13.904 52.9964 13.776 52.9884 13.68C52.9804 13.592 53.0084 13.524 53.0724 13.476C53.1364 13.428 53.2004 13.404 53.2644 13.404H53.7924C53.8404 13.404 53.8764 13.412 53.9004 13.428C53.9324 13.436 53.9724 13.468 54.0204 13.524C54.1244 13.636 54.2404 13.748 54.3684 13.86C54.4964 13.972 54.6524 14.064 54.8364 14.136C55.0284 14.208 55.2644 14.244 55.5444 14.244C55.9524 14.244 56.2884 14.168 56.5524 14.016C56.8164 13.856 56.9484 13.624 56.9484 13.32C56.9484 13.12 56.8924 12.96 56.7804 12.84C56.6764 12.72 56.4844 12.612 56.2044 12.516C55.9324 12.42 55.5564 12.32 55.0764 12.216C54.5964 12.104 54.2164 11.968 53.9364 11.808C53.6564 11.64 53.4564 11.444 53.3364 11.22C53.2164 10.988 53.1564 10.728 53.1564 10.44C53.1564 10.144 53.2444 9.86 53.4204 9.588C53.5964 9.308 53.8524 9.08 54.1884 8.904C54.5324 8.728 54.9604 8.64 55.4724 8.64C55.8884 8.64 56.2444 8.692 56.5404 8.796C56.8364 8.9 57.0804 9.032 57.2724 9.192C57.4644 9.344 57.6084 9.496 57.7044 9.648C57.8004 9.8 57.8524 9.928 57.8604 10.032C57.8684 10.112 57.8444 10.18 57.7884 10.236C57.7324 10.284 57.6684 10.308 57.5964 10.308H57.0924C57.0364 10.308 56.9884 10.296 56.9484 10.272C56.9164 10.248 56.8844 10.22 56.8524 10.188C56.7724 10.084 56.6764 9.98 56.5644 9.876C56.4604 9.772 56.3204 9.688 56.1444 9.624C55.9764 9.552 55.7524 9.516 55.4724 9.516C55.0724 9.516 54.7724 9.6 54.5724 9.768C54.3724 9.936 54.2724 10.148 54.2724 10.404C54.2724 10.556 54.3164 10.692 54.4044 10.812C54.4924 10.932 54.6604 11.04 54.9084 11.136C55.1564 11.232 55.5244 11.336 56.0124 11.448C56.5404 11.552 56.9564 11.692 57.2604 11.868C57.5644 12.044 57.7804 12.248 57.9084 12.48C58.0364 12.712 58.1004 12.98 58.1004 13.284C58.1004 13.62 58.0004 13.928 57.8004 14.208C57.6084 14.488 57.3204 14.712 56.9364 14.88C56.5604 15.04 56.0924 15.12 55.5324 15.12Z" fill="#0059AC"/>
<path d="M11 0.5H56V-0.5H11V0.5ZM56 21.5H11V22.5H56V21.5ZM11 21.5C5.20101 21.5 0.5 16.799 0.5 11H-0.5C-0.5 17.3513 4.64872 22.5 11 22.5V21.5ZM66.5 11C66.5 16.799 61.799 21.5 56 21.5V22.5C62.3513 22.5 67.5 17.3513 67.5 11H66.5ZM56 0.5C61.799 0.5 66.5 5.20101 66.5 11H67.5C67.5 4.64873 62.3513 -0.5 56 -0.5V0.5ZM11 -0.5C4.64873 -0.5 -0.5 4.64873 -0.5 11H0.5C0.5 5.20101 5.20101 0.5 11 0.5V-0.5Z" fill="#ACD7FF"/>
</svg>
