<svg width="70" height="24" viewBox="0 0 70 24" fill="none" xmlns="http://www.w3.org/2000/svg">
<path d="M1 12C1 5.92487 5.92487 1 12 1H58C64.0751 1 69 5.92487 69 12C69 18.0751 64.0751 23 58 23H12C5.92487 23 1 18.0751 1 12Z" fill="#FCC5CE"/>
<path d="M10.32 16C10.232 16 10.164 15.976 10.116 15.928C10.068 15.872 10.044 15.804 10.044 15.724V7.888C10.044 7.8 10.068 7.732 10.116 7.684C10.164 7.628 10.232 7.6 10.32 7.6H15.276C15.364 7.6 15.432 7.628 15.48 7.684C15.528 7.732 15.552 7.8 15.552 7.888V8.344C15.552 8.432 15.528 8.5 15.48 8.548C15.432 8.596 15.364 8.62 15.276 8.62H11.196V11.248H15.012C15.1 11.248 15.168 11.276 15.216 11.332C15.264 11.38 15.288 11.448 15.288 11.536V11.98C15.288 12.06 15.264 12.128 15.216 12.184C15.168 12.232 15.1 12.256 15.012 12.256H11.196V14.98H15.372C15.46 14.98 15.528 15.004 15.576 15.052C15.624 15.1 15.648 15.168 15.648 15.256V15.724C15.648 15.804 15.624 15.872 15.576 15.928C15.528 15.976 15.46 16 15.372 16H10.32ZM19.615 16.12C19.047 16.12 18.555 16.012 18.139 15.796C17.731 15.572 17.415 15.256 17.191 14.848C16.967 14.432 16.847 13.936 16.831 13.36C16.823 13.24 16.819 13.08 16.819 12.88C16.819 12.68 16.823 12.52 16.831 12.4C16.847 11.824 16.967 11.332 17.191 10.924C17.415 10.508 17.731 10.192 18.139 9.976C18.555 9.752 19.047 9.64 19.615 9.64C20.079 9.64 20.475 9.704 20.803 9.832C21.139 9.96 21.415 10.124 21.631 10.324C21.847 10.524 22.007 10.74 22.111 10.972C22.223 11.204 22.283 11.424 22.291 11.632C22.299 11.712 22.275 11.776 22.219 11.824C22.163 11.872 22.095 11.896 22.015 11.896H21.439C21.359 11.896 21.299 11.88 21.259 11.848C21.219 11.808 21.179 11.744 21.139 11.656C20.995 11.264 20.799 10.988 20.551 10.828C20.303 10.668 19.995 10.588 19.627 10.588C19.147 10.588 18.755 10.736 18.451 11.032C18.155 11.328 17.995 11.804 17.971 12.46C17.963 12.748 17.963 13.028 17.971 13.3C17.995 13.964 18.155 14.444 18.451 14.74C18.755 15.028 19.147 15.172 19.627 15.172C19.995 15.172 20.303 15.092 20.551 14.932C20.799 14.772 20.995 14.496 21.139 14.104C21.179 14.016 21.219 13.956 21.259 13.924C21.299 13.884 21.359 13.864 21.439 13.864H22.015C22.095 13.864 22.163 13.888 22.219 13.936C22.275 13.984 22.299 14.048 22.291 14.128C22.283 14.296 22.247 14.468 22.183 14.644C22.119 14.82 22.015 15 21.871 15.184C21.735 15.36 21.563 15.52 21.355 15.664C21.147 15.8 20.895 15.912 20.599 16C20.311 16.08 19.983 16.12 19.615 16.12ZM26.2721 16.12C25.6641 16.12 25.1561 16.004 24.7481 15.772C24.3401 15.54 24.0281 15.22 23.8121 14.812C23.5961 14.396 23.4761 13.924 23.4521 13.396C23.4441 13.26 23.4401 13.088 23.4401 12.88C23.4401 12.664 23.4441 12.492 23.4521 12.364C23.4761 11.828 23.5961 11.356 23.8121 10.948C24.0361 10.54 24.3521 10.22 24.7601 9.988C25.1681 9.756 25.6721 9.64 26.2721 9.64C26.8721 9.64 27.3761 9.756 27.7841 9.988C28.1921 10.22 28.5041 10.54 28.7201 10.948C28.9441 11.356 29.0681 11.828 29.0921 12.364C29.1001 12.492 29.1041 12.664 29.1041 12.88C29.1041 13.088 29.1001 13.26 29.0921 13.396C29.0681 13.924 28.9481 14.396 28.7321 14.812C28.5161 15.22 28.2041 15.54 27.7961 15.772C27.3881 16.004 26.8801 16.12 26.2721 16.12ZM26.2721 15.196C26.7681 15.196 27.1641 15.04 27.4601 14.728C27.7561 14.408 27.9161 13.944 27.9401 13.336C27.9481 13.216 27.9521 13.064 27.9521 12.88C27.9521 12.696 27.9481 12.544 27.9401 12.424C27.9161 11.816 27.7561 11.356 27.4601 11.044C27.1641 10.724 26.7681 10.564 26.2721 10.564C25.7761 10.564 25.3761 10.724 25.0721 11.044C24.7761 11.356 24.6201 11.816 24.6041 12.424C24.5961 12.544 24.5921 12.696 24.5921 12.88C24.5921 13.064 24.5961 13.216 24.6041 13.336C24.6201 13.944 24.7761 14.408 25.0721 14.728C25.3761 15.04 25.7761 15.196 26.2721 15.196ZM30.8828 16C30.8028 16 30.7348 15.976 30.6788 15.928C30.6308 15.872 30.6068 15.804 30.6068 15.724V10.036C30.6068 9.956 30.6308 9.892 30.6788 9.844C30.7348 9.788 30.8028 9.76 30.8828 9.76H31.4468C31.5268 9.76 31.5908 9.788 31.6388 9.844C31.6948 9.892 31.7228 9.956 31.7228 10.036V10.564C31.9308 10.292 32.1908 10.072 32.5028 9.904C32.8228 9.728 33.2308 9.64 33.7268 9.64C34.2468 9.64 34.6868 9.756 35.0468 9.988C35.4148 10.212 35.6908 10.528 35.8748 10.936C36.0588 11.336 36.1508 11.804 36.1508 12.34V15.724C36.1508 15.804 36.1268 15.872 36.0788 15.928C36.0308 15.976 35.9668 16 35.8867 16H35.2868C35.2068 16 35.1388 15.976 35.0828 15.928C35.0348 15.872 35.0108 15.804 35.0108 15.724V12.4C35.0108 11.84 34.8748 11.404 34.6028 11.092C34.3308 10.772 33.9308 10.612 33.4028 10.612C32.9068 10.612 32.5068 10.772 32.2028 11.092C31.9068 11.404 31.7588 11.84 31.7588 12.4V15.724C31.7588 15.804 31.7308 15.872 31.6748 15.928C31.6268 15.976 31.5628 16 31.4827 16H30.8828ZM40.4401 16.12C39.8321 16.12 39.3241 16.004 38.9161 15.772C38.5081 15.54 38.1961 15.22 37.9801 14.812C37.7641 14.396 37.6441 13.924 37.6201 13.396C37.6121 13.26 37.6081 13.088 37.6081 12.88C37.6081 12.664 37.6121 12.492 37.6201 12.364C37.6441 11.828 37.7641 11.356 37.9801 10.948C38.2041 10.54 38.5201 10.22 38.9281 9.988C39.3361 9.756 39.8401 9.64 40.4401 9.64C41.0401 9.64 41.5441 9.756 41.9521 9.988C42.3601 10.22 42.6721 10.54 42.8881 10.948C43.1121 11.356 43.2361 11.828 43.2601 12.364C43.2681 12.492 43.2721 12.664 43.2721 12.88C43.2721 13.088 43.2681 13.26 43.2601 13.396C43.2361 13.924 43.1161 14.396 42.9001 14.812C42.6841 15.22 42.3721 15.54 41.9641 15.772C41.5561 16.004 41.0481 16.12 40.4401 16.12ZM40.4401 15.196C40.9361 15.196 41.3321 15.04 41.6281 14.728C41.9241 14.408 42.0841 13.944 42.1081 13.336C42.1161 13.216 42.1201 13.064 42.1201 12.88C42.1201 12.696 42.1161 12.544 42.1081 12.424C42.0841 11.816 41.9241 11.356 41.6281 11.044C41.3321 10.724 40.9361 10.564 40.4401 10.564C39.9441 10.564 39.5441 10.724 39.2401 11.044C38.9441 11.356 38.7881 11.816 38.7721 12.424C38.7641 12.544 38.7601 12.696 38.7601 12.88C38.7601 13.064 38.7641 13.216 38.7721 13.336C38.7881 13.944 38.9441 14.408 39.2401 14.728C39.5441 15.04 39.9441 15.196 40.4401 15.196ZM45.0507 16C44.9707 16 44.9027 15.976 44.8467 15.928C44.7987 15.872 44.7747 15.804 44.7747 15.724V10.036C44.7747 9.956 44.7987 9.892 44.8467 9.844C44.9027 9.788 44.9707 9.76 45.0507 9.76H45.5907C45.6707 9.76 45.7347 9.788 45.7827 9.844C45.8387 9.892 45.8667 9.956 45.8667 10.036V10.456C46.0507 10.208 46.2827 10.012 46.5627 9.868C46.8427 9.716 47.1787 9.64 47.5707 9.64C48.4747 9.632 49.1147 10 49.4907 10.744C49.6747 10.408 49.9427 10.14 50.2947 9.94C50.6467 9.74 51.0467 9.64 51.4947 9.64C51.9107 9.64 52.2867 9.736 52.6227 9.928C52.9667 10.12 53.2347 10.412 53.4267 10.804C53.6267 11.188 53.7267 11.672 53.7267 12.256V15.724C53.7267 15.804 53.6987 15.872 53.6427 15.928C53.5947 15.976 53.5307 16 53.4507 16H52.8867C52.8067 16 52.7387 15.976 52.6827 15.928C52.6347 15.872 52.6107 15.804 52.6107 15.724V12.364C52.6107 11.916 52.5467 11.564 52.4187 11.308C52.2907 11.052 52.1187 10.872 51.9027 10.768C51.6867 10.664 51.4507 10.612 51.1947 10.612C50.9867 10.612 50.7747 10.664 50.5587 10.768C50.3427 10.872 50.1627 11.052 50.0187 11.308C49.8827 11.564 49.8147 11.916 49.8147 12.364V15.724C49.8147 15.804 49.7867 15.872 49.7307 15.928C49.6827 15.976 49.6187 16 49.5387 16H48.9747C48.8947 16 48.8267 15.976 48.7707 15.928C48.7227 15.872 48.6987 15.804 48.6987 15.724V12.364C48.6987 11.916 48.6307 11.564 48.4947 11.308C48.3587 11.052 48.1827 10.872 47.9667 10.768C47.7507 10.664 47.5227 10.612 47.2827 10.612C47.0747 10.612 46.8627 10.664 46.6467 10.768C46.4307 10.872 46.2507 11.052 46.1067 11.308C45.9707 11.564 45.9027 11.912 45.9027 12.352V15.724C45.9027 15.804 45.8747 15.872 45.8187 15.928C45.7707 15.976 45.7067 16 45.6267 16H45.0507ZM56.3433 18.28C56.2793 18.28 56.2233 18.256 56.1753 18.208C56.1273 18.16 56.1033 18.104 56.1033 18.04C56.1033 18.008 56.1073 17.976 56.1153 17.944C56.1233 17.912 56.1393 17.872 56.1633 17.824L57.0873 15.628L54.7953 10.216C54.7553 10.12 54.7353 10.052 54.7353 10.012C54.7353 9.94 54.7593 9.88 54.8073 9.832C54.8553 9.784 54.9153 9.76 54.9873 9.76H55.5753C55.6553 9.76 55.7193 9.78 55.7673 9.82C55.8153 9.86 55.8473 9.908 55.8633 9.964L57.6873 14.332L59.5593 9.964C59.5833 9.908 59.6153 9.86 59.6553 9.82C59.7033 9.78 59.7713 9.76 59.8593 9.76H60.4233C60.4953 9.76 60.5553 9.784 60.6033 9.832C60.6513 9.88 60.6753 9.936 60.6753 10C60.6753 10.04 60.6553 10.112 60.6153 10.216L57.2073 18.076C57.1833 18.132 57.1473 18.18 57.0993 18.22C57.0593 18.26 56.9953 18.28 56.9073 18.28H56.3433Z" fill="#AD283D"/>
<path d="M12 1.25H58V0.75H12V1.25ZM58 22.75H12V23.25H58V22.75ZM12 22.75C6.06294 22.75 1.25 17.9371 1.25 12H0.75C0.75 18.2132 5.7868 23.25 12 23.25V22.75ZM68.75 12C68.75 17.9371 63.9371 22.75 58 22.75V23.25C64.2132 23.25 69.25 18.2132 69.25 12H68.75ZM58 1.25C63.9371 1.25 68.75 6.06294 68.75 12H69.25C69.25 5.7868 64.2132 0.75 58 0.75V1.25ZM12 0.75C5.7868 0.75 0.75 5.7868 0.75 12H1.25C1.25 6.06294 6.06294 1.25 12 1.25V0.75Z" fill="#F99BAB"/>
</svg>
