<svg width="48" height="48" viewBox="0 0 48 48" fill="none" xmlns="http://www.w3.org/2000/svg">
<circle cx="24" cy="24" r="24" fill="#DDF4FB"/>
<path d="M24 34.75C20 34.75 16.75 31.88 16.75 28.35V24.65C16.75 24.24 17.09 23.9 17.5 23.9C17.91 23.9 18.25 24.24 18.25 24.65C18.25 27.27 20.72 29.25 24 29.25C27.28 29.25 29.75 27.27 29.75 24.65C29.75 24.24 30.09 23.9 30.5 23.9C30.91 23.9 31.25 24.24 31.25 24.65V28.35C31.25 31.88 28 34.75 24 34.75ZM18.25 28.46C18.32 31.11 20.87 33.25 24 33.25C27.13 33.25 29.68 31.11 29.75 28.46C28.45 29.87 26.39 30.75 24 30.75C21.61 30.75 19.56 29.87 18.25 28.46Z" fill="#57CAEB"/>
<path d="M24 25.75C21.24 25.75 18.76 24.51 17.55 22.51C17.03 21.66 16.75 20.67 16.75 19.65C16.75 17.93 17.52 16.31 18.91 15.09C20.27 13.9 22.08 13.25 24 13.25C25.92 13.25 27.72 13.9 29.09 15.08C30.48 16.31 31.25 17.93 31.25 19.65C31.25 20.67 30.97 21.65 30.45 22.51C29.24 24.51 26.76 25.75 24 25.75ZM24 14.75C22.44 14.75 20.98 15.27 19.89 16.23C18.83 17.15 18.25 18.37 18.25 19.65C18.25 20.4 18.45 21.1 18.83 21.73C19.78 23.29 21.76 24.25 24 24.25C26.24 24.25 28.22 23.28 29.17 21.73C29.56 21.1 29.75 20.4 29.75 19.65C29.75 18.37 29.17 17.15 28.1 16.21C27.01 15.27 25.56 14.75 24 14.75Z" fill="#57CAEB"/>
<path d="M24 30.75C19.87 30.75 16.75 28.13 16.75 24.65V19.65C16.75 16.12 20 13.25 24 13.25C25.92 13.25 27.72 13.9 29.09 15.08C30.48 16.31 31.25 17.93 31.25 19.65V24.65C31.25 28.13 28.13 30.75 24 30.75ZM24 14.75C20.83 14.75 18.25 16.95 18.25 19.65V24.65C18.25 27.27 20.72 29.25 24 29.25C27.28 29.25 29.75 27.27 29.75 24.65V19.65C29.75 18.37 29.17 17.15 28.1 16.21C27.01 15.27 25.56 14.75 24 14.75Z" fill="#57CAEB"/>
</svg>
