<svg width="18" height="18" viewBox="0 0 18 18" fill="none" xmlns="http://www.w3.org/2000/svg">
<path d="M9 1.5C4.86 1.5 1.5 4.86 1.5 9C1.5 13.14 4.86 16.5 9 16.5C13.14 16.5 16.5 13.14 16.5 9C16.5 4.86 13.14 1.5 9 1.5ZM11.6475 9.7725L9.3975 12.0225C9.285 12.135 9.1425 12.1875 9 12.1875C8.8575 12.1875 8.715 12.135 8.6025 12.0225L6.3525 9.7725C6.135 9.555 6.135 9.195 6.3525 8.9775C6.57 8.76 6.93 8.76 7.1475 8.9775L8.4375 10.2675V6.375C8.4375 6.0675 8.6925 5.8125 9 5.8125C9.3075 5.8125 9.5625 6.0675 9.5625 6.375V10.2675L10.8525 8.9775C11.07 8.76 11.43 8.76 11.6475 8.9775C11.865 9.195 11.865 9.555 11.6475 9.7725Z" fill="#212934"/>
</svg>
