<svg width="100" height="100" viewBox="0 0 100 100" fill="none" xmlns="http://www.w3.org/2000/svg">
<path fill-rule="evenodd" clip-rule="evenodd" d="M11 18C14.866 18 18 14.866 18 11C18 7.13401 14.866 4 11 4C7.13401 4 4 7.13401 4 11C4 14.866 7.13401 18 11 18ZM59 43C62.866 43 66 39.866 66 36C66 32.134 62.866 29 59 29C55.134 29 52 32.134 52 36C52 39.866 55.134 43 59 43ZM16 36C17.6569 36 19 34.6569 19 33C19 31.3431 17.6569 30 16 30C14.3431 30 13 31.3431 13 33C13 34.6569 14.3431 36 16 36ZM79 67C80.6569 67 82 65.6569 82 64C82 62.3431 80.6569 61 79 61C77.3431 61 76 62.3431 76 64C76 65.6569 77.3431 67 79 67ZM34 90C35.6569 90 37 88.6569 37 87C37 85.3431 35.6569 84 34 84C32.3431 84 31 85.3431 31 87C31 88.6569 32.3431 90 34 90ZM90 14C91.6569 14 93 12.6569 93 11C93 9.34315 91.6569 8 90 8C88.3431 8 87 9.34315 87 11C87 12.6569 88.3431 14 90 14ZM12 86C14.2091 86 16 84.2091 16 82C16 79.7909 14.2091 78 12 78C9.79086 78 8 79.7909 8 82C8 84.2091 9.79086 86 12 86ZM40 21C42.2091 21 44 19.2091 44 17C44 14.7909 42.2091 13 40 13C37.7909 13 36 14.7909 36 17C36 19.2091 37.7909 21 40 21ZM63 10C65.7614 10 68 7.76142 68 5C68 2.23858 65.7614 0 63 0C60.2386 0 58 2.23858 58 5C58 7.76142 60.2386 10 63 10ZM57 70C59.2091 70 61 68.2091 61 66C61 63.7909 59.2091 62 57 62C54.7909 62 53 63.7909 53 66C53 68.2091 54.7909 70 57 70ZM86 92C88.7614 92 91 89.7614 91 87C91 84.2386 88.7614 82 86 82C83.2386 82 81 84.2386 81 87C81 89.7614 83.2386 92 86 92ZM32 63C34.7614 63 37 60.7614 37 58C37 55.2386 34.7614 53 32 53C29.2386 53 27 55.2386 27 58C27 60.7614 29.2386 63 32 63ZM89 50C91.7614 50 94 47.7614 94 45C94 42.2386 91.7614 40 89 40C86.2386 40 84 42.2386 84 45C84 47.7614 86.2386 50 89 50ZM80 29C81.1046 29 82 28.1046 82 27C82 25.8954 81.1046 25 80 25C78.8954 25 78 25.8954 78 27C78 28.1046 78.8954 29 80 29ZM60 91C61.1046 91 62 90.1046 62 89C62 87.8954 61.1046 87 60 87C58.8954 87 58 87.8954 58 89C58 90.1046 58.8954 91 60 91ZM35 41C36.1046 41 37 40.1046 37 39C37 37.8954 36.1046 37 35 37C33.8954 37 33 37.8954 33 39C33 40.1046 33.8954 41 35 41ZM12 60C13.1046 60 14 59.1046 14 58C14 56.8954 13.1046 56 12 56C10.8954 56 10 56.8954 10 58C10 59.1046 10.8954 60 12 60Z" fill="#F7FAFC" fill-opacity='0.04'/>
</svg>
