<svg width="24" height="26" viewBox="0 0 24 26" fill="none" xmlns="http://www.w3.org/2000/svg">
<path d="M12 24C18.6274 24 24 18.6274 24 12C24 5.37258 18.6274 0 12 0C5.37258 0 0 5.37258 0 12C0 18.6274 5.37258 24 12 24Z" fill="#00B058"/>
<g filter="url(#filter0_d_1500_10868)">
<path d="M17.4859 9.5903L11.3374 15.9153C11.2307 16.0264 11.1026 16.1148 10.9608 16.1752C10.8191 16.2355 10.6666 16.2667 10.5125 16.2667C10.3584 16.2667 10.206 16.2355 10.0642 16.1752C9.92245 16.1148 9.79436 16.0264 9.6876 15.9153L6.51445 12.65C6.29527 12.4219 6.17285 12.1179 6.17285 11.8016C6.17285 11.4853 6.29527 11.1812 6.51445 10.9532C6.62119 10.842 6.74928 10.7536 6.89103 10.6932C7.03279 10.6328 7.18528 10.6017 7.33937 10.6017C7.49345 10.6017 7.64595 10.6328 7.7877 10.6932C7.92946 10.7536 8.05755 10.842 8.16428 10.9532L10.5142 13.3703L15.8371 7.8935C15.9438 7.78241 16.0719 7.69403 16.2137 7.63366C16.3554 7.57329 16.5079 7.54218 16.662 7.54218C16.8161 7.54218 16.9686 7.57329 17.1103 7.63366C17.2521 7.69403 17.3801 7.78241 17.4869 7.8935C17.7059 8.12173 17.8281 8.42582 17.8279 8.74211C17.8277 9.05839 17.7051 9.36234 17.4859 9.5903Z" fill="white"/>
</g>
<defs>
<filter id="filter0_d_1500_10868" x="0.172852" y="4.54218" width="23.6553" height="20.7245" filterUnits="userSpaceOnUse" color-interpolation-filters="sRGB">
<feFlood flood-opacity="0" result="BackgroundImageFix"/>
<feColorMatrix in="SourceAlpha" type="matrix" values="0 0 0 0 0 0 0 0 0 0 0 0 0 0 0 0 0 0 127 0" result="hardAlpha"/>
<feOffset dy="3"/>
<feGaussianBlur stdDeviation="3"/>
<feColorMatrix type="matrix" values="0 0 0 0 0 0 0 0 0 0 0 0 0 0 0 0 0 0 0.161 0"/>
<feBlend mode="normal" in2="BackgroundImageFix" result="effect1_dropShadow_1500_10868"/>
<feBlend mode="normal" in="SourceGraphic" in2="effect1_dropShadow_1500_10868" result="shape"/>
</filter>
</defs>
</svg>
