<svg width="42" height="22" viewBox="0 0 42 22" fill="none" xmlns="http://www.w3.org/2000/svg">
<path d="M0 11C0 4.92487 4.92487 0 11 0H31C37.0751 0 42 4.92487 42 11C42 17.0751 37.0751 22 31 22H11C4.92487 22 0 17.0751 0 11Z" fill="#FFF0DB"/>
<path d="M9.32 15C9.232 15 9.164 14.976 9.116 14.928C9.068 14.872 9.044 14.804 9.044 14.724V6.888C9.044 6.8 9.068 6.732 9.116 6.684C9.164 6.628 9.232 6.6 9.32 6.6H14.216C14.304 6.6 14.372 6.628 14.42 6.684C14.468 6.732 14.492 6.8 14.492 6.888V7.368C14.492 7.456 14.468 7.524 14.42 7.572C14.372 7.62 14.304 7.644 14.216 7.644H10.208V10.44H13.976C14.064 10.44 14.132 10.468 14.18 10.524C14.228 10.572 14.252 10.64 14.252 10.728V11.208C14.252 11.288 14.228 11.356 14.18 11.412C14.132 11.46 14.064 11.484 13.976 11.484H10.208V14.724C10.208 14.804 10.18 14.872 10.124 14.928C10.076 14.976 10.008 15 9.92 15H9.32ZM16.1132 15C16.0332 15 15.9652 14.976 15.9092 14.928C15.8612 14.872 15.8372 14.804 15.8372 14.724V9.036C15.8372 8.956 15.8612 8.892 15.9092 8.844C15.9652 8.788 16.0332 8.76 16.1132 8.76H16.6892C16.7692 8.76 16.8332 8.788 16.8812 8.844C16.9292 8.892 16.9532 8.956 16.9532 9.036V14.724C16.9532 14.804 16.9292 14.872 16.8812 14.928C16.8332 14.976 16.7692 15 16.6892 15H16.1132ZM16.0172 7.596C15.9372 7.596 15.8692 7.572 15.8132 7.524C15.7652 7.468 15.7412 7.4 15.7412 7.32V6.672C15.7412 6.592 15.7652 6.528 15.8132 6.48C15.8692 6.424 15.9372 6.396 16.0172 6.396H16.7732C16.8532 6.396 16.9172 6.424 16.9652 6.48C17.0212 6.528 17.0492 6.592 17.0492 6.672V7.32C17.0492 7.4 17.0212 7.468 16.9652 7.524C16.9172 7.572 16.8532 7.596 16.7732 7.596H16.0172ZM19.1367 15C19.0567 15 18.9887 14.976 18.9327 14.928C18.8847 14.872 18.8607 14.804 18.8607 14.724V9.048C18.8607 8.968 18.8847 8.9 18.9327 8.844C18.9887 8.788 19.0567 8.76 19.1367 8.76H19.6887C19.7687 8.76 19.8367 8.788 19.8927 8.844C19.9487 8.9 19.9767 8.968 19.9767 9.048V9.576C20.1367 9.304 20.3567 9.1 20.6367 8.964C20.9167 8.828 21.2527 8.76 21.6447 8.76H22.1247C22.2047 8.76 22.2687 8.788 22.3167 8.844C22.3647 8.892 22.3887 8.956 22.3887 9.036V9.528C22.3887 9.608 22.3647 9.672 22.3167 9.72C22.2687 9.768 22.2047 9.792 22.1247 9.792H21.4047C20.9727 9.792 20.6327 9.92 20.3847 10.176C20.1367 10.424 20.0127 10.764 20.0127 11.196V14.724C20.0127 14.804 19.9847 14.872 19.9287 14.928C19.8727 14.976 19.8047 15 19.7247 15H19.1367ZM25.5793 15.12C25.1313 15.12 24.7473 15.064 24.4273 14.952C24.1073 14.84 23.8473 14.704 23.6473 14.544C23.4473 14.384 23.2953 14.224 23.1913 14.064C23.0953 13.904 23.0433 13.776 23.0353 13.68C23.0273 13.592 23.0553 13.524 23.1193 13.476C23.1833 13.428 23.2473 13.404 23.3113 13.404H23.8393C23.8873 13.404 23.9233 13.412 23.9473 13.428C23.9793 13.436 24.0193 13.468 24.0673 13.524C24.1713 13.636 24.2873 13.748 24.4153 13.86C24.5433 13.972 24.6993 14.064 24.8833 14.136C25.0753 14.208 25.3113 14.244 25.5913 14.244C25.9993 14.244 26.3353 14.168 26.5993 14.016C26.8633 13.856 26.9953 13.624 26.9953 13.32C26.9953 13.12 26.9393 12.96 26.8273 12.84C26.7233 12.72 26.5313 12.612 26.2513 12.516C25.9793 12.42 25.6033 12.32 25.1233 12.216C24.6433 12.104 24.2633 11.968 23.9833 11.808C23.7033 11.64 23.5033 11.444 23.3833 11.22C23.2633 10.988 23.2033 10.728 23.2033 10.44C23.2033 10.144 23.2913 9.86 23.4673 9.588C23.6433 9.308 23.8993 9.08 24.2353 8.904C24.5793 8.728 25.0073 8.64 25.5193 8.64C25.9353 8.64 26.2913 8.692 26.5873 8.796C26.8833 8.9 27.1273 9.032 27.3193 9.192C27.5113 9.344 27.6553 9.496 27.7513 9.648C27.8473 9.8 27.8993 9.928 27.9073 10.032C27.9153 10.112 27.8913 10.18 27.8353 10.236C27.7793 10.284 27.7153 10.308 27.6433 10.308H27.1393C27.0833 10.308 27.0353 10.296 26.9953 10.272C26.9633 10.248 26.9313 10.22 26.8993 10.188C26.8193 10.084 26.7233 9.98 26.6113 9.876C26.5073 9.772 26.3673 9.688 26.1913 9.624C26.0233 9.552 25.7993 9.516 25.5193 9.516C25.1193 9.516 24.8193 9.6 24.6193 9.768C24.4193 9.936 24.3193 10.148 24.3193 10.404C24.3193 10.556 24.3633 10.692 24.4513 10.812C24.5393 10.932 24.7073 11.04 24.9553 11.136C25.2033 11.232 25.5713 11.336 26.0592 11.448C26.5873 11.552 27.0033 11.692 27.3073 11.868C27.6113 12.044 27.8273 12.248 27.9553 12.48C28.0833 12.712 28.1473 12.98 28.1473 13.284C28.1473 13.62 28.0473 13.928 27.8473 14.208C27.6553 14.488 27.3673 14.712 26.9833 14.88C26.6073 15.04 26.1393 15.12 25.5793 15.12ZM31.9607 15C31.5127 15 31.1487 14.916 30.8687 14.748C30.5887 14.572 30.3847 14.328 30.2567 14.016C30.1287 13.696 30.0647 13.32 30.0647 12.888V9.72H29.1287C29.0487 9.72 28.9807 9.696 28.9247 9.648C28.8767 9.592 28.8527 9.524 28.8527 9.444V9.036C28.8527 8.956 28.8767 8.892 28.9247 8.844C28.9807 8.788 29.0487 8.76 29.1287 8.76H30.0647V6.756C30.0647 6.676 30.0887 6.612 30.1367 6.564C30.1927 6.508 30.2607 6.48 30.3407 6.48H30.9047C30.9847 6.48 31.0487 6.508 31.0967 6.564C31.1527 6.612 31.1807 6.676 31.1807 6.756V8.76H32.6687C32.7487 8.76 32.8127 8.788 32.8607 8.844C32.9167 8.892 32.9447 8.956 32.9447 9.036V9.444C32.9447 9.524 32.9167 9.592 32.8607 9.648C32.8127 9.696 32.7487 9.72 32.6687 9.72H31.1807V12.804C31.1807 13.18 31.2447 13.476 31.3727 13.692C31.5007 13.908 31.7287 14.016 32.0567 14.016H32.7887C32.8687 14.016 32.9327 14.044 32.9807 14.1C33.0367 14.148 33.0647 14.212 33.0647 14.292V14.724C33.0647 14.804 33.0367 14.872 32.9807 14.928C32.9327 14.976 32.8687 15 32.7887 15H31.9607Z" fill="#E08304"/>
<path d="M11 0.5H31V-0.5H11V0.5ZM31 21.5H11V22.5H31V21.5ZM11 21.5C5.20101 21.5 0.5 16.799 0.5 11H-0.5C-0.5 17.3513 4.64873 22.5 11 22.5V21.5ZM41.5 11C41.5 16.799 36.799 21.5 31 21.5V22.5C37.3513 22.5 42.5 17.3513 42.5 11H41.5ZM31 0.5C36.799 0.5 41.5 5.20101 41.5 11H42.5C42.5 4.64873 37.3513 -0.5 31 -0.5V0.5ZM11 -0.5C4.64873 -0.5 -0.5 4.64873 -0.5 11H0.5C0.5 5.20101 5.20101 0.5 11 0.5V-0.5Z" fill="#FFE5C2"/>
</svg>
