<svg width="48" height="48" viewBox="0 0 48 48" fill="none" xmlns="http://www.w3.org/2000/svg">
<rect width="48" height="48" rx="10" fill="#EDFFF9"/>
<path d="M24 16.5C19.8675 16.5 16.5 19.8675 16.5 24C16.5 28.1325 19.8675 31.5 24 31.5C28.1325 31.5 31.5 28.1325 31.5 24C31.5 19.8675 28.1325 16.5 24 16.5ZM27 24.5625H24.5625V27C24.5625 27.3075 24.3075 27.5625 24 27.5625C23.6925 27.5625 23.4375 27.3075 23.4375 27V24.5625H21C20.6925 24.5625 20.4375 24.3075 20.4375 24C20.4375 23.6925 20.6925 23.4375 21 23.4375H23.4375V21C23.4375 20.6925 23.6925 20.4375 24 20.4375C24.3075 20.4375 24.5625 20.6925 24.5625 21V23.4375H27C27.3075 23.4375 27.5625 23.6925 27.5625 24C27.5625 24.3075 27.3075 24.5625 27 24.5625Z" fill="#00B058"/>
</svg>
