<svg width="18" height="19" viewBox="0 0 18 19" fill="none" xmlns="http://www.w3.org/2000/svg">
<path d="M6.85108 16.08V13.7867C6.85108 13.2013 7.32913 12.7267 7.91883 12.7267H10.0745C10.3576 12.7267 10.6292 12.8384 10.8295 13.0372C11.0297 13.236 11.1422 13.5056 11.1422 13.7867V16.08C11.1404 16.3234 11.2365 16.5574 11.4093 16.7301C11.582 16.9029 11.817 17 12.0622 17H13.5329C14.2197 17.0018 14.8791 16.7321 15.3654 16.2506C15.8517 15.7691 16.125 15.1152 16.125 14.4334V7.90014C16.125 7.34935 15.8791 6.82688 15.4535 6.4735L10.4505 2.5069C9.58025 1.81142 8.33333 1.83388 7.48904 2.56023L2.60026 6.4735C2.15456 6.81646 1.88816 7.34048 1.875 7.90014V14.4267C1.875 15.8479 3.03554 17 4.46713 17H5.90422C6.41342 17 6.82725 16.5922 6.83094 16.0867L6.85108 16.08Z" fill="#5F6B7A"/>
</svg>
