<svg width="16" height="16" viewBox="0 0 16 16" fill="none" xmlns="http://www.w3.org/2000/svg">
<path fill-rule="evenodd" clip-rule="evenodd" d="M7.99989 1.90845C7.07665 1.90845 6.40315 2.46427 5.82693 3.18832C5.26332 3.89652 4.66355 4.93253 3.92183 6.21375L3.88911 6.27026L3.49357 6.95347L3.46084 7.01C2.71629 8.29599 2.11439 9.33559 1.77983 10.1795C1.43792 11.042 1.29082 11.9052 1.75306 12.707C2.2153 13.5087 3.03603 13.8139 3.95378 13.9501C4.85177 14.0834 6.05302 14.0834 7.53898 14.0834H7.539H7.60435H8.39544H8.46079H8.46081C9.94676 14.0834 11.148 14.0834 12.046 13.9501C12.9638 13.8139 13.7845 13.5087 14.2467 12.707C14.709 11.9052 14.5619 11.042 14.22 10.1795C13.8854 9.33559 13.2835 8.296 12.5389 7.01001L12.5062 6.95346L12.1107 6.27025L12.078 6.21374C11.3362 4.93252 10.7365 3.89652 10.1729 3.18832C9.59664 2.46427 8.92313 1.90845 7.99989 1.90845ZM8.74989 6.00007C8.74989 5.58586 8.4141 5.25007 7.99989 5.25007C7.58567 5.25007 7.24989 5.58586 7.24989 6.00007V8.66674C7.24989 9.08095 7.58567 9.41674 7.99989 9.41674C8.4141 9.41674 8.74989 9.08095 8.74989 8.66674V6.00007ZM8.66656 10.6667C8.66656 11.0349 8.36808 11.3334 7.99989 11.3334C7.6317 11.3334 7.33322 11.0349 7.33322 10.6667C7.33322 10.2985 7.6317 10.0001 7.99989 10.0001C8.36808 10.0001 8.66656 10.2985 8.66656 10.6667Z" fill="#FF9505"/>
</svg>
