<svg width="91" height="16" viewBox="0 0 91 16" fill="none" xmlns="http://www.w3.org/2000/svg">
<path d="M0.113249 8L3 10.8868L5.88675 8L3 5.11325L0.113249 8ZM3 8.5H4V7.5H3V8.5ZM6 8.5H8V7.5H6V8.5ZM10 8.5H12V7.5H10V8.5ZM14 8.5H16V7.5H14V8.5ZM18 8.5H20V7.5H18V8.5ZM22 8.5H24V7.5H22V8.5ZM26 8.5H28V7.5H26V8.5ZM30 8.5H32V7.5H30V8.5ZM34 8.5H35V7.5H34V8.5Z" fill="#CED6DE"/>
<path d="M49.0357 8.33333L45.667 13.6667L44.3337 13.6667L46.0177 8.33333L42.4443 8.33333L41.3337 10.3333L40.3337 10.3333L41.0003 7.33333L40.3337 4.33333L41.3337 4.33333L42.445 6.33333L46.0183 6.33333L44.3337 1L45.667 1L49.0357 6.33333L52.667 6.33333C52.9322 6.33333 53.1866 6.43869 53.3741 6.62623C53.5616 6.81376 53.667 7.06812 53.667 7.33333C53.667 7.59855 53.5616 7.8529 53.3741 8.04044C53.1866 8.22798 52.9322 8.33333 52.667 8.33333L49.0357 8.33333Z" fill="#8895A7"/>
<path d="M91 8L86 5.11325V10.8868L91 8ZM59 8.5H60V7.5H59V8.5ZM62 8.5H64V7.5H62V8.5ZM66 8.5H68V7.5H66V8.5ZM70 8.5H72V7.5H70V8.5ZM74 8.5H76V7.5H74V8.5ZM78 8.5H80V7.5H78V8.5ZM82 8.5H84V7.5H82V8.5ZM86 8.5H88V7.5H86V8.5Z" fill="#CED6DE"/>
</svg>
