<svg width="209" height="44" viewBox="0 0 209 44" fill="none" xmlns="http://www.w3.org/2000/svg">
<path d="M201.079 8.91211L200.12 7.25147H199.606V8.91211H198.91V4.90582H200.217C201.177 4.90582 201.608 5.34174 201.608 6.06135C201.627 6.30232 201.564 6.54279 201.429 6.74374C201.294 6.9447 201.095 7.09436 200.864 7.16844L201.948 8.91211H201.079ZM200.134 6.58722C200.6 6.58722 200.829 6.46267 200.829 6.07519C200.829 5.68771 200.572 5.57008 200.134 5.57008H199.606V6.58722H200.134Z" fill="#060A33"/>
<path d="M200.065 10.801C199.29 10.8024 198.532 10.5748 197.887 10.1469C197.242 9.71908 196.739 9.11034 196.442 8.39783C196.145 7.68532 196.068 6.90112 196.219 6.14462C196.371 5.38812 196.744 4.69337 197.293 4.14843C197.841 3.60348 198.54 3.23287 199.3 3.08356C200.061 2.93426 200.848 3.01298 201.564 3.30974C202.279 3.60651 202.89 4.10796 203.318 4.75056C203.747 5.39315 203.974 6.14795 203.972 6.9193C203.97 7.94944 203.557 8.93676 202.825 9.66453C202.092 10.3923 201.1 10.801 200.065 10.801ZM200.065 3.70182C199.427 3.70182 198.804 3.88994 198.273 4.24242C197.743 4.59489 197.33 5.09591 197.085 5.68216C196.841 6.26841 196.777 6.91359 196.9 7.53619C197.024 8.15879 197.331 8.73087 197.781 9.18015C198.232 9.62943 198.806 9.93575 199.431 10.0604C200.056 10.1851 200.705 10.1225 201.294 9.88054C201.884 9.6386 202.388 9.22817 202.743 8.70111C203.099 8.17405 203.289 7.554 203.29 6.9193C203.291 6.4971 203.209 6.07887 203.047 5.68855C202.885 5.29822 202.648 4.94348 202.348 4.64461C202.048 4.34575 201.693 4.10864 201.301 3.94687C200.909 3.78509 200.489 3.70182 200.065 3.70182Z" fill="#060A33"/>
<path d="M67.6011 21.9412V33.4411H63.5133L63.1379 31.0747C62.5216 31.9664 61.6882 32.688 60.7155 33.1721C59.7429 33.6561 58.6628 33.8867 57.5763 33.8424C53.711 33.8424 50.958 31.3653 50.958 27.8918C50.8995 26.9367 51.1342 25.9865 51.6308 25.1671C52.1275 24.3478 52.8626 23.6982 53.7388 23.3043C55.2851 22.6946 56.9438 22.4187 58.6052 22.4947H63.1727V21.9758C63.1727 19.9761 61.8379 18.7583 59.6967 18.7583C58.7122 18.7962 57.7509 19.067 56.8926 19.5483C56.0342 20.0296 55.3034 20.7076 54.7607 21.526L51.5281 18.8275C52.4964 17.5669 53.7476 16.5493 55.1817 15.8561C56.6158 15.1629 58.1929 14.8132 59.787 14.835C64.5909 14.835 67.6011 17.5405 67.6011 21.9412ZM63.1379 25.7883H59.1683C57.6389 25.7883 56.749 25.9682 56.1581 26.411C55.915 26.5799 55.7191 26.8077 55.5889 27.0728C55.4588 27.3379 55.3987 27.6317 55.4142 27.9264C55.4142 29.2272 56.4918 30.0022 58.2715 30.0022C60.948 30.0368 63.1379 28.1547 63.1379 25.7883Z" fill="#060A33"/>
<path d="M87.6996 25.7883H75.1442C75.3319 28.1893 76.8127 29.7808 79.7117 29.7808C80.5483 29.8092 81.3803 29.6469 82.1442 29.3063C82.9081 28.9657 83.5836 28.4559 84.1193 27.8157L87.199 30.5211C86.2733 31.5902 85.1195 32.44 83.8218 33.0086C82.524 33.5772 81.1151 33.8503 79.6978 33.8078C73.3784 33.8078 70.7019 29.2964 70.7019 24.4183C70.7019 19.644 73.3089 14.835 79.3989 14.835C85.0856 14.835 87.8316 18.9866 87.8316 24.0862C87.8244 24.6558 87.7803 25.2243 87.6996 25.7883ZM83.5284 22.2733C83.4519 19.9415 81.6652 18.5369 79.3572 18.5369C78.3048 18.5011 77.2789 18.8688 76.491 19.5641C75.7032 20.2594 75.2136 21.2292 75.1234 22.2733H83.5284Z" fill="#060A33"/>
<path d="M104.384 15.8729L102.229 19.7962C101.566 19.3671 100.788 19.1476 99.9977 19.1665C97.2864 19.1665 95.9516 20.8272 95.9516 24.2661V33.4411H91.4954V15.2225H95.9864V18.3293C96.3355 17.3125 96.9976 16.431 97.8786 15.8099C98.7597 15.1889 99.8149 14.8599 100.894 14.8696C102.132 14.8532 103.346 15.2024 104.384 15.8729Z" fill="#060A33"/>
<path d="M104.092 24.3076C104.092 19.125 107.568 14.835 113.269 14.835C118.97 14.835 122.446 19.125 122.446 24.3076C122.446 29.4902 118.914 33.8078 113.269 33.8078C107.624 33.8078 104.092 29.4486 104.092 24.3076ZM117.996 24.3076C117.996 21.3115 116.661 18.7237 113.283 18.7237C109.904 18.7237 108.562 21.3115 108.562 24.3076C108.562 27.3036 109.897 29.9261 113.283 29.9261C116.668 29.9261 117.982 27.2621 117.982 24.3076H117.996Z" fill="#060A33"/>
<path d="M143.51 24.3422C143.51 30.2997 140.277 33.8078 135.786 33.8078C134.8 33.8289 133.82 33.6426 132.911 33.261C132.002 32.8795 131.183 32.3113 130.51 31.5936V40.9831H126.047V15.2225H130.51V17.0215C131.171 16.2897 131.987 15.7138 132.9 15.3356C133.813 14.9573 134.799 14.7863 135.786 14.835C140.764 14.835 143.51 18.869 143.51 24.3422ZM139.054 24.3422C139.054 20.751 137.663 18.7583 134.709 18.7583C131.476 18.7583 130.1 21.0832 130.1 24.3422C130.1 27.6012 131.49 29.9606 134.667 29.9606C137.65 29.9261 139.04 27.8572 139.04 24.3076L139.054 24.3422Z" fill="#060A33"/>
<path d="M162.239 21.9412V33.4411H158.151L157.81 31.0747C157.193 31.9655 156.36 32.6864 155.387 33.1703C154.415 33.6542 153.335 33.8855 152.249 33.8424C148.383 33.8424 145.637 31.3653 145.637 27.8918C145.577 26.9407 145.807 25.9937 146.297 25.175C146.787 24.3563 147.514 23.7042 148.383 23.3043C149.93 22.6953 151.588 22.4193 153.25 22.4947H157.81V21.9758C157.81 19.9761 156.469 18.7583 154.334 18.7583C153.349 18.7957 152.386 19.0662 151.527 19.5475C150.667 20.0288 149.935 20.7071 149.391 21.526L146.159 18.8275C147.133 17.5815 148.385 16.5784 149.816 15.8974C151.247 15.2165 152.818 14.8764 154.404 14.9042C159.201 14.835 162.239 17.5405 162.239 21.9412ZM157.81 25.7883H153.834C152.311 25.7883 151.414 25.9682 150.824 26.4111C150.58 26.5799 150.385 26.8077 150.254 27.0728C150.124 27.338 150.064 27.6317 150.08 27.9264C150.08 29.2272 151.157 30.0022 152.944 30.0022C155.586 30.0368 157.81 28.1547 157.81 25.7883Z" fill="#060A33"/>
<path d="M170.825 32.9568L163.65 15.2225H168.558L173.202 27.8711L177.881 15.2225H182.789L172.41 40.9832H167.543L170.825 32.9568Z" fill="#060A33"/>
<path d="M199.842 25.7883H187.287C187.468 28.1893 188.955 29.7808 191.854 29.7808C192.687 29.806 193.515 29.6422 194.275 29.3017C195.035 28.9612 195.708 28.4531 196.241 27.8157L199.321 30.5211C198.395 31.5902 197.241 32.44 195.944 33.0086C194.646 33.5772 193.237 33.8503 191.82 33.8078C185.5 33.8078 182.824 29.2964 182.824 24.4183C182.824 19.644 185.424 14.835 191.521 14.835C197.207 14.835 199.953 18.9866 199.953 24.0862C199.953 24.6553 199.916 25.2239 199.842 25.7883ZM195.671 22.2733C195.602 19.9415 193.815 18.5369 191.5 18.5369C190.447 18.501 189.42 18.8685 188.631 19.5636C187.842 20.2587 187.351 21.2286 187.259 22.2733H195.671Z" fill="#060A33"/>
<path d="M26.8765 8.3655L28.1904 6.91936C26.0647 6.10898 23.7993 5.72335 21.5238 5.78448C19.2482 5.84561 17.0071 6.35232 14.9283 7.27565C12.8496 8.19898 10.9739 9.52086 9.40853 11.1658C7.84313 12.8107 6.61864 14.7464 5.805 16.8624C5.72852 17.0493 5.66596 17.2292 5.59644 17.4091L20.1956 18.869C23.0251 14.0186 25.9449 9.41724 26.8765 8.3655Z" fill="#060A33"/>
<path d="M13.9039 31.7459C13.744 31.6006 13.9039 31.0539 14.2028 30.189C14.3349 29.8431 14.5087 29.4417 14.7103 28.9989L4.62298 22.1418C4.37124 25.8389 5.29905 29.5206 7.27403 32.6617C9.24901 35.8029 12.1703 38.243 15.621 39.6339C18.5813 40.818 21.8156 41.1535 24.9576 40.6026L16.5109 30.6319C15.0927 31.4968 14.1194 31.9534 13.9039 31.7459Z" fill="#060A33"/>
<path d="M37.0193 14.4199C36.2615 15.2294 35.7262 15.8037 35.462 16.1013C34.3627 17.1899 33.2021 18.2156 31.986 19.1734C30.2689 20.5573 28.0999 22.2941 25.8752 24.017L29.1357 39.3433C33.3007 37.4509 36.5533 34.0073 38.1942 29.7531C39.1677 27.2735 39.5676 24.6075 39.3642 21.9531C39.1608 19.2986 38.3593 16.7238 37.0193 14.4199Z" fill="#060A33"/>
</svg>
