<svg width="18" height="18" viewBox="0 0 18 18" fill="none" xmlns="http://www.w3.org/2000/svg">
<path d="M7.47239 14.4209C7.84732 14.3416 10.132 14.3416 10.5069 14.4209C10.8274 14.495 11.174 14.6679 11.174 15.0456C11.1554 15.4052 10.9444 15.7239 10.653 15.9264C10.2751 16.221 9.83156 16.4076 9.36793 16.4748C9.11151 16.508 8.85957 16.5088 8.6121 16.4748C8.14771 16.4076 7.7042 16.221 7.32703 15.9256C7.03484 15.7239 6.82389 15.4052 6.80526 15.0456C6.80526 14.6679 7.15187 14.495 7.47239 14.4209ZM9.03392 1.5C10.594 1.5 12.1877 2.24026 13.1343 3.4685C13.7485 4.25937 14.0303 5.04949 14.0303 6.27773V6.59725C14.0303 7.5392 14.2793 8.09439 14.8271 8.73419C15.2423 9.20555 15.375 9.8106 15.375 10.467C15.375 11.1227 15.1596 11.7451 14.728 12.2504C14.163 12.8563 13.3662 13.243 12.5529 13.3102C11.3745 13.4107 10.1952 13.4953 9.00037 13.4953C7.80476 13.4953 6.62629 13.4447 5.44781 13.3102C4.63384 13.243 3.83701 12.8563 3.27275 12.2504C2.84116 11.7451 2.625 11.1227 2.625 10.467C2.625 9.8106 2.75843 9.20555 3.17287 8.73419C3.73788 8.09439 3.97044 7.5392 3.97044 6.59725V6.27773C3.97044 5.01625 4.285 4.19139 4.93275 3.3839C5.8958 2.20627 7.43951 1.5 8.96683 1.5H9.03392Z" fill="#41526E"/>
<path d="M16.5 3.5C16.5 5.15685 15.1569 6.5 13.5 6.5C11.8431 6.5 10.5 5.15685 10.5 3.5C10.5 1.84315 11.8431 0.5 13.5 0.5C15.1569 0.5 16.5 1.84315 16.5 3.5Z" fill="#D62F4B" stroke="#F7FAFC"/>
</svg>
