<svg width="93" height="22" viewBox="0 0 93 22" fill="none" xmlns="http://www.w3.org/2000/svg">
<path d="M0 11C0 4.92487 4.92487 0 11 0H82C88.0751 0 93 4.92487 93 11V11C93 17.0751 88.0751 22 82 22H11C4.92487 22 0 17.0751 0 11V11Z" fill="#C4EFDF"/>
<path d="M9.32 15C9.232 15 9.164 14.976 9.116 14.928C9.068 14.872 9.044 14.804 9.044 14.724V6.888C9.044 6.8 9.068 6.732 9.116 6.684C9.164 6.628 9.232 6.6 9.32 6.6H12.368C12.96 6.6 13.472 6.696 13.904 6.888C14.344 7.08 14.684 7.368 14.924 7.752C15.164 8.128 15.284 8.6 15.284 9.168C15.284 9.736 15.164 10.208 14.924 10.584C14.684 10.96 14.344 11.244 13.904 11.436C13.472 11.628 12.96 11.724 12.368 11.724H10.244V14.724C10.244 14.804 10.216 14.872 10.16 14.928C10.112 14.976 10.044 15 9.956 15H9.32ZM10.232 10.716H12.308C12.9 10.716 13.344 10.584 13.64 10.32C13.936 10.056 14.084 9.672 14.084 9.168C14.084 8.672 13.94 8.288 13.652 8.016C13.364 7.744 12.916 7.608 12.308 7.608H10.232V10.716ZM16.8632 15C16.7832 15 16.7152 14.976 16.6592 14.928C16.6112 14.872 16.5872 14.804 16.5872 14.724V9.048C16.5872 8.968 16.6112 8.9 16.6592 8.844C16.7152 8.788 16.7832 8.76 16.8632 8.76H17.4152C17.4952 8.76 17.5632 8.788 17.6192 8.844C17.6752 8.9 17.7032 8.968 17.7032 9.048V9.576C17.8632 9.304 18.0832 9.1 18.3632 8.964C18.6432 8.828 18.9792 8.76 19.3712 8.76H19.8512C19.9312 8.76 19.9952 8.788 20.0432 8.844C20.0912 8.892 20.1152 8.956 20.1152 9.036V9.528C20.1152 9.608 20.0912 9.672 20.0432 9.72C19.9952 9.768 19.9312 9.792 19.8512 9.792H19.1312C18.6992 9.792 18.3592 9.92 18.1112 10.176C17.8632 10.424 17.7392 10.764 17.7392 11.196V14.724C17.7392 14.804 17.7112 14.872 17.6552 14.928C17.5992 14.976 17.5312 15 17.4512 15H16.8632ZM23.5126 15.12C22.6886 15.12 22.0326 14.868 21.5446 14.364C21.0566 13.852 20.7886 13.156 20.7406 12.276C20.7326 12.172 20.7286 12.04 20.7286 11.88C20.7286 11.712 20.7326 11.576 20.7406 11.472C20.7726 10.904 20.9046 10.408 21.1366 9.984C21.3686 9.552 21.6846 9.22 22.0846 8.988C22.4926 8.756 22.9686 8.64 23.5126 8.64C24.1206 8.64 24.6286 8.768 25.0366 9.024C25.4526 9.28 25.7686 9.644 25.9846 10.116C26.2006 10.588 26.3086 11.14 26.3086 11.772V11.976C26.3086 12.064 26.2806 12.132 26.2246 12.18C26.1766 12.228 26.1126 12.252 26.0326 12.252H21.8806C21.8806 12.26 21.8806 12.276 21.8806 12.3C21.8806 12.324 21.8806 12.344 21.8806 12.36C21.8966 12.688 21.9686 12.996 22.0966 13.284C22.2246 13.564 22.4086 13.792 22.6486 13.968C22.8886 14.144 23.1766 14.232 23.5126 14.232C23.8006 14.232 24.0406 14.188 24.2326 14.1C24.4246 14.012 24.5806 13.916 24.7006 13.812C24.8206 13.7 24.9006 13.616 24.9406 13.56C25.0126 13.456 25.0686 13.396 25.1086 13.38C25.1486 13.356 25.2126 13.344 25.3006 13.344H25.8766C25.9566 13.344 26.0206 13.368 26.0686 13.416C26.1246 13.456 26.1486 13.516 26.1406 13.596C26.1326 13.716 26.0686 13.864 25.9486 14.04C25.8286 14.208 25.6566 14.376 25.4326 14.544C25.2086 14.712 24.9366 14.852 24.6166 14.964C24.2966 15.068 23.9286 15.12 23.5126 15.12ZM21.8806 11.424H25.1686V11.388C25.1686 11.028 25.1006 10.708 24.9646 10.428C24.8366 10.148 24.6486 9.928 24.4006 9.768C24.1526 9.6 23.8566 9.516 23.5126 9.516C23.1686 9.516 22.8726 9.6 22.6246 9.768C22.3846 9.928 22.2006 10.148 22.0726 10.428C21.9446 10.708 21.8806 11.028 21.8806 11.388V11.424ZM28.0195 15C27.9395 15 27.8715 14.976 27.8155 14.928C27.7675 14.872 27.7435 14.804 27.7435 14.724V9.036C27.7435 8.956 27.7675 8.892 27.8155 8.844C27.8715 8.788 27.9395 8.76 28.0195 8.76H28.5595C28.6395 8.76 28.7035 8.788 28.7515 8.844C28.8075 8.892 28.8355 8.956 28.8355 9.036V9.456C29.0195 9.208 29.2515 9.012 29.5315 8.868C29.8115 8.716 30.1475 8.64 30.5395 8.64C31.4435 8.632 32.0835 9 32.4595 9.744C32.6435 9.408 32.9115 9.14 33.2635 8.94C33.6155 8.74 34.0155 8.64 34.4635 8.64C34.8795 8.64 35.2555 8.736 35.5915 8.928C35.9355 9.12 36.2035 9.412 36.3955 9.804C36.5955 10.188 36.6955 10.672 36.6955 11.256V14.724C36.6955 14.804 36.6675 14.872 36.6115 14.928C36.5635 14.976 36.4995 15 36.4195 15H35.8555C35.7755 15 35.7075 14.976 35.6515 14.928C35.6035 14.872 35.5795 14.804 35.5795 14.724V11.364C35.5795 10.916 35.5155 10.564 35.3875 10.308C35.2595 10.052 35.0875 9.872 34.8715 9.768C34.6555 9.664 34.4195 9.612 34.1635 9.612C33.9555 9.612 33.7435 9.664 33.5275 9.768C33.3115 9.872 33.1315 10.052 32.9875 10.308C32.8515 10.564 32.7835 10.916 32.7835 11.364V14.724C32.7835 14.804 32.7555 14.872 32.6995 14.928C32.6515 14.976 32.5875 15 32.5075 15H31.9435C31.8635 15 31.7955 14.976 31.7395 14.928C31.6915 14.872 31.6675 14.804 31.6675 14.724V11.364C31.6675 10.916 31.5995 10.564 31.4635 10.308C31.3275 10.052 31.1515 9.872 30.9355 9.768C30.7195 9.664 30.4915 9.612 30.2515 9.612C30.0435 9.612 29.8315 9.664 29.6155 9.768C29.3995 9.872 29.2195 10.052 29.0755 10.308C28.9395 10.564 28.8715 10.912 28.8715 11.352V14.724C28.8715 14.804 28.8435 14.872 28.7875 14.928C28.7395 14.976 28.6755 15 28.5955 15H28.0195ZM38.6835 15C38.6035 15 38.5355 14.976 38.4795 14.928C38.4315 14.872 38.4075 14.804 38.4075 14.724V9.036C38.4075 8.956 38.4315 8.892 38.4795 8.844C38.5355 8.788 38.6035 8.76 38.6835 8.76H39.2595C39.3395 8.76 39.4035 8.788 39.4515 8.844C39.4995 8.892 39.5235 8.956 39.5235 9.036V14.724C39.5235 14.804 39.4995 14.872 39.4515 14.928C39.4035 14.976 39.3395 15 39.2595 15H38.6835ZM38.5875 7.596C38.5075 7.596 38.4395 7.572 38.3835 7.524C38.3355 7.468 38.3115 7.4 38.3115 7.32V6.672C38.3115 6.592 38.3355 6.528 38.3835 6.48C38.4395 6.424 38.5075 6.396 38.5875 6.396H39.3435C39.4235 6.396 39.4875 6.424 39.5355 6.48C39.5915 6.528 39.6195 6.592 39.6195 6.672V7.32C39.6195 7.4 39.5915 7.468 39.5355 7.524C39.4875 7.572 39.4235 7.596 39.3435 7.596H38.5875ZM43.6418 15.12C43.1298 15.12 42.6938 15.008 42.3338 14.784C41.9818 14.552 41.7138 14.232 41.5298 13.824C41.3458 13.416 41.2538 12.948 41.2538 12.42V9.036C41.2538 8.956 41.2778 8.892 41.3258 8.844C41.3818 8.788 41.4498 8.76 41.5298 8.76H42.1298C42.2098 8.76 42.2738 8.788 42.3218 8.844C42.3778 8.892 42.4058 8.956 42.4058 9.036V12.36C42.4058 13.552 42.9258 14.148 43.9658 14.148C44.4618 14.148 44.8578 13.992 45.1538 13.68C45.4578 13.36 45.6098 12.92 45.6098 12.36V9.036C45.6098 8.956 45.6338 8.892 45.6818 8.844C45.7378 8.788 45.8058 8.76 45.8858 8.76H46.4738C46.5618 8.76 46.6298 8.788 46.6778 8.844C46.7258 8.892 46.7498 8.956 46.7498 9.036V14.724C46.7498 14.804 46.7258 14.872 46.6778 14.928C46.6298 14.976 46.5618 15 46.4738 15H45.9218C45.8418 15 45.7738 14.976 45.7178 14.928C45.6698 14.872 45.6458 14.804 45.6458 14.724V14.196C45.4298 14.476 45.1658 14.7 44.8538 14.868C44.5498 15.036 44.1458 15.12 43.6418 15.12ZM48.8085 15C48.7285 15 48.6605 14.976 48.6045 14.928C48.5565 14.872 48.5325 14.804 48.5325 14.724V9.036C48.5325 8.956 48.5565 8.892 48.6045 8.844C48.6605 8.788 48.7285 8.76 48.8085 8.76H49.3485C49.4285 8.76 49.4925 8.788 49.5405 8.844C49.5965 8.892 49.6245 8.956 49.6245 9.036V9.456C49.8085 9.208 50.0405 9.012 50.3205 8.868C50.6005 8.716 50.9365 8.64 51.3285 8.64C52.2325 8.632 52.8725 9 53.2485 9.744C53.4325 9.408 53.7005 9.14 54.0525 8.94C54.4045 8.74 54.8045 8.64 55.2525 8.64C55.6685 8.64 56.0445 8.736 56.3805 8.928C56.7245 9.12 56.9925 9.412 57.1845 9.804C57.3845 10.188 57.4845 10.672 57.4845 11.256V14.724C57.4845 14.804 57.4565 14.872 57.4005 14.928C57.3525 14.976 57.2885 15 57.2085 15H56.6445C56.5645 15 56.4965 14.976 56.4405 14.928C56.3925 14.872 56.3685 14.804 56.3685 14.724V11.364C56.3685 10.916 56.3045 10.564 56.1765 10.308C56.0485 10.052 55.8765 9.872 55.6605 9.768C55.4445 9.664 55.2085 9.612 54.9525 9.612C54.7445 9.612 54.5325 9.664 54.3165 9.768C54.1005 9.872 53.9205 10.052 53.7765 10.308C53.6405 10.564 53.5725 10.916 53.5725 11.364V14.724C53.5725 14.804 53.5445 14.872 53.4885 14.928C53.4405 14.976 53.3765 15 53.2965 15H52.7325C52.6525 15 52.5845 14.976 52.5285 14.928C52.4805 14.872 52.4565 14.804 52.4565 14.724V11.364C52.4565 10.916 52.3885 10.564 52.2525 10.308C52.1165 10.052 51.9405 9.872 51.7245 9.768C51.5085 9.664 51.2805 9.612 51.0405 9.612C50.8325 9.612 50.6205 9.664 50.4045 9.768C50.1885 9.872 50.0085 10.052 49.8645 10.308C49.7285 10.564 49.6605 10.912 49.6605 11.352V14.724C49.6605 14.804 49.6325 14.872 49.5765 14.928C49.5285 14.976 49.4645 15 49.3845 15H48.8085ZM62.57 15C62.482 15 62.414 14.976 62.366 14.928C62.318 14.872 62.294 14.804 62.294 14.724V6.888C62.294 6.8 62.318 6.732 62.366 6.684C62.414 6.628 62.482 6.6 62.57 6.6H67.526C67.614 6.6 67.682 6.628 67.73 6.684C67.778 6.732 67.802 6.8 67.802 6.888V7.344C67.802 7.432 67.778 7.5 67.73 7.548C67.682 7.596 67.614 7.62 67.526 7.62H63.446V10.248H67.262C67.35 10.248 67.418 10.276 67.466 10.332C67.514 10.38 67.538 10.448 67.538 10.536V10.98C67.538 11.06 67.514 11.128 67.466 11.184C67.418 11.232 67.35 11.256 67.262 11.256H63.446V13.98H67.622C67.71 13.98 67.778 14.004 67.826 14.052C67.874 14.1 67.898 14.168 67.898 14.256V14.724C67.898 14.804 67.874 14.872 67.826 14.928C67.778 14.976 67.71 15 67.622 15H62.57ZM71.865 15.12C71.297 15.12 70.805 15.012 70.389 14.796C69.981 14.572 69.665 14.256 69.441 13.848C69.217 13.432 69.097 12.936 69.081 12.36C69.073 12.24 69.069 12.08 69.069 11.88C69.069 11.68 69.073 11.52 69.081 11.4C69.097 10.824 69.217 10.332 69.441 9.924C69.665 9.508 69.981 9.192 70.389 8.976C70.805 8.752 71.297 8.64 71.865 8.64C72.329 8.64 72.725 8.704 73.053 8.832C73.389 8.96 73.665 9.124 73.881 9.324C74.097 9.524 74.257 9.74 74.361 9.972C74.473 10.204 74.533 10.424 74.541 10.632C74.549 10.712 74.525 10.776 74.469 10.824C74.413 10.872 74.345 10.896 74.265 10.896H73.689C73.609 10.896 73.549 10.88 73.509 10.848C73.469 10.808 73.429 10.744 73.389 10.656C73.245 10.264 73.049 9.988 72.801 9.828C72.553 9.668 72.245 9.588 71.877 9.588C71.397 9.588 71.005 9.736 70.701 10.032C70.405 10.328 70.245 10.804 70.221 11.46C70.213 11.748 70.213 12.028 70.221 12.3C70.245 12.964 70.405 13.444 70.701 13.74C71.005 14.028 71.397 14.172 71.877 14.172C72.245 14.172 72.553 14.092 72.801 13.932C73.049 13.772 73.245 13.496 73.389 13.104C73.429 13.016 73.469 12.956 73.509 12.924C73.549 12.884 73.609 12.864 73.689 12.864H74.265C74.345 12.864 74.413 12.888 74.469 12.936C74.525 12.984 74.549 13.048 74.541 13.128C74.533 13.296 74.497 13.468 74.433 13.644C74.369 13.82 74.265 14 74.121 14.184C73.985 14.36 73.813 14.52 73.605 14.664C73.397 14.8 73.145 14.912 72.849 15C72.561 15.08 72.233 15.12 71.865 15.12ZM78.5221 15.12C77.9141 15.12 77.4061 15.004 76.9981 14.772C76.5901 14.54 76.2781 14.22 76.0621 13.812C75.8461 13.396 75.7261 12.924 75.7021 12.396C75.6941 12.26 75.6901 12.088 75.6901 11.88C75.6901 11.664 75.6941 11.492 75.7021 11.364C75.7261 10.828 75.8461 10.356 76.0621 9.948C76.2861 9.54 76.6021 9.22 77.0101 8.988C77.4181 8.756 77.9221 8.64 78.5221 8.64C79.1221 8.64 79.6261 8.756 80.0341 8.988C80.4421 9.22 80.7541 9.54 80.9701 9.948C81.1941 10.356 81.3181 10.828 81.3421 11.364C81.3501 11.492 81.3541 11.664 81.3541 11.88C81.3541 12.088 81.3501 12.26 81.3421 12.396C81.3181 12.924 81.1981 13.396 80.9821 13.812C80.7661 14.22 80.4541 14.54 80.0461 14.772C79.6381 15.004 79.1301 15.12 78.5221 15.12ZM78.5221 14.196C79.0181 14.196 79.4141 14.04 79.7101 13.728C80.0061 13.408 80.1661 12.944 80.1901 12.336C80.1981 12.216 80.2021 12.064 80.2021 11.88C80.2021 11.696 80.1981 11.544 80.1901 11.424C80.1661 10.816 80.0061 10.356 79.7101 10.044C79.4141 9.724 79.0181 9.564 78.5221 9.564C78.0261 9.564 77.6261 9.724 77.3221 10.044C77.0261 10.356 76.8701 10.816 76.8541 11.424C76.8461 11.544 76.8421 11.696 76.8421 11.88C76.8421 12.064 76.8461 12.216 76.8541 12.336C76.8701 12.944 77.0261 13.408 77.3221 13.728C77.6261 14.04 78.0261 14.196 78.5221 14.196ZM82.9316 15C82.8516 15 82.7836 14.976 82.7276 14.928C82.6796 14.872 82.6556 14.804 82.6556 14.724V13.86C82.6556 13.78 82.6796 13.716 82.7276 13.668C82.7836 13.612 82.8516 13.584 82.9316 13.584H83.7956C83.8756 13.584 83.9396 13.612 83.9876 13.668C84.0436 13.716 84.0716 13.78 84.0716 13.86V14.724C84.0716 14.804 84.0436 14.872 83.9876 14.928C83.9396 14.976 83.8756 15 83.7956 15H82.9316Z" fill="#158957"/>
<path d="M11 0.5H82V-0.5H11V0.5ZM82 21.5H11V22.5H82V21.5ZM11 21.5C5.20101 21.5 0.5 16.799 0.5 11H-0.5C-0.5 17.3513 4.64873 22.5 11 22.5V21.5ZM92.5 11C92.5 16.799 87.799 21.5 82 21.5V22.5C88.3513 22.5 93.5 17.3513 93.5 11H92.5ZM82 0.5C87.799 0.5 92.5 5.20101 92.5 11H93.5C93.5 4.64873 88.3513 -0.5 82 -0.5V0.5ZM11 -0.5C4.64873 -0.5 -0.5 4.64873 -0.5 11H0.5C0.5 5.20101 5.20101 0.5 11 0.5V-0.5Z" fill="#9BDFC4"/>
</svg>
