<svg width="48" height="48" viewBox="0 0 48 48" fill="none" xmlns="http://www.w3.org/2000/svg">
<rect width="48" height="48" rx="10" fill="#EDFFF9"/>
<path d="M24 16.5C19.86 16.5 16.5 19.86 16.5 24C16.5 28.14 19.86 31.5 24 31.5C28.14 31.5 31.5 28.14 31.5 24C31.5 19.86 28.14 16.5 24 16.5ZM26.6475 24.7725L24.3975 27.0225C24.285 27.135 24.1425 27.1875 24 27.1875C23.8575 27.1875 23.715 27.135 23.6025 27.0225L21.3525 24.7725C21.135 24.555 21.135 24.195 21.3525 23.9775C21.57 23.76 21.93 23.76 22.1475 23.9775L23.4375 25.2675V21.375C23.4375 21.0675 23.6925 20.8125 24 20.8125C24.3075 20.8125 24.5625 21.0675 24.5625 21.375V25.2675L25.8525 23.9775C26.07 23.76 26.43 23.76 26.6475 23.9775C26.865 24.195 26.865 24.555 26.6475 24.7725Z" fill="#00B058"/>
</svg>
