<svg width="48" height="48" viewBox="0 0 48 48" fill="none" xmlns="http://www.w3.org/2000/svg">
<rect width="48" height="48" rx="10" fill="#FFF0F2"/>
<path d="M24 16.5C19.86 16.5 16.5 19.86 16.5 24C16.5 28.14 19.86 31.5 24 31.5C28.14 31.5 31.5 28.14 31.5 24C31.5 19.86 28.14 16.5 24 16.5ZM26.6475 24.0225C26.535 24.135 26.3925 24.1875 26.25 24.1875C26.1075 24.1875 25.965 24.135 25.8525 24.0225L24.5625 22.7325V26.625C24.5625 26.9325 24.3075 27.1875 24 27.1875C23.6925 27.1875 23.4375 26.9325 23.4375 26.625V22.7325L22.1475 24.0225C21.93 24.24 21.57 24.24 21.3525 24.0225C21.135 23.805 21.135 23.445 21.3525 23.2275L23.6025 20.9775C23.82 20.76 24.18 20.76 24.3975 20.9775L26.6475 23.2275C26.865 23.445 26.865 23.805 26.6475 24.0225Z" fill="#D62F4B"/>
</svg>
