<svg width="18" height="19" viewBox="0 0 18 19" fill="none" xmlns="http://www.w3.org/2000/svg">
<path d="M12.975 10.122C13.8843 10.122 14.7076 10.1737 15.2141 10.2699C15.222 10.2699 15.6855 10.3652 15.8399 10.4267C16.0629 10.5229 16.2516 10.6966 16.3718 10.914C16.4579 11.0877 16.5 11.2712 16.5 11.4627C16.4921 11.6623 16.3631 12.0373 16.3025 12.1852C15.926 13.1597 14.6901 15.0224 13.9361 15.7369C13.8159 15.858 13.6702 15.989 13.6359 16.0237C13.4463 16.1716 13.2155 16.25 12.9671 16.25C12.7433 16.25 12.5203 16.1805 12.3404 16.0407C12.2469 15.9738 12.1105 15.8409 12.0481 15.7786L12.0147 15.7449C11.2335 15.0144 10.0591 13.1945 9.68168 12.2716C9.67363 12.2716 9.48562 11.8112 9.44759 11.5335L9.44118 11.4627V11.428C9.44118 11.0271 9.66412 10.653 10.0249 10.4614C10.2224 10.3572 10.7964 10.261 10.8052 10.2521C11.3196 10.1737 12.1086 10.122 12.975 10.122ZM5.02915 10.1679C5.38858 10.1679 5.68445 10.4421 5.72488 10.7958L5.72959 10.8788L5.92181 14.3128C5.92181 14.8134 5.52244 15.2188 5.02915 15.2188C4.56669 15.2188 4.186 14.8625 4.14022 14.4055L4.1356 14.3128L4.32871 10.8788C4.32871 10.4859 4.64206 10.1679 5.02915 10.1679ZM5.0338 2.75C5.25587 2.75 5.47882 2.81948 5.65963 2.95845C5.73753 3.01468 5.84526 3.1165 5.9151 3.18495L5.98528 3.25509C6.76559 3.98643 7.94089 5.80545 8.31832 6.72833C8.32556 6.72833 8.51424 7.18942 8.5524 7.46731L8.55882 7.53807V7.57281C8.55882 7.97278 8.335 8.34692 7.97512 8.53844C7.77763 8.64355 7.20359 8.73887 7.19481 8.74778C6.68045 8.82617 5.89136 8.87783 5.02502 8.87783C4.11568 8.87783 3.29235 8.82617 2.7859 8.72996C2.77712 8.72996 2.31455 8.63465 2.16006 8.57318C1.93712 8.47786 1.7484 8.30327 1.62815 8.08591C1.54213 7.9122 1.5 7.7287 1.5 7.53807C1.5079 7.33764 1.63693 6.9635 1.69661 6.81563C2.07405 5.8402 3.30903 3.97753 4.06389 3.26399C4.18414 3.14195 4.32985 3.01101 4.36408 2.97626C4.5528 2.82839 4.78452 2.75 5.0338 2.75ZM12.971 3.78125C13.4335 3.78125 13.8134 4.13749 13.8591 4.59454L13.8637 4.68722L13.6715 8.12134C13.6715 8.51419 13.3581 8.83221 12.971 8.83221C12.6116 8.83221 12.3157 8.558 12.2753 8.20428L12.2706 8.12134L12.0775 4.68722C12.0775 4.18657 12.4777 3.78125 12.971 3.78125Z" fill="#5F6B7A"/>
</svg>
