<svg width="16" height="16" viewBox="0 0 16 16" fill="none" xmlns="http://www.w3.org/2000/svg">
<path d="M6.125 10.2614C9.1751 10.2614 11.75 10.7633 11.75 12.7016C11.75 14.6399 9.15858 15.125 6.125 15.125C3.0749 15.125 0.5 14.6224 0.5 12.6848C0.5 10.7465 3.09067 10.2614 6.125 10.2614ZM13.2492 4.625C13.6214 4.625 13.9235 4.93208 13.9235 5.30871V6.1909H14.8258C15.1972 6.1909 15.5 6.49798 15.5 6.87461C15.5 7.25124 15.1972 7.55832 14.8258 7.55832H13.9235V8.44129C13.9235 8.81792 13.6214 9.125 13.2492 9.125C12.8778 9.125 12.575 8.81792 12.575 8.44129V7.55832H11.6742C11.3021 7.55832 11 7.25124 11 6.87461C11 6.49798 11.3021 6.1909 11.6742 6.1909H12.575V5.30871C12.575 4.93208 12.8778 4.625 13.2492 4.625ZM6.125 0.875C8.19093 0.875 9.84697 2.55247 9.84697 4.64513C9.84697 6.73779 8.19093 8.41526 6.125 8.41526C4.05907 8.41526 2.40303 6.73779 2.40303 4.64513C2.40303 2.55247 4.05907 0.875 6.125 0.875Z" fill="#060A33"/>
</svg>
