<svg width="18" height="19" viewBox="0 0 18 19" fill="none" xmlns="http://www.w3.org/2000/svg">
<path d="M12.3867 2.75C14.9733 2.75 16.5 4.23844 16.5 6.78635H13.3267V6.81235C11.8539 6.81235 10.66 7.97637 10.66 9.41225C10.66 10.8481 11.8539 12.0122 13.3267 12.0122H16.5V12.2461C16.5 14.7616 14.9733 16.25 12.3867 16.25H5.61333C3.02667 16.25 1.5 14.7616 1.5 12.2461V6.75385C1.5 4.23844 3.02667 2.75 5.61333 2.75H12.3867ZM15.94 7.90431C16.2493 7.90431 16.5 8.14875 16.5 8.45029V10.3482C16.4964 10.6483 16.2478 10.8907 15.94 10.8942H13.3867C12.6411 10.904 11.9891 10.4063 11.82 9.69824C11.7353 9.25872 11.8542 8.80517 12.1448 8.45916C12.4354 8.11315 12.868 7.91006 13.3267 7.90431H15.94ZM13.6867 8.78178H13.44C13.2886 8.78004 13.1427 8.83748 13.035 8.94128C12.9273 9.04508 12.8667 9.1866 12.8667 9.33426C12.8666 9.64404 13.1223 9.89617 13.44 9.89973H13.6867C14.0033 9.89973 14.26 9.64947 14.26 9.34076C14.26 9.03204 14.0033 8.78178 13.6867 8.78178ZM9.28667 5.66839H5.05333C4.73928 5.66837 4.48365 5.9147 4.48 6.22087C4.48 6.53066 4.73561 6.78279 5.05333 6.78635H9.28667C9.60331 6.78635 9.86 6.53609 9.86 6.22737C9.86 5.91866 9.60331 5.66839 9.28667 5.66839Z" fill="#5F6B7A"/>
</svg>
