<svg width="32" height="32" viewBox="0 0 32 32" fill="none" xmlns="http://www.w3.org/2000/svg">
<path d="M4.3272 8.10292C5.16374 7.51824 6.42476 7.63037 7.17586 8.25065L6.31441 6.99852C5.62116 6.00981 5.86945 4.94012 6.85905 4.24598C7.84865 3.5545 10.6528 5.41356 10.6528 5.41356C9.95332 4.41506 10.0841 3.14958 11.0826 2.44921C12.0811 1.75151 13.4587 1.99268 14.1582 2.99296L23.4313 16.0927L22.2494 27.5505L12.3864 23.9534L3.78346 11.1981C3.07775 10.1934 3.32159 8.80774 4.3272 8.10292Z" fill="#7A4324"/>
<path d="M2.39841 15.3904C2.39841 15.3904 1.39102 13.9221 2.86029 12.9156C4.32778 11.9091 5.33428 13.3765 5.33428 13.3765L10.0073 20.1916C10.1684 19.9228 10.3446 19.6576 10.5412 19.396L4.05546 9.93876C4.05546 9.93876 3.04895 8.47127 4.51733 7.46476C5.98482 6.45825 6.99133 7.92574 6.99133 7.92574L13.0918 16.8223C13.3187 16.6372 13.551 16.4512 13.7904 16.2688L6.71812 5.95366C6.71812 5.95366 5.71161 4.48617 7.17999 3.47966C8.64748 2.47316 9.65399 3.94065 9.65399 3.94065L16.7262 14.254C16.9861 14.0947 17.2433 13.9568 17.5014 13.8108L10.891 4.17114C10.891 4.17114 9.88448 2.70365 11.352 1.69714C12.8195 0.690633 13.826 2.15812 13.826 2.15812L20.8155 12.3513L21.878 13.9016C17.4747 16.922 17.0555 22.6042 19.5713 26.2734C20.0741 27.0076 20.8083 26.5047 20.8083 26.5047C17.7888 22.1005 18.7108 17.1516 23.115 14.1321L21.8166 7.63384C21.8166 7.63384 21.3316 5.92163 23.0429 5.43572C24.7552 4.95071 25.2411 6.66293 25.2411 6.66293L26.7406 11.1161C27.3351 12.8817 27.9678 14.6411 28.8052 16.3053C31.1698 21.0041 29.7574 26.8438 25.2989 29.9025C20.4355 33.237 13.7868 31.9974 10.4514 27.1348L2.39841 15.3904Z" fill="#E8B393"/>
<path d="M10.6788 28.4777C7.11913 28.4777 3.52204 24.8806 3.52204 21.3209C3.52204 20.8288 3.16162 20.431 2.66949 20.431C2.17736 20.431 1.74219 20.8288 1.74219 21.3209C1.74219 26.6605 5.33927 30.2575 10.6788 30.2575C11.171 30.2575 11.5688 29.8224 11.5688 29.3302C11.5688 28.8381 11.171 28.4777 10.6788 28.4777Z" fill="#22E0BB"/>
<path d="M6.22949 30.2202C3.55971 30.2202 1.77985 28.4403 1.77985 25.7705C1.77985 25.2784 1.38206 24.8806 0.889927 24.8806C0.397797 24.8806 0 25.2784 0 25.7705C0 29.3302 2.66978 32 6.22949 32C6.72162 32 7.11942 31.6022 7.11942 31.1101C7.11942 30.618 6.72162 30.2202 6.22949 30.2202ZM21.3583 1.74249C20.867 1.74249 20.4683 2.14118 20.4683 2.63242C20.4683 3.12366 20.867 3.52235 21.3583 3.52235C24.918 3.52235 28.4777 6.7163 28.4777 10.6418C28.4777 11.133 28.8764 11.5317 29.3676 11.5317C29.8588 11.5317 30.2575 11.133 30.2575 10.6418C30.2575 5.73471 26.6978 1.74249 21.3583 1.74249Z" fill="#22E0BB"/>
<path d="M25.8069 0C25.3157 0 24.917 0.36131 24.917 0.85255C24.917 1.34379 25.3157 1.77985 25.8069 1.77985C28.4767 1.77985 30.2192 3.75994 30.2192 6.19211C30.2192 6.68335 30.6544 7.08204 31.1465 7.08204C31.6386 7.08204 31.999 6.68335 31.999 6.19211C31.999 2.77746 29.3666 0 25.8069 0Z" fill="#22E0BB"/>
</svg>
