<svg id="Layer_1" data-name="Layer 1" xmlns="http://www.w3.org/2000/svg" viewBox="0 0 218.64 218.64"><defs><style>.cls-1{fill:#060a33;}</style></defs><path class="cls-1" d="M138.92,19.47l8-8.9A105.63,105.63,0,0,0,11,70.59c-.44,1.11-.84,2.2-1.24,3.3L98.3,82.65C115.55,53.49,133.26,25.81,138.92,19.47Z"/><path class="cls-1" d="M60.12,160.16c-1-.87-.21-4.24,1.81-9.38.83-2.09,1.86-4.49,3.09-7.15L3.85,102.31A105.7,105.7,0,0,0,127.26,213.45L76,153.42C67.4,158.66,61.49,161.38,60.12,160.16Z"/><path class="cls-1" d="M200.5,55.89c-4.61,4.89-7.85,8.34-9.45,10.12C188.22,69.17,180.42,76,170,84.48s-23.59,18.8-37.1,29l19.8,92.21A105.69,105.69,0,0,0,200.5,55.89Z"/></svg>