<svg width="1440" height="350" viewBox="0 0 1440 350" fill="none" xmlns="http://www.w3.org/2000/svg">
<path d="M732.541 80.4136C732.937 77.6447 732.516 74.8213 731.33 72.2839C730.143 69.7464 728.241 67.6032 725.853 66.1125C723.465 64.6218 720.693 63.8473 717.871 63.8823C715.048 63.9174 712.296 64.7604 709.947 66.3099C708.563 63.0177 706.224 60.2062 703.227 58.2313C700.23 56.2563 696.709 55.2066 693.11 55.215C692.847 55.215 692.603 55.215 692.341 55.215C691.386 51.5972 689.581 48.2542 687.074 45.4588C684.567 42.6633 681.429 40.4945 677.916 39.1292C674.402 37.7638 670.612 37.2406 666.856 37.6022C663.099 37.9638 659.482 39.1999 656.299 41.2099C652.878 35.3243 647.34 30.9351 640.794 28.9197C634.247 26.9042 627.174 27.4111 620.989 30.3388C618.091 24.0365 613.104 18.9064 606.856 15.8015C600.609 12.6965 593.477 11.8036 586.646 13.2712C582.364 8.66404 577.074 5.08973 571.182 2.82236C565.29 0.554983 558.952 -0.34523 552.654 0.190757C546.356 0.726744 540.266 2.68469 534.851 5.91445C529.435 9.1442 524.838 13.56 521.412 18.8231C515.546 16.4196 508.964 16.3856 503.073 18.7284C497.182 21.0712 492.45 25.6048 489.888 31.3597C489.205 31.2792 488.517 31.2373 487.828 31.2343C485.21 31.2322 482.624 31.797 480.249 32.889C477.875 33.981 475.77 35.574 474.082 37.5563C471.101 34.8811 467.613 32.8195 463.821 31.4914C460.03 30.1634 456.009 29.5953 451.994 29.8203C447.978 30.0452 444.048 31.0587 440.431 32.8019C436.815 34.545 433.584 36.983 430.927 39.9741C428.556 37.916 425.735 36.4324 422.686 35.6404C419.637 34.8485 416.444 34.7699 413.36 35.4109C410.275 36.0518 407.383 37.3949 404.912 39.3338C402.441 41.2727 400.459 43.7543 399.123 46.5827C397.288 45.8193 395.313 45.4397 393.322 45.4676C391.331 45.4955 389.368 45.9304 387.555 46.745C385.742 47.5595 384.118 48.7363 382.786 50.2014C381.453 51.6666 380.44 53.3887 379.81 55.2598C376.786 55.4634 373.841 56.2995 371.168 57.713C368.494 59.1264 366.154 61.0852 364.3 63.4601C362.446 65.835 361.121 68.5722 360.412 71.4914C359.704 74.4105 359.628 77.4452 360.189 80.3957L732.541 80.4136Z" fill="white"/>
<path d="M298.516 80.7583C299.624 77.979 299.968 74.9583 299.515 72.004C299.061 69.0498 297.825 66.2674 295.933 63.9403C294.041 61.6133 291.56 59.8247 288.744 58.7568C285.927 57.6889 282.875 57.3798 279.898 57.8611C278.087 55.0517 275.437 52.8707 272.318 51.6207C269.199 50.3707 265.765 50.1137 262.491 50.8853C260.435 46.183 256.85 42.2979 252.306 39.849C247.762 37.4001 242.522 36.5284 237.421 37.3727C234.879 32.5202 231.178 28.3572 226.64 25.2462C222.103 22.1351 216.866 20.1705 211.387 19.5233C205.908 18.8762 200.352 19.5662 195.204 21.5331C190.055 23.5001 185.47 26.6845 181.848 30.8089C177.322 29.9872 172.648 30.7301 168.608 32.9132C166.208 30.0784 163.209 27.7995 159.824 26.2369C156.439 24.6743 152.749 23.866 149.014 23.869C147.805 23.8715 146.597 23.9582 145.399 24.1287C142.394 21.0077 138.659 18.6687 134.524 17.3187C130.389 15.9686 125.983 15.6491 121.694 16.3883C117.404 17.1276 113.365 18.9029 109.934 21.5571C106.502 24.2113 103.783 27.6627 102.018 31.6058C98.1628 30.1283 93.9758 29.7103 89.9001 30.396C85.8244 31.0816 82.0114 32.8455 78.864 35.5011C73.8029 33.9317 68.3326 34.2934 63.5269 36.5151C58.7211 38.7369 54.9271 42.6582 52.8897 47.5094C49.2895 47.7309 45.8224 48.9401 42.876 51.0017C40.4434 49.2189 37.6267 48.0193 34.6472 47.4972C31.6676 46.9751 28.6065 47.1448 25.7044 47.993C23.6404 44.5388 20.6999 41.6801 17.1751 39.7011C13.6503 37.7221 9.66406 36.6918 5.61277 36.7126C1.56147 36.7335 -2.41375 37.8047 -5.91763 39.8198C-9.42151 41.8349 -12.332 44.7237 -14.3596 48.1989C-16.9492 47.6841 -19.6187 47.7105 -22.1973 48.2764C-24.776 48.8423 -27.2071 49.9352 -29.3351 51.4853C-31.8677 49.7025 -34.7338 48.4384 -37.7657 47.7668C-40.7975 47.0953 -43.9341 47.0299 -46.9918 47.5744C-50.0495 48.119 -52.9668 49.2625 -55.5729 50.9381C-58.179 52.6137 -60.4214 54.7877 -62.1689 57.3327C-64.8503 57.5868 -67.4362 58.4509 -69.7252 59.8575C-72.0143 61.2642 -73.9446 63.1755 -75.3659 65.4426C-76.7872 67.7096 -77.661 70.2712 -77.9194 72.9277C-78.1777 75.5843 -77.8135 78.264 -76.8552 80.7583L298.516 80.7583Z" fill="white"/>
<path d="M375.766 80.3954C376.681 77.6266 376.965 74.6173 376.591 71.6741C376.216 68.731 375.196 65.959 373.634 63.6407C372.072 61.3224 370.024 59.5406 367.698 58.4767C365.373 57.4128 362.853 57.1049 360.396 57.5843C358.9 54.7855 356.713 52.6127 354.138 51.3674C351.563 50.1221 348.728 49.8661 346.025 50.6348C344.328 45.9502 341.368 42.0796 337.617 39.6399C333.866 37.2003 329.54 36.3318 325.328 37.173C323.229 32.3387 320.174 28.1913 316.428 25.092C312.682 21.9927 308.359 20.0354 303.835 19.3907C299.312 18.746 294.725 19.4334 290.475 21.393C286.224 23.3526 282.439 26.525 279.449 30.6338C275.712 29.8153 271.853 30.5553 268.518 32.7303C266.536 29.9061 264.061 27.6358 261.266 26.079C258.471 24.5223 255.425 23.7171 252.342 23.72C251.343 23.7225 250.346 23.8089 249.358 23.9787C246.877 20.8695 243.793 18.5393 240.379 17.1943C236.966 15.8493 233.328 15.531 229.787 16.2675C226.246 17.004 222.911 18.7726 220.078 21.4168C217.245 24.0611 215.001 27.4995 213.544 31.4278C210.36 29.9558 206.904 29.5394 203.539 30.2225C200.174 30.9055 197.026 32.6628 194.428 35.3085C190.25 33.7449 185.733 34.1052 181.766 36.3186C177.799 38.532 174.666 42.4387 172.984 47.2716C170.012 47.4923 167.15 48.6969 164.717 50.7508C162.709 48.9746 160.384 47.7795 157.924 47.2594C155.464 46.7393 152.937 46.9084 150.541 47.7533C148.837 44.3121 146.409 41.4641 143.499 39.4926C140.589 37.5211 137.298 36.4946 133.954 36.5154C130.609 36.5361 127.327 37.6033 124.435 39.6109C121.542 41.6184 119.139 44.4963 117.465 47.9585C115.327 47.4456 113.123 47.4719 110.995 48.0357C108.866 48.5995 106.859 49.6883 105.102 51.2325C103.011 49.4565 100.645 48.197 98.1418 47.528C95.6388 46.859 93.0493 46.7939 90.525 47.3364C88.0006 47.8789 85.5922 49.0181 83.4407 50.6874C81.2892 52.3567 79.4379 54.5225 77.9952 57.058C75.7816 57.3111 73.6467 58.1719 71.757 59.5733C69.8672 60.9747 68.2735 62.8788 67.1002 65.1373C65.9268 67.3959 65.2054 69.9478 64.9921 72.5944C64.7789 75.2409 65.0795 77.9106 65.8707 80.3954L375.766 80.3954Z" fill="white"/>
<path d="M554.418 80.4134C554.021 77.6445 554.442 74.8211 555.629 72.2837C556.815 69.7462 558.717 67.603 561.105 66.1123C563.493 64.6216 566.266 63.8471 569.088 63.8821C571.91 63.9172 574.662 64.7602 577.012 66.3097C578.393 63.0231 580.726 60.2155 583.716 58.241C586.706 56.2665 590.219 55.2135 593.813 55.2148C594.075 55.2148 594.319 55.2148 594.581 55.2148C595.534 51.5915 597.339 48.2432 599.849 45.4435C602.358 42.6439 605.501 40.4723 609.02 39.1064C612.538 37.7405 616.333 37.219 620.094 37.5846C623.855 37.9501 627.476 39.1923 630.659 41.2096C634.082 35.3256 639.621 30.9383 646.167 28.9246C652.713 26.9109 659.785 27.4191 665.97 30.3476C668.863 24.0561 673.84 18.933 680.074 15.8273C686.309 12.7216 693.427 11.8197 700.249 13.271C704.531 8.65186 709.824 5.06717 715.723 2.79255C721.622 0.517935 727.968 -0.386025 734.275 0.150184C740.581 0.686393 746.68 2.64849 752.101 5.88559C757.522 9.12269 762.122 13.5486 765.547 18.8229C771.413 16.4194 777.995 16.3854 783.886 18.7282C789.777 21.071 794.509 25.6046 797.07 31.3595C797.754 31.279 798.442 31.2371 799.131 31.2341C801.748 31.232 804.335 31.7968 806.709 32.8888C809.084 33.9808 811.189 35.5737 812.877 37.5561C815.859 34.8745 819.35 32.8078 823.147 31.4765C826.943 30.1452 830.969 29.5758 834.99 29.8017C839.011 30.0276 842.946 31.0441 846.566 32.7921C850.187 34.54 853.42 36.9844 856.077 39.9829C858.447 37.9335 861.264 36.4569 864.307 35.6695C867.351 34.882 870.537 34.8051 873.615 35.4448C876.694 36.0845 879.58 37.4234 882.048 39.3561C884.515 41.2887 886.497 43.7624 887.835 46.5825C889.671 45.8191 891.646 45.4395 893.636 45.4674C895.627 45.4953 897.59 45.9302 899.403 46.7448C901.216 47.5593 902.84 48.7361 904.173 50.2012C905.506 51.6664 906.519 53.3885 907.149 55.2596C910.172 55.4632 913.117 56.2993 915.791 57.7128C918.464 59.1262 920.805 61.085 922.659 63.4599C924.513 65.8348 925.838 68.572 926.546 71.4911C927.255 74.4103 927.331 77.445 926.77 80.3955L554.418 80.4134Z" fill="white"/>
<path d="M854.893 80.4135C853.784 77.6354 853.438 74.6157 853.89 71.6619C854.342 68.7081 855.575 65.9256 857.466 63.5979C859.356 61.2702 861.835 59.4803 864.65 58.4104C867.465 57.3406 870.516 57.029 873.492 57.5074C875.304 54.698 877.953 52.517 881.072 51.267C884.191 50.017 887.626 49.76 890.899 50.5317C892.956 45.8259 896.545 41.9383 901.092 39.4892C905.639 37.04 910.883 36.1704 915.988 37.019C918.531 32.1671 922.232 28.0049 926.77 24.8948C931.308 21.7846 936.545 19.8209 942.024 19.1746C947.503 18.5284 953.058 19.2192 958.206 21.1868C963.354 23.1545 967.939 26.3394 971.56 30.4641C976.087 29.6425 980.761 30.3854 984.8 32.5685C987.201 29.7337 990.199 27.4548 993.585 25.8922C996.97 24.3296 1000.66 23.5213 1004.39 23.5242C1005.6 23.5267 1006.81 23.6135 1008.01 23.7839C1011.01 20.663 1014.75 18.324 1018.88 16.9739C1023.02 15.6239 1027.43 15.3043 1031.71 16.0436C1036 16.7829 1040.04 18.5582 1043.47 21.2124C1046.91 23.8666 1049.63 27.318 1051.39 31.2611C1055.25 29.7836 1059.43 29.3656 1063.51 30.0512C1067.58 30.7369 1071.4 32.5008 1074.54 35.1564C1079.61 33.587 1085.08 33.9486 1089.88 36.1704C1094.69 38.3921 1098.48 42.3135 1100.52 47.1647C1104.12 47.3862 1107.59 48.5954 1110.53 50.657C1112.97 48.8741 1115.78 47.6745 1118.76 47.1525C1121.74 46.6304 1124.8 46.8001 1127.7 47.6482C1129.77 44.194 1132.71 41.3353 1136.23 39.3563C1139.76 37.3774 1143.74 36.3471 1147.8 36.3679C1151.85 36.3887 1155.82 37.4599 1159.33 39.4751C1162.83 41.4902 1165.74 44.379 1167.77 47.8542C1170.36 47.3394 1173.03 47.3658 1175.61 47.9317C1178.18 48.4976 1180.62 49.5905 1182.74 51.1406C1185.28 49.3578 1188.14 48.0936 1191.17 47.4221C1194.21 46.7506 1197.34 46.6852 1200.4 47.2297C1203.46 47.7743 1206.38 48.9178 1208.98 50.5934C1211.59 52.269 1213.83 54.443 1215.58 56.988C1218.25 57.253 1220.83 58.1242 1223.1 59.534C1225.38 60.9439 1227.3 62.8546 1228.72 65.118C1230.13 67.3814 1231 69.9368 1231.25 72.5861C1231.51 75.2355 1231.15 77.9077 1230.19 80.3956L854.893 80.4135Z" fill="white"/>
<path opacity="0.55" d="M516.208 65.3186C516.134 61.5837 514.63 58.0162 512 55.3392C509.37 52.6622 505.812 51.0758 502.046 50.9015C500.812 47.9152 498.811 45.3009 496.242 43.3186C493.672 41.3363 490.624 40.055 487.399 39.6023C484.175 39.1495 480.887 39.541 477.863 40.7378C474.838 41.9346 472.183 43.8951 470.161 46.4242C468.371 45.6787 466.407 45.4446 464.49 45.7485C462.573 46.0524 460.781 46.882 459.316 48.1435C458.089 46.6643 456.546 45.473 454.799 44.6555C453.052 43.8379 451.144 43.4144 449.211 43.4154C448.841 43.4154 448.479 43.4154 448.118 43.4602C447.34 41.3242 446.108 39.3785 444.506 37.7546C442.904 36.1308 440.969 34.8665 438.831 34.0474C436.694 33.2282 434.403 32.8732 432.115 33.0063C429.828 33.1394 427.595 33.7575 425.569 34.8189C422.396 33.3553 418.818 32.9922 415.411 33.7881C412.005 34.5841 408.967 36.4927 406.789 39.2067C404.286 38.3604 401.578 38.3228 399.052 39.0992C396.15 34.9186 391.807 31.9331 386.838 30.7044C381.87 29.4757 376.619 30.0887 372.075 32.428C370.187 29.0675 367.463 26.2412 364.162 24.2176C360.86 22.1941 357.092 21.0405 353.214 20.8664C349.336 20.6923 345.478 21.5036 342.006 23.2231C338.534 24.9426 335.563 27.5132 333.376 30.6907C331.771 30.2201 330.081 30.1125 328.429 30.3758C326.777 30.6392 325.206 31.2668 323.832 32.2123C322.458 33.1579 321.316 34.3971 320.49 35.8387C319.664 37.2802 319.175 38.8872 319.06 40.5409V40.5409C316.038 40.5427 313.059 41.2484 310.363 42.601C307.667 43.9536 305.33 45.9152 303.54 48.3275C301.75 50.7398 300.557 53.5353 300.059 56.4883C299.56 59.4414 299.769 62.4692 300.668 65.3276L516.208 65.3186Z" fill="white"/>
<path opacity="0.55" d="M966.924 48.0511C966.85 44.3161 965.346 40.7487 962.717 38.0716C960.087 35.3946 956.528 33.8082 952.762 33.634C951.529 30.6477 949.528 28.0334 946.958 26.0511C944.389 24.0687 941.34 22.7875 938.116 22.3347C934.891 21.8819 931.604 22.2734 928.579 23.4702C925.555 24.6671 922.9 26.6275 920.877 29.1566C919.088 28.4111 917.124 28.1771 915.207 28.4809C913.29 28.7848 911.497 29.6145 910.032 30.8759C908.805 29.3967 907.263 28.2055 905.516 27.3879C903.769 26.5703 901.86 26.1468 899.928 26.1478C899.557 26.1478 899.196 26.1478 898.834 26.1926C898.056 24.0566 896.825 22.1109 895.223 20.4871C893.62 18.8632 891.685 17.599 889.548 16.7798C887.41 15.9606 885.12 15.6056 882.832 15.7387C880.544 15.8718 878.312 16.4899 876.285 17.5513C873.12 16.1036 869.556 15.7491 866.163 16.5445C862.77 17.3399 859.744 19.2393 857.568 21.9391C855.066 21.0929 852.357 21.0553 849.832 21.8317C846.93 17.6511 842.586 14.6655 837.618 13.4368C832.649 12.2082 827.399 12.8212 822.855 15.1604C820.965 11.7996 818.238 8.97358 814.935 6.95115C811.632 4.92872 807.861 3.77706 803.982 3.60565C800.103 3.43425 796.244 4.2488 792.772 5.97187C789.3 7.69494 786.331 10.2692 784.146 13.4501C782.542 12.9794 780.852 12.8718 779.2 13.1351C777.548 13.3985 775.977 14.0261 774.603 14.9716C773.229 15.9172 772.087 17.1565 771.261 18.598C770.435 20.0395 769.946 21.6465 769.831 23.3002V23.3002C766.809 23.302 763.83 24.0077 761.134 25.3603C758.438 26.7129 756.101 28.6745 754.311 31.0868C752.521 33.4991 751.328 36.2946 750.829 39.2476C750.331 42.2007 750.539 45.2285 751.439 48.0869L966.924 48.0511Z" fill="white"/>
<path d="M1491.8 80.4135C1492.91 77.6354 1493.26 74.6157 1492.81 71.6619C1492.36 68.7081 1491.12 65.9256 1489.23 63.5979C1487.34 61.2702 1484.86 59.4803 1482.05 58.4104C1479.23 57.3406 1476.18 57.029 1473.2 57.5074C1471.39 54.698 1468.74 52.517 1465.62 51.267C1462.51 50.017 1459.07 49.76 1455.8 50.5317C1453.74 45.8259 1450.15 41.9383 1445.61 39.4892C1441.06 37.04 1435.81 36.1704 1430.71 37.019C1428.17 32.1619 1424.47 27.9948 1419.92 24.8811C1415.38 21.7673 1410.14 19.8015 1404.66 19.1551C1399.18 18.5086 1393.62 19.2012 1388.47 21.1725C1383.32 23.1437 1378.73 26.3336 1375.11 30.4641C1370.58 29.6425 1365.91 30.3854 1361.87 32.5685C1359.47 29.7337 1356.47 27.4548 1353.09 25.8922C1349.7 24.3296 1346.01 23.5213 1342.28 23.5242C1341.07 23.5267 1339.86 23.6135 1338.66 23.7839C1335.66 20.663 1331.92 18.324 1327.79 16.9739C1323.65 15.6239 1319.24 15.3043 1314.95 16.0436C1310.67 16.7829 1306.63 18.5582 1303.2 21.2124C1299.76 23.8666 1297.04 27.318 1295.28 31.2611C1291.42 29.7785 1287.22 29.3602 1283.13 30.0508C1279.05 30.7414 1275.23 32.515 1272.08 35.1833C1267.02 33.6138 1261.55 33.9755 1256.74 36.1973C1251.94 38.419 1248.14 42.3404 1246.11 47.1915C1242.51 47.4131 1239.04 48.6222 1236.09 50.6839C1233.66 48.901 1230.84 47.7014 1227.86 47.1793C1224.88 46.6573 1221.82 46.827 1218.92 47.6751C1216.86 44.2209 1213.92 41.3622 1210.39 39.3832C1206.87 37.4042 1202.88 36.3739 1198.83 36.3948C1194.78 36.4156 1190.8 37.4868 1187.3 39.5019C1183.79 41.517 1180.88 44.4058 1178.86 47.8811C1176.27 47.3663 1173.6 47.3926 1171.02 47.9585C1168.44 48.5244 1166.01 49.6174 1163.88 51.1674C1161.35 49.3917 1158.49 48.1334 1155.46 47.4657C1152.43 46.7981 1149.3 46.7346 1146.25 47.279C1143.2 47.8233 1140.28 48.9646 1137.68 50.6362C1135.08 52.3077 1132.84 54.4762 1131.09 57.0149C1128.42 57.2799 1125.84 58.1511 1123.57 59.5609C1121.29 60.9708 1119.37 62.8814 1117.95 65.1448C1116.54 67.4082 1115.67 69.9636 1115.42 72.613C1115.16 75.2624 1115.52 77.9345 1116.48 80.4225L1491.8 80.4135Z" fill="white"/>
<path opacity="0.55" d="M1263 48.9465C1262.93 45.2115 1261.43 41.6441 1258.8 38.9671C1256.17 36.29 1252.61 34.7037 1248.84 34.5294C1247.61 31.5431 1245.61 28.9288 1243.04 26.9465C1240.47 24.9642 1237.42 23.6829 1234.2 23.2301C1230.97 22.7774 1227.68 23.1689 1224.66 24.3657C1221.63 25.5625 1218.98 27.523 1216.96 30.052C1215.17 29.3066 1213.2 29.0725 1211.29 29.3764C1209.37 29.6802 1207.58 30.5099 1206.11 31.7714C1204.88 30.2922 1203.34 29.1009 1201.6 28.2833C1199.85 27.4658 1197.94 27.0422 1196.01 27.0433C1195.64 27.0433 1195.28 27.0433 1194.91 27.088C1194.14 24.952 1192.9 23.0064 1191.3 21.3825C1189.7 19.7586 1187.76 18.4944 1185.63 17.6752C1183.49 16.8561 1181.2 16.501 1178.91 16.6341C1176.62 16.7672 1174.39 17.3854 1172.36 18.4467C1169.19 16.9929 1165.62 16.6378 1162.22 17.4384C1158.82 18.239 1155.79 20.1489 1153.61 22.8614C1151.11 22.0152 1148.4 21.9776 1145.88 22.754C1142.97 18.5734 1138.63 15.5878 1133.66 14.3591C1128.69 13.1305 1123.44 13.7435 1118.9 16.0827C1117.01 12.7261 1114.29 9.90349 1110.99 7.88261C1107.69 5.86172 1103.92 4.70962 1100.05 4.53559C1096.17 4.36157 1092.32 5.17139 1088.85 6.88824C1085.37 8.60509 1082.4 11.172 1080.22 14.3455C1078.61 13.8748 1076.92 13.7672 1075.27 14.0306C1073.62 14.2939 1072.05 14.9215 1070.67 15.8671C1069.3 16.8126 1068.16 18.0519 1067.33 19.4934C1066.5 20.935 1066.02 22.5419 1065.9 24.1957V24.1957C1062.88 24.1975 1059.9 24.9031 1057.2 26.2557C1054.51 27.6083 1052.17 29.5699 1050.38 31.9822C1048.59 34.3946 1047.4 37.19 1046.9 40.1431C1046.4 43.0961 1046.61 46.124 1047.51 48.9823L1263 48.9465Z" fill="white"/>
<rect x="-68" y="79.4563" width="1561" height="63.5436" fill="white"/>
</svg>
