<svg width="18" height="19" viewBox="0 0 18 19" fill="none" xmlns="http://www.w3.org/2000/svg">
<g clip-path="url(#clip0_1077_119)">
<path d="M11.7896 8.6764L13.3524 15.5988L12.2918 16.6595L9.38876 11.0772L6.54619 13.9198L7.25365 16.3943L6.45816 17.1898L4.602 14.273L1.68519 12.4168L2.48068 11.6213L4.95573 12.3283L7.7983 9.48569L2.21552 6.58319L3.27618 5.52253L10.1986 7.08541L13.0873 4.19671C13.2983 3.98573 13.5844 3.8672 13.8828 3.8672C14.1811 3.8672 14.4673 3.98573 14.6783 4.19671C14.8893 4.40768 15.0078 4.69383 15.0078 4.9922C15.0078 5.29057 14.8893 5.57672 14.6783 5.7877L11.7896 8.6764Z" fill="#8895A7"/>
</g>
<defs>
<clipPath id="clip0_1077_119">
<rect width="18" height="18" fill="white" transform="translate(0 0.5)"/>
</clipPath>
</defs>
</svg>
